<?xml version="1.0" encoding="utf-8"?>
<!-- Uploaded to: SVG Repo, www.svgrepo.com, Generator: SVG Repo Mixer Tools -->
<svg width="800px" height="800px" viewBox="0 0 64 64" xmlns="http://www.w3.org/2000/svg">
<title>palestine</title>
<g id="palestine">
<circle cx="26.5" cy="23.5" r="22.5" style="fill:#edebdc"/>
<rect x="4.033" y="53" width="56.967" height="8" style="fill:#e7d1c4;stroke:#4c241d;stroke-linecap:round;stroke-linejoin:round;stroke-width:2px"/>
<rect x="4.033" y="41" width="56.967" height="12" style="fill:#9dc1e4;stroke:#4c241d;stroke-linecap:round;stroke-linejoin:round;stroke-width:2px"/>
<line x1="14.978" y1="41.396" x2="14.978" y2="60.532" style="fill:none;stroke:#4c241d;stroke-linecap:round;stroke-linejoin:round;stroke-width:2px"/>
<line x1="50" y1="41" x2="50" y2="61" style="fill:none;stroke:#4c241d;stroke-linecap:round;stroke-linejoin:round;stroke-width:2px"/>
<line x1="4" y1="44" x2="61" y2="44" style="fill:none;stroke:#4c241d;stroke-linecap:round;stroke-linejoin:round;stroke-width:2px"/>
<path d="M5.461,49h0A1.539,1.539,0,0,1,7,50.539V61a0,0,0,0,1,0,0H3.923a0,0,0,0,1,0,0V50.539A1.539,1.539,0,0,1,5.461,49Z" style="fill:none;stroke:#4c241d;stroke-linecap:round;stroke-linejoin:round;stroke-width:2px"/>
<path d="M8.461,49h0A1.539,1.539,0,0,1,10,50.539V61a0,0,0,0,1,0,0H6.923a0,0,0,0,1,0,0V50.539A1.539,1.539,0,0,1,8.461,49Z" style="fill:none;stroke:#4c241d;stroke-linecap:round;stroke-linejoin:round;stroke-width:2px"/>
<path d="M20.461,49h0A1.539,1.539,0,0,1,22,50.539V61a0,0,0,0,1,0,0H18.923a0,0,0,0,1,0,0V50.539A1.539,1.539,0,0,1,20.461,49Z" style="fill:none;stroke:#4c241d;stroke-linecap:round;stroke-linejoin:round;stroke-width:2px"/>
<path d="M23.461,49h0A1.539,1.539,0,0,1,25,50.539V61a0,0,0,0,1,0,0H21.923a0,0,0,0,1,0,0V50.539A1.539,1.539,0,0,1,23.461,49Z" style="fill:none;stroke:#4c241d;stroke-linecap:round;stroke-linejoin:round;stroke-width:2px"/>
<path d="M26.461,49h0A1.539,1.539,0,0,1,28,50.539V61a0,0,0,0,1,0,0H24.923a0,0,0,0,1,0,0V50.539A1.539,1.539,0,0,1,26.461,49Z" style="fill:none;stroke:#4c241d;stroke-linecap:round;stroke-linejoin:round;stroke-width:2px"/>
<path d="M29.461,49h0A1.539,1.539,0,0,1,31,50.539V61a0,0,0,0,1,0,0H27.923a0,0,0,0,1,0,0V50.539A1.539,1.539,0,0,1,29.461,49Z" style="fill:none;stroke:#4c241d;stroke-linecap:round;stroke-linejoin:round;stroke-width:2px"/>
<path d="M32.461,49h0A1.539,1.539,0,0,1,34,50.539V61a0,0,0,0,1,0,0H30.923a0,0,0,0,1,0,0V50.539A1.539,1.539,0,0,1,32.461,49Z" style="fill:none;stroke:#4c241d;stroke-linecap:round;stroke-linejoin:round;stroke-width:2px"/>
<path d="M35.461,49h0A1.539,1.539,0,0,1,37,50.539V61a0,0,0,0,1,0,0H33.923a0,0,0,0,1,0,0V50.539A1.539,1.539,0,0,1,35.461,49Z" style="fill:none;stroke:#4c241d;stroke-linecap:round;stroke-linejoin:round;stroke-width:2px"/>
<path d="M38.461,49h0A1.539,1.539,0,0,1,40,50.539V61a0,0,0,0,1,0,0H36.923a0,0,0,0,1,0,0V50.539A1.539,1.539,0,0,1,38.461,49Z" style="fill:none;stroke:#4c241d;stroke-linecap:round;stroke-linejoin:round;stroke-width:2px"/>
<path d="M41.461,49h0A1.539,1.539,0,0,1,43,50.539V61a0,0,0,0,1,0,0H39.923a0,0,0,0,1,0,0V50.539A1.539,1.539,0,0,1,41.461,49Z" style="fill:none;stroke:#4c241d;stroke-linecap:round;stroke-linejoin:round;stroke-width:2px"/>
<path d="M44.461,49h0A1.539,1.539,0,0,1,46,50.539V61a0,0,0,0,1,0,0H42.923a0,0,0,0,1,0,0V50.539A1.539,1.539,0,0,1,44.461,49Z" style="fill:none;stroke:#4c241d;stroke-linecap:round;stroke-linejoin:round;stroke-width:2px"/>
<path d="M56.461,49h0A1.539,1.539,0,0,1,58,50.539V61a0,0,0,0,1,0,0H54.923a0,0,0,0,1,0,0V50.539A1.539,1.539,0,0,1,56.461,49Z" style="fill:none;stroke:#4c241d;stroke-linecap:round;stroke-linejoin:round;stroke-width:2px"/>
<path d="M59.461,49h0A1.539,1.539,0,0,1,61,50.539V61a0,0,0,0,1,0,0H57.923a0,0,0,0,1,0,0V50.539A1.539,1.539,0,0,1,59.461,49Z" style="fill:none;stroke:#4c241d;stroke-linecap:round;stroke-linejoin:round;stroke-width:2px"/>
<polygon points="48.68 37 16.32 37 4 41 61 41 48.68 37" style="fill:#e7d1c4;stroke:#4c241d;stroke-linecap:round;stroke-linejoin:round;stroke-width:2px"/>
<rect x="16" y="31" width="33" height="6" style="fill:#9dc1e4;stroke:#4c241d;stroke-linecap:round;stroke-linejoin:round;stroke-width:2px"/>
<line x1="14" y1="31" x2="51" y2="31" style="fill:none;stroke:#4c241d;stroke-linecap:round;stroke-linejoin:round;stroke-width:2px"/>
<path d="M47,31V23.994C45.2,15.237,33,11,33,11S20.8,15.237,19,23.994V31Z" style="fill:#ffce56;stroke:#4c241d;stroke-linecap:round;stroke-linejoin:round;stroke-width:2px"/>
<line x1="33" y1="11" x2="33" y2="7" style="fill:none;stroke:#4c241d;stroke-linecap:round;stroke-linejoin:round;stroke-width:2px"/>
</g>
</svg>