<?xml version="1.0" encoding="iso-8859-1"?>
<!-- Uploaded to: SVG Repo, www.svgrepo.com, Generator: SVG Repo Mixer Tools -->
<svg version="1.1" id="Layer_1" xmlns="http://www.w3.org/2000/svg" xmlns:xlink="http://www.w3.org/1999/xlink" 
	 viewBox="0 0 506 506" xml:space="preserve">
<circle style="fill:#84DBFF;" cx="253" cy="253" r="253"/>
<g>
	<path style="fill:#E6E9EE;" d="M234.7,257.4l-6.6,14.1c-1.5,3.3-0.1,7.2,3.2,8.7l4.1,1.9c3.3,1.5,7.2,0.1,8.7-3.2l8.8-18.8
		C247,260.5,240.7,259.6,234.7,257.4z"/>
	<path style="fill:#E6E9EE;" d="M208,231.5l-13.9,14c-2.9,2.9-3.1,7.3-0.5,9.8l3.2,3.2c2.6,2.6,7,2.3,9.8-0.5l11.1-11.2
		C213.2,242.2,209.9,237,208,231.5z"/>
</g>
<rect x="276.7" y="95.287" transform="matrix(-0.9063 -0.4227 0.4227 -0.9063 507.5693 356.4224)" style="fill:#FFFFFF;" width="33.201" height="53.301"/>
<path style="fill:#2B3B4E;" d="M323.7,106.7l-38.3-17.9c-0.3-0.1-0.4-0.5-0.3-0.7l4-8.5c0.1-0.3,0.5-0.4,0.7-0.3l38.3,17.9
	c0.3,0.1,0.4,0.5,0.3,0.7l-4,8.5C324.3,106.7,324,106.8,323.7,106.7z"/>
<path style="fill:#CED5E0;" d="M276.7,188c0-11,8.9-19.9,19.9-19.9c3.2,0,6.1,0.8,8.8,2.1l5.1-10.8l-56.8-26.5l-37.2,79.7l56.8,26.5
	l15.3-32.8C281.6,203.1,276.7,196.1,276.7,188z"/>
<rect x="250.695" y="141.39" transform="matrix(-0.9063 -0.4227 0.4227 -0.9063 475.9072 397.7053)" style="fill:#2B3B4E;" width="62.702" height="9.4"/>
<path style="fill:#596A79;" d="M351.6,239.3L351.6,239.3c-2.4-8.5-6-16.7-10.5-24.2c-6.1-10.3-14-19.3-23.3-26.9l-3.4-2.7l-0.4,4.3
	c-0.5,4.9-2.9,9.2-6.8,12.2l-2.2,1.6l1.9,1.9c6.1,6,11.2,12.8,15.2,20.3c3.2,6.1,5.6,12.6,7.2,19.3c1.7,7.6,2.3,15.3,1.7,22.5
	c-0.1,0.8-0.1,1.7-0.2,2.5c-0.1,1.4-0.2,2.8-0.4,4l-1.1,5.8c-0.2,1.1-0.5,2.2-0.9,3.4c-0.2,0.8-0.5,1.6-0.7,2.3l-0.8,2.8l-1.2,3
	c-3,7.7-7.3,15-12.6,21.1c-5.5,6.5-11.8,12-18.4,16.2c-6.6,4.1-13.9,7.2-21.6,9.4c-7.7,1.9-15.1,2.8-21.9,2.6h-1.6l-3.7-0.2
	c-0.7-0.1-1.3-0.1-1.9-0.2c-0.9-0.1-1.8-0.2-2.9-0.4c-2.8-0.4-5.8-1-9.2-1.9c-9.3-2.5-18-6.7-25.8-12.4c-2.9-2.1-4.9-4-6.2-5.1
	l-3.8-3.6l-24.5,26.5l5,4.2c2.9,2.3,6,4.7,9.5,7c7.7,5,20.2,11.8,36.5,15.4l1.3,0.3l19.8-19.8l20.8,20.8l1.2-0.2
	c5.5-0.9,10.9-2.2,16.3-3.9c10.4-3.6,20.2-8.5,29-14.6c8.9-6.3,16.9-14.1,23.8-23.3c6.7-8.7,12-18.9,15.4-29.4l1.4-4l1-3.9
	c0.2-0.9,0.4-1.7,0.6-2.5c0.4-1.7,0.9-3.5,1.1-5.4l1-8.2c0.2-1.7,0.2-3.3,0.2-4.8c0-0.8,0-1.6,0.1-2.4
	C355.7,259,354.5,249.3,351.6,239.3z"/>
<polygon style="fill:#324A5E;" points="243.6,343.4 164.1,422.8 323,422.8 "/>
<g>
	<path style="fill:#2B3B4E;" d="M243.6,386.4c-8.1,0-14.7-6.6-14.7-14.7s6.6-14.7,14.7-14.7c8.1,0,14.7,6.6,14.7,14.7
		S251.6,386.4,243.6,386.4z"/>
	<path style="fill:#2B3B4E;" d="M245.2,337.8l-93.6-36.5c-0.9-0.4-1.4-1.4-1-2.4l4.9-12.6c0.4-0.9,1.4-1.4,2.4-1l93.6,36.5
		c0.9,0.4,1.4,1.4,1,2.4l-4.9,12.6C247.2,337.7,246.2,338.2,245.2,337.8z"/>
	<path style="fill:#2B3B4E;" d="M208.9,208.9c-7.8,16.6,2.1,37.6,22,46.9s42.3,3.3,50-13.3L208.9,208.9z"/>
</g>
<circle style="fill:#324A5E;" cx="296.6" cy="188" r="23"/>
<circle style="fill:#2B3B4E;" cx="296.6" cy="188" r="11.9"/>
</svg>