<?xml version="1.0" standalone="yes"?>

<svg version="1.1" viewBox="0.0 0.0 380.4461942257218 435.92913385826773" fill="none" stroke="none" stroke-linecap="square" stroke-miterlimit="10" xmlns="http://www.w3.org/2000/svg" xmlns:xlink="http://www.w3.org/1999/xlink"><clipPath id="p.0"><path d="m0 0l380.4462 0l0 435.92914l-380.4462 0l0 -435.92914z" clip-rule="nonzero"></path></clipPath><g clip-path="url(#p.0)"><path fill="#000000" fill-opacity="0.0" d="m0 0l380.4462 0l0 435.92914l-380.4462 0z" fill-rule="nonzero"></path><path fill="#666666" d="m165.68062 400.2114c4.169113 2.4872742 3.9876404 10.25708 -1.2284393 13.526825c-5.2160645 3.2697144 -23.171265 5.7699585 -30.067993 6.0915527c-6.8967285 0.32159424 -9.740067 -1.8891296 -11.312355 -4.1619873c-1.5722885 -2.2728577 -0.8489914 -6.6663513 1.8786163 -9.47522c2.7276 -2.808838 7.698662 -6.381073 14.487022 -7.3779297c6.7883606 -0.9968872 22.07402 -1.0904846 26.243149 1.396759z" fill-rule="nonzero"></path><path fill="#ffffff" d="m162.74318 397.58862c3.5696564 1.4028625 4.601288 6.0453796 1.0967407 8.100342c-3.5045624 2.0549316 -16.88736 3.9014587 -22.124039 4.22937c-5.236679 0.32788086 -7.748703 -0.93600464 -9.296036 -2.262024c-1.547348 -1.3260193 -1.6550446 -3.963379 0.011962891 -5.694153c1.6670227 -1.7307434 4.9382324 -3.9614868 9.990128 -4.690399c5.051895 -0.7289429 16.751572 -1.0859985 20.321243 0.316864z" fill-rule="nonzero"></path><path fill="#666666" d="m189.52565 406.65576c-3.6647644 3.265503 -2.0265656 10.872223 3.7562866 13.063629c5.782837 2.1914062 24.04573 1.123352 30.94075 0.08480835c6.8950195 -1.0385437 9.297821 -3.7716064 10.429352 -6.3160706c1.131546 -2.544464 -0.4098816 -6.7237854 -3.6401367 -8.950745c-3.2302704 -2.2269592 -8.827072 -4.764038 -15.741455 -4.41098c-6.9143677 0.35305786 -22.080048 3.263855 -25.744797 6.529358z" fill-rule="nonzero"></path><path fill="#ffffff" d="m191.94437 403.49893c-3.274231 2.0811157 -3.4251862 6.8501587 0.43351746 8.182922c3.8587189 1.3327942 17.467667 0.519989 22.718765 -0.18624878c5.2510834 -0.7062378 7.5032806 -2.442871 8.787811 -4.051117c1.2845306 -1.6082764 0.89624023 -4.2235413 -1.0806274 -5.598419c-1.9768677 -1.3748779 -5.637329 -2.9263916 -10.780579 -2.65094c-5.1432495 0.27548218 -16.804657 2.2226868 -20.078888 4.3038025z" fill-rule="nonzero"></path><path fill="#000000" d="m211.40445 343.7979l0 65.44882l-24.503937 -0.03152466l0 -65.44879z" fill-rule="nonzero"></path><path fill="#000000" d="m177.41753 341.46722l-6.6141663 65.102356l-23.622055 -2.425171l6.6141815 -65.10239z" fill-rule="nonzero"></path><path fill="#f3d79f" d="m92.96167 207.37462c-0.25026703 -2.59021 -4.851425 -9.035019 -7.649002 -12.887375c-2.7975693 -3.852356 -6.8082504 -8.784256 -9.136444 -10.226776c-2.3282013 -1.4425049 -4.930443 -0.58451843 -4.8327484 1.5716858c0.0976944 2.156189 2.8404465 7.332794 5.418915 11.365524c2.5784683 4.03273 7.3520203 11.134674 10.051903 12.830826c2.6998749 1.696167 6.3976517 -0.06367493 6.147377 -2.653885z" fill-rule="nonzero"></path><path fill="#f3d79f" d="m87.59834 207.10788c-0.77869415 -2.6578217 -6.380493 -8.234543 -9.772461 -11.55571c-3.3919754 -3.321167 -8.129723 -7.4612274 -10.579369 -8.371246c-2.449646 -0.9100189 -4.66481 0.66978455 -4.118492 2.9111023c0.54631805 2.2413025 4.1680603 6.9688873 7.3964005 10.536728c3.2283478 3.5678558 9.127998 9.790512 11.973656 10.870377c2.8456497 1.0798492 5.8789673 -1.7334137 5.1002655 -4.3912506z" fill-rule="nonzero"></path><path fill="#f3d79f" d="m85.205574 209.95486c-1.2954102 -2.44841 -7.58786 -6.9335175 -11.385597 -9.595383c-3.7977448 -2.6618805 -8.990791 -5.896347 -11.400848 -6.375824c-2.410057 -0.4794922 -4.05249 1.4160614 -3.059494 3.4989166c0.99300003 2.0828552 5.3120117 6.0702972 9.017479 8.998199c3.7054672 2.9279022 10.410576 7.9901886 13.215324 8.569199c2.804741 0.57902527 4.9085464 -2.6466827 3.6131363 -5.095108z" fill-rule="nonzero"></path><path fill="#f3d79f" d="m86.23009 210.84918c-1.9560547 -2.0147858 -8.77034 -4.118103 -12.866676 -5.340805c-4.096344 -1.222702 -9.550644 -2.4741821 -11.711357 -1.9953766c-2.1607132 0.47879028 -2.827076 3.1100159 -1.252922 4.8681183c1.5741539 1.7581177 6.58107 4.1445465 10.697845 5.680542c4.1167755 1.5359955 11.480614 4.0708313 14.0028 3.5354156c2.5221863 -0.53541565 3.0863724 -4.7331085 1.13031 -6.7478943z" fill-rule="nonzero"></path><path fill="#f3d79f" d="m89.05544 202.05716l-9.304367 12.290604l18.192406 16.907135l9.304367 -12.290604z" fill-rule="nonzero"></path><path fill="#f3d79f" d="m88.668655 213.71565c1.8545685 -1.191742 3.0615387 -7.6539917 3.7425308 -11.558319c0.6809921 -3.9043274 1.1852722 -9.279968 0.34342957 -11.86763c-0.84184265 -2.5876617 -3.7559128 -4.553131 -5.394493 -3.6583405c-1.6385803 0.8948059 -3.4242554 5.2477417 -4.436981 9.027145c-1.0127182 3.7793884 -2.5969238 10.639725 -1.6393356 13.649246c0.95758057 3.0095215 5.5302887 5.59964 7.3848495 4.407898z" fill-rule="nonzero"></path><path fill="#d4f26c" d="m97.69558 207.39415l93.79528 74.866135l-12.503937 15.62207l-93.79528 -74.86615z" fill-rule="nonzero"></path><path fill="#d4f26c" d="m198.99457 354.88715l-28.490433 0l0 0c-6.7136536 0 -13.1523285 -2.6669922 -17.899597 -7.4142456c-4.7472534 -4.747284 -7.4142456 -11.185944 -7.4142456 -17.899597l0 -81.426315c0 -3.6621094E-4 2.89917E-4 -6.713867E-4 6.5612793E-4 -6.713867E-4l79.11745 6.713867E-4l0 0c3.6621094E-4 0 6.5612793E-4 2.89917E-4 6.5612793E-4 6.5612793E-4l-6.5612793E-4 81.42566l0 0c0 13.980438 -11.333389 25.313843 -25.313828 25.313843z" fill-rule="nonzero"></path><path fill="#f3d79f" d="m291.19342 214.6242c0.6754761 -2.2405853 5.8661804 -7.097748 9.01062 -9.992569c3.1444092 -2.8948212 7.5486145 -6.5234375 9.8559265 -7.376358c2.307312 -0.85292053 4.452606 0.373703 3.9879456 2.2588348c-0.46466064 1.8851318 -3.7931519 5.958435 -6.7759094 9.051956c-2.982788 3.093521 -8.4409485 8.499466 -11.120728 9.509155c-2.6797485 1.0096893 -5.633301 -1.2104187 -4.957855 -3.4510193z" fill-rule="nonzero"></path><path fill="#f3d79f" d="m295.97217 215.35645c1.1535645 -2.2049255 7.074768 -6.115509 10.65036 -8.434341c3.5756226 -2.3188171 8.4823 -5.1174927 10.803284 -5.478607c2.3210144 -0.36109924 3.998108 1.432663 3.1226807 3.311966c-0.8753967 1.8792877 -4.9006042 5.397766 -8.375153 7.963806c-3.4745178 2.56604 -9.771881 6.9928894 -12.472076 7.432419c-2.7001953 0.43954468 -4.8826294 -2.5903015 -3.7290955 -4.7952423z" fill-rule="nonzero"></path><path fill="#f3d79f" d="m297.58356 218.30048c1.5726624 -1.9269104 7.9115906 -4.7495728 11.729492 -6.4134064c3.817871 -1.6638184 8.967316 -3.581192 11.177795 -3.569519c2.2105103 0.011688232 3.3268738 1.9807587 2.0851746 3.6396332c-1.2416992 1.6588745 -5.7521667 4.3984222 -9.535339 6.3136444c-3.7831726 1.9152374 -10.587494 5.1727905 -13.163666 5.1777344c-2.5762024 0.0049438477 -3.86615 -3.221161 -2.293457 -5.1480865z" fill-rule="nonzero"></path><path fill="#f3d79f" d="m296.52267 218.90485c2.0794373 -1.4250641 8.460693 -2.051773 12.289398 -2.3917084c3.8287354 -0.33995056 8.860596 -0.46029663 10.682892 0.35205078c1.8223267 0.81233215 1.9483948 3.2545013 0.25094604 4.5219574c-1.6974182 1.267456 -6.533783 2.4700775 -10.435516 3.0827942c-3.901764 0.61273193 -10.843628 1.5210724 -12.974915 0.59355164c-2.1312866 -0.9275055 -1.8922424 -4.7335815 0.18719482 -6.1586456z" fill-rule="nonzero"></path><path fill="#f3d79f" d="m295.57315 210.63652l6.051697 12.524567l-19.018372 11.63768l-6.051697 -12.524582z" fill-rule="nonzero"></path><path fill="#f3d79f" d="m293.86804 220.99443c-1.427063 -1.3862457 -1.357666 -7.306671 -1.2731628 -10.874939c0.084472656 -3.5682526 0.5831299 -8.403015 1.7800903 -10.534637c1.1969299 -2.1316223 4.1129456 -3.340332 5.4015503 -2.2550812c1.2886353 1.0852356 2.1000366 5.2486877 2.3301392 8.766556c0.23013306 3.517868 0.42367554 9.8576355 -0.9494324 12.340652c-1.3731079 2.483017 -5.8621216 3.943695 -7.2891846 2.5574493z" fill-rule="nonzero"></path><path fill="#f3d79f" d="m168.95567 239.7769l31.590546 0l0 20.000015l-31.590546 0z" fill-rule="nonzero"></path><path fill="#f3d79f" d="m101.5538 169.15485l0 0c0 -40.43419 34.879486 -73.212585 77.90552 -73.212585l0 0c20.66182 0 40.4774 7.7134476 55.087524 21.443466c14.610107 13.730026 22.817993 32.351944 22.817993 51.76912l0 0c0 40.434204 -34.879486 73.2126 -77.90552 73.2126l0 0c-43.02603 0 -77.90552 -32.778397 -77.90552 -73.2126z" fill-rule="nonzero"></path><path fill="#000000" d="m109.615486 150.76903l2.931755 37.66667l14.580055 -41.091873l5.3018417 17.233597l13.257217 -27.173218l15.905502 -6.627304l19.21785 -5.530182l29.162735 4.8661346l18.559052 10.603683l19.220474 38.44095l2.908142 -41.821533l-40.299225 -30.895004l-42.984238 0l-40.299217 17.461937z" fill-rule="nonzero"></path><path fill="#000000" d="m195.90552 174.7769l0 0c0 -5.5228424 4.5899506 -10.0 10.251968 -10.0l0 0c2.718979 0 5.3266144 1.0535736 7.249237 2.9289398c1.9226074 1.875351 3.0027313 4.4188995 3.0027313 7.07106l0 0c0 5.5228424 -4.589966 10.0 -10.251968 10.0l0 0c-5.662018 0 -10.251968 -4.4771576 -10.251968 -10.0z" fill-rule="nonzero"></path><path fill="#ffffff" d="m205.4042 174.7769l0 0c0 -2.0786743 1.6780396 -3.7637787 3.7480316 -3.7637787l0 0c0.9940338 0 1.9473572 0.3965454 2.6502533 1.1023865c0.7028961 0.70584106 1.0977783 1.6631775 1.0977783 2.6613922l0 0c0 2.0786743 -1.6780548 3.7637787 -3.7480316 3.7637787l0 0c-2.069992 0 -3.7480316 -1.6851044 -3.7480316 -3.7637787z" fill-rule="nonzero"></path><path fill="#000000" d="m153.90552 174.7769l0 0c0 -5.5228424 4.5899506 -10.0 10.251968 -10.0l0 0c2.718979 0 5.3266144 1.0535736 7.249237 2.9289398c1.9226074 1.875351 3.0027313 4.4188995 3.0027313 7.07106l0 0c0 5.5228424 -4.589966 10.0 -10.251968 10.0l0 0c-5.662018 0 -10.251968 -4.4771576 -10.251968 -10.0z" fill-rule="nonzero"></path><path fill="#ffffff" d="m163.4042 174.7769l0 0c0 -2.0786743 1.6780396 -3.7637787 3.7480316 -3.7637787l0 0c0.9940338 0 1.9473572 0.3965454 2.6502533 1.1023865c0.7028961 0.70584106 1.0977783 1.6631775 1.0977783 2.6613922l0 0c0 2.0786743 -1.6780548 3.7637787 -3.7480316 3.7637787l0 0c-2.069992 0 -3.7480316 -1.6851044 -3.7480316 -3.7637787z" fill-rule="nonzero"></path><path fill="#ddc390" d="m175.90552 189.27559l20.0 0.38189697l-1.5013123 4.188904l-4.4986877 3.4291077l-6.5013123 0l-5.0 -2.2854004z" fill-rule="nonzero"></path><path fill="#000000" d="m149.10437 166.03346l-2.54599 -5.271057l10.884125 -6.6331635l17.756424 -3.3134613l-16.306702 7.6881104z" fill-rule="nonzero"></path><path fill="#000000" d="m223.4042 164.7769l2.0 -5.5013123l-11.498688 -5.4986877l-18.0 -1.5013123l17.0 6.0z" fill-rule="nonzero"></path><path fill="#ffffff" d="m145.35185 211.17201c-6.091507 3.1526184 24.365997 15.761795 36.548996 15.130997c12.182999 -0.6307831 42.640503 -16.393906 36.548996 -18.915726c-6.0914917 -2.5218353 -67.0065 0.6321106 -73.09799 3.784729z" fill-rule="nonzero"></path><path stroke="#ddc390" stroke-width="2.0" stroke-linejoin="round" stroke-linecap="butt" d="m145.35185 211.17201c-6.091507 3.1526184 24.365997 15.761795 36.548996 15.130997c12.182999 -0.6307831 42.640503 -16.393906 36.548996 -18.915726c-6.0914917 -2.5218353 -67.0065 0.6321106 -73.09799 3.784729z" fill-rule="nonzero"></path><path fill="#ddb374" d="m137.31131 196.01315l0 0c0 -0.6819916 0.6746979 -1.234848 1.5069733 -1.234848l0 0c0.8322754 0 1.5069733 0.55285645 1.5069733 1.234848l0 0c0 0.6819916 -0.6746979 1.234848 -1.5069733 1.234848l0 0c-0.8322754 0 -1.5069733 -0.55285645 -1.5069733 -1.234848z" fill-rule="nonzero"></path><path fill="#ddb374" d="m144.42307 201.3815l0 0c0 -0.6819763 0.6746979 -1.234848 1.5069733 -1.234848l0 0c0.8322754 0 1.5069733 0.5528717 1.5069733 1.234848l0 0c0 0.6819916 -0.6746979 1.2348633 -1.5069733 1.2348633l0 0c-0.8322754 0 -1.5069733 -0.5528717 -1.5069733 -1.2348633z" fill-rule="nonzero"></path><path fill="#ddb374" d="m150.80972 193.2338l0 0c0.5623474 -0.42355347 1.4376373 -0.26060486 1.9550018 0.36395264l0 0c0.5173645 0.6245575 0.480896 1.4742279 -0.081466675 1.8977814l0 0c-0.5623474 0.4235382 -1.4376221 0.2605896 -1.9549866 -0.3639679l0 0c-0.5173645 -0.6245575 -0.480896 -1.4742126 0.081451416 -1.8977661z" fill-rule="nonzero"></path><path fill="#ddb374" d="m157.78674 197.49715l0 0c0 -0.6819916 0.6746979 -1.234848 1.5069733 -1.234848l0 0c0.83229065 0 1.5069885 0.55285645 1.5069885 1.234848l0 0c0 0.6819916 -0.6746979 1.234848 -1.5069885 1.234848l0 0c-0.8322754 0 -1.5069733 -0.55285645 -1.5069733 -1.234848z" fill-rule="nonzero"></path><path fill="#ddb374" d="m141.4091 189.8584l0 0c0 -0.6819916 0.6746979 -1.234848 1.5069885 -1.234848l0 0c0.8322754 0 1.5069733 0.55285645 1.5069733 1.234848l0 0c0 0.6819916 -0.6746979 1.234848 -1.5069733 1.234848l0 0c-0.83229065 0 -1.5069885 -0.55285645 -1.5069885 -1.234848z" fill-rule="nonzero"></path><path fill="#ddb374" d="m129.64656 199.41974l0 0c-0.24743652 -0.638916 0.18412781 -1.3838196 0.96391296 -1.6637878l0 0c0.7798004 -0.27998352 1.6125336 0.011001587 1.8599701 0.6499176l0 0c0.24743652 0.638916 -0.18412781 1.3838196 -0.9639282 1.6638031l0 0c-0.77978516 0.27996826 -1.6125336 -0.011016846 -1.8599548 -0.64993286z" fill-rule="nonzero"></path><path fill="#ddb374" d="m230.16978 194.06187l0 0c-0.07841492 0.67744446 -0.7611084 1.155014 -1.5248413 1.0666809l0 0c-0.7637329 -0.08833313 -1.3193054 -0.7091217 -1.2408905 -1.3865662l0 0c0.07841492 -0.67744446 0.7611084 -1.155014 1.5248413 -1.0666809l0 0c0.7637329 0.08833313 1.3193054 0.7091217 1.2408905 1.3865662z" fill-rule="nonzero"></path><path fill="#ddb374" d="m224.26096 187.97449l0 0c-0.07841492 0.67744446 -0.7611084 1.155014 -1.5248413 1.0666809l0 0c-0.76374817 -0.08834839 -1.3193054 -0.7091217 -1.2409058 -1.3865662l0 0c0.07841492 -0.67744446 0.7611084 -1.155014 1.5248566 -1.0666809l0 0c0.7637329 0.08833313 1.3193054 0.7091217 1.2408905 1.3865662z" fill-rule="nonzero"></path><path fill="#ddb374" d="m217.4635 195.39005l0 0c-0.56474304 0.3610382 -1.3491974 0.106277466 -1.7521515 -0.56903076l0 0c-0.40293884 -0.6753082 -0.27178955 -1.5154266 0.2929535 -1.8764648l0 0c0.5647278 -0.36105347 1.3491974 -0.106292725 1.7521362 0.5690155l0 0c0.4029541 0.6753082 0.27178955 1.5154419 -0.29293823 1.8764801z" fill-rule="nonzero"></path><path fill="#ddb374" d="m211.55125 190.4146l0 0c-0.07839966 0.67744446 -0.7611084 1.155014 -1.5248413 1.0666809l0 0c-0.7637329 -0.08834839 -1.3193054 -0.7091217 -1.2408905 -1.3865662l0 0c0.07841492 -0.67744446 0.7611084 -1.155014 1.5248413 -1.0666809l0 0c0.76374817 0.08833313 1.3193054 0.7091217 1.2408905 1.3865662z" fill-rule="nonzero"></path><path fill="#ddb374" d="m225.70183 199.74069l0 0c-0.07841492 0.67744446 -0.7611084 1.155014 -1.5248413 1.0666809l0 0c-0.76374817 -0.08833313 -1.3193054 -0.7091217 -1.2409058 -1.3865662l0 0c0.07841492 -0.67744446 0.7611084 -1.155014 1.5248566 -1.0666809l0 0c0.7637329 0.08833313 1.3192902 0.7091217 1.2408905 1.3865662z" fill-rule="nonzero"></path><path fill="#ddb374" d="m206.85599 196.34843l0 0c-0.07841492 0.67744446 -0.7611084 1.155014 -1.5248413 1.0666809l0 0c-0.7637329 -0.08833313 -1.3193054 -0.7091217 -1.2408905 -1.3865662l0 0c0.07841492 -0.67744446 0.7611084 -1.155014 1.5248413 -1.0666809l0 0c0.7637329 0.08833313 1.3193054 0.7091217 1.2408905 1.3865662z" fill-rule="nonzero"></path><path fill="#ddb374" d="m237.59496 191.4915l0 0c0.15359497 0.6609192 -0.32806396 1.3550568 -1.0758209 1.5503998l0 0c-0.7477722 0.19534302 -1.4784698 -0.18208313 -1.6320648 -0.8430023l0 0c-0.15359497 -0.6609192 0.32806396 -1.3550568 1.0758362 -1.5503998l0 0c0.74775696 -0.19534302 1.4784546 0.18208313 1.6320496 0.8430023z" fill-rule="nonzero"></path><path fill="#d4f26c" d="m180.12709 272.03534l105.16536 -57.826782l9.637787 17.574814l-105.165344 57.826767z" fill-rule="nonzero"></path><path fill="#000000" d="m183.46326 93.661415l-19.884521 1.3254623l-17.89238 5.963257l-19.884521 11.267715l-13.9186325 15.908142l-9.2782135 17.230957l-3.9763794 23.858276l3.3149643 27.837265l6.6272964 9.942261l-1.3254623 -28.501312l5.963257 -24.519684l19.884506 -30.48819l35.79004 -11.929138l27.83464 0.6614227l25.186356 7.291336l25.847763 19.881897l1.9868774 23.196838l0 48.38321l7.291336 -34.46457l0.6614075 -33.139114l-6.627289 -16.56955l-12.59317 -13.916008l-21.871399 -13.257217l-19.217834 -4.6377945z" fill-rule="nonzero"></path><path fill="#f3d79f" d="m110.282936 196.76259c-7.89962 -0.8735504 -13.739273 -7.763153 -13.32502 -15.720825c0.41425323 -7.957672 6.939125 -14.2308655 14.888565 -14.314285z" fill-rule="nonzero"></path><path fill="#f3d79f" d="m246.41374 189.9895l0 0c8.521133 -0.7796478 15.313919 -7.7164 15.483475 -15.811615c0.16952515 -8.09523 -6.343109 -14.535736 -14.844879 -14.680481z" fill-rule="nonzero"></path><path fill="#000000" d="m120.67338 122.49073l-8.298592 -4.455475l-5.2892075 -9.769974l-1.8931961 -13.135559l2.2479935 -9.219986l6.2779083 -9.331764l12.908928 -9.955093l7.80484 -1.5269241l12.089233 -0.33789825l10.902267 3.9434204l8.937134 7.7057037l4.7650146 10.549164l1.7814178 9.105637l-9.149216 11.920738l-20.204788 14.083626z" fill-rule="nonzero"></path><path fill="#d4f26c" d="m128.9623 108.42567c1.1511383 -2.4791412 15.266006 -1.6480179 16.937836 0.997345c1.6718292 2.6453705 -4.083893 15.041077 -6.9068604 14.874855c-2.8229675 -0.16622162 -11.182121 -13.393059 -10.030975 -15.8722z" fill-rule="nonzero"></path><path stroke="#d4f26c" stroke-width="8.0" stroke-linejoin="round" stroke-linecap="butt" d="m128.9623 108.42567c1.1511383 -2.4791412 15.266006 -1.6480179 16.937836 0.997345c1.6718292 2.6453705 -4.083893 15.041077 -6.9068604 14.874855c-2.8229675 -0.16622162 -11.182121 -13.393059 -10.030975 -15.8722z" fill-rule="nonzero"></path><path fill="#d4f26c" d="m162.83298 110.86614c-1.1194153 2.4613037 -15.064087 1.5344696 -16.733597 -1.1122055c-1.6695099 -2.6466675 3.9276276 -14.953201 6.7165527 -14.76783c2.7889404 0.18536377 11.136475 13.418724 10.017044 15.880035z" fill-rule="nonzero"></path><path stroke="#d4f26c" stroke-width="8.0" stroke-linejoin="round" stroke-linecap="butt" d="m162.83298 110.86614c-1.1194153 2.4613037 -15.064087 1.5344696 -16.733597 -1.1122055c-1.6695099 -2.6466675 3.9276276 -14.953201 6.7165527 -14.76783c2.7889404 0.18536377 11.136475 13.418724 10.017044 15.880035z" fill-rule="nonzero"></path><path fill="#d4f26c" d="m140.00383 110.31777l0 0c-0.31147766 -0.5546341 -0.11451721 -1.257019 0.4399414 -1.5688324l7.55809 -4.250473c0.2662506 -0.1497345 0.58102417 -0.18753052 0.87506104 -0.10507202c0.29405212 0.08245087 0.5432739 0.27840424 0.6928406 0.5447464l2.25589 4.016884c0.31149292 0.55462646 0.11453247 1.257019 -0.43992615 1.5688248l-7.55809 4.250473c-0.5544586 0.31180573 -1.256424 0.11495972 -1.5679169 -0.43967438z" fill-rule="nonzero"></path><path stroke="#d4f26c" stroke-width="8.0" stroke-linejoin="round" stroke-linecap="butt" d="m140.00383 110.31777l0 0c-0.31147766 -0.5546341 -0.11451721 -1.257019 0.4399414 -1.5688324l7.55809 -4.250473c0.2662506 -0.1497345 0.58102417 -0.18753052 0.87506104 -0.10507202c0.29405212 0.08245087 0.5432739 0.27840424 0.6928406 0.5447464l2.25589 4.016884c0.31149292 0.55462646 0.11453247 1.257019 -0.43992615 1.5688248l-7.55809 4.250473c-0.5544586 0.31180573 -1.256424 0.11495972 -1.5679169 -0.43967438z" fill-rule="nonzero"></path><path fill="#bad55f" d="m181.28651 268.19458l-0.38755798 37.221344l9.246658 0.6190796l0.77207947 -40.631226l-9.63118 -0.31201172z" fill-rule="nonzero"></path><path fill="#d4f26c" d="m182.42651 276.39764l0 0c0 -1.8264465 1.5581818 -3.3070984 3.4803162 -3.3070984l0 0c0.92303467 0 1.808258 0.3484192 2.4609528 0.9686279c0.65267944 0.62020874 1.0193634 1.4613647 1.0193634 2.3384705l0 0c0 1.8264465 -1.558197 3.3070679 -3.4803162 3.3070679l0 0c-1.9221344 0 -3.4803162 -1.4806213 -3.4803162 -3.3070679z" fill-rule="nonzero"></path><path fill="#d4f26c" d="m182.42651 286.96063l0 0c0 -1.8264465 1.5581818 -3.3070984 3.4803162 -3.3070984l0 0c0.92303467 0 1.808258 0.3484192 2.4609528 0.9686279c0.65267944 0.62020874 1.0193634 1.4613647 1.0193634 2.3384705l0 0c0 1.8264465 -1.558197 3.3070984 -3.4803162 3.3070984l0 0c-1.9221344 0 -3.4803162 -1.4806519 -3.4803162 -3.3070984z" fill-rule="nonzero"></path><path fill="#d4f26c" d="m182.42783 298.22833l0 0c0 -1.8264465 1.5581818 -3.3070679 3.4803162 -3.3070679l0 0c0.92303467 0 1.808258 0.3484192 2.4609528 0.9686279c0.65267944 0.6201782 1.0193634 1.4613647 1.0193634 2.33844l0 0c0 1.826477 -1.558197 3.3070984 -3.4803162 3.3070984l0 0c-1.9221344 0 -3.4803162 -1.4806213 -3.4803162 -3.3070984z" fill-rule="nonzero"></path><path fill="#f3d79f" d="m202.24347 248.4652l0 0c1.4970245 7.0154114 -1.425766 14.179428 -7.402832 18.144974c-5.977066 3.9655457 -13.828461 3.9497375 -19.88591 -0.040008545c-6.0574493 -3.989746 -9.125153 -11.165848 -7.7698517 -18.175507z" fill-rule="nonzero"></path><path fill="#000000" fill-opacity="0.0" d="m280.22775 298.01257c1.7333374 1.5001831 3.5436707 4.3677063 1.4581299 8.005432c-1.5410461 2.6880188 -7.2943726 5.6726074 -7.352234 3.4922485c-0.06311035 -2.3765259 5.1107483 1.2739563 3.66333 4.2078247c-1.1479797 2.3269043 -7.470886 6.6131897 -6.4247437 4.294922c1.39328 -3.0875854 1.9833069 5.842865 -0.8050232 8.119324" fill-rule="evenodd"></path><path stroke="#1c58b2" stroke-width="4.0" stroke-linejoin="round" stroke-linecap="round" d="m280.22775 298.01257c1.7333374 1.5001831 3.5436707 4.3677063 1.4581299 8.005432c-1.5410461 2.6880188 -7.2943726 5.6726074 -7.352234 3.4922485c-0.06311035 -2.3765259 5.1107483 1.2739563 3.66333 4.2078247c-1.1479797 2.3269043 -7.470886 6.6131897 -6.4247437 4.294922c1.39328 -3.0875854 1.9833069 5.842865 -0.8050232 8.119324" fill-rule="evenodd"></path><path fill="#000000" fill-opacity="0.0" d="m26.004692 239.6595c3.1689892 -3.3652344 14.465275 -2.9552917 10.587284 -0.75157166c-2.5751648 1.4633636 -6.1506577 0.40330505 -5.525017 -1.9714966c0.8188896 -3.108307 6.380066 -7.644806 9.361057 -7.682495" fill-rule="evenodd"></path><path stroke="#1c58b2" stroke-width="4.0" stroke-linejoin="round" stroke-linecap="round" d="m26.004692 239.6595c3.1689892 -3.3652344 14.465275 -2.9552917 10.587284 -0.75157166c-2.5751648 1.4633636 -6.1506577 0.40330505 -5.525017 -1.9714966c0.8188896 -3.108307 6.380066 -7.644806 9.361057 -7.682495" fill-rule="evenodd"></path><path fill="#0e79ff" d="m40.2021 67.02633l14.501022 -2.0761948l2.8487244 12.458221l6.214283 7.2667007l6.991585 4.4124374l-6.4737244 9.602936l-10.616585 -5.709549l-8.027294 -11.161118z" fill-rule="nonzero"></path><path fill="#0e79ff" d="m309.10522 112.22495l-8.323486 -6.845558l-7.7396545 9.980377l-7.436859 4.2459717l-6.5816345 1.4645767l-0.40060425 10.693047l9.524017 -1.3519287l10.448486 -7.046585z" fill-rule="nonzero"></path><path fill="#0e79ff" d="m95.69755 258.00974l2.4717407 9.94696l-12.370659 2.4600525l-7.0909424 4.583435l-4.2175827 5.0087585l-9.772873 -4.099457l5.414421 -7.566742l10.932724 -5.9904175z" fill-rule="nonzero"></path><path fill="#0e79ff" d="m237.85039 254.36491l10.633591 -2.0762024l2.088974 12.458237l4.5569305 7.266693l5.1269226 4.412445l-4.747177 9.602936l-7.785141 -5.709564l-5.8863983 -11.161102z" fill-rule="nonzero"></path><path fill="#2ec9ff" d="m215.44357 85.74549l10.633591 -2.0762024l2.0889587 12.458229l4.5569305 7.266693l5.1269226 4.4124374l-4.747177 9.602943l-7.7851257 -5.709549l-5.8864136 -11.161118z" fill-rule="nonzero"></path><path fill="#2ec9ff" d="m335.2461 224.98236l9.11496 5.8532257l-7.1065674 10.441299l-1.7342224 8.398651l0.65115356 6.7315063l-10.068878 3.6524963l-1.6738586 -9.506271l3.4671936 -12.130325z" fill-rule="nonzero"></path><path fill="#2ec9ff" d="m124.26869 308.5296l-1.0306015 -10.78418l12.601204 -0.86346436l7.6752014 -3.8258057l4.8903046 -4.6714478l9.094055 5.660736l-6.439972 7.1901245l-11.680206 4.7688904z" fill-rule="nonzero"></path><path fill="#2ec9ff" d="m41.02238 163.54564l10.343487 3.2243958l-4.0823746 11.955338l0.5564308 8.55928l2.4144096 6.3183746l-8.7407875 6.1952667l-4.137024 -8.722565l0.12446594 -12.617844z" fill-rule="nonzero"></path><path fill="#2ec9ff" d="m145.01472 47.53861l-2.740036 -10.480892l12.301529 -2.8672104l6.9655457 -5.003874l4.081314 -5.3933697l9.881577 4.1339874l-5.2087708 8.127495l-10.768478 6.5752144z" fill-rule="nonzero"></path><path fill="#2ec9ff" d="m299.42117 63.417984l-9.250671 -5.637951l6.863037 -10.606014l1.5386047 -8.437607l-0.8078613 -6.714813l9.983246 -3.8881626l1.8950806 9.46496l-3.1845703 12.209206z" fill-rule="nonzero"></path><path fill="#0e79ff" d="m76.2021 324.07358l10.633583 -2.0762024l2.0889664 12.458221l4.5569305 7.266693l5.1269226 4.412445l-4.747177 9.602936l-7.7851334 -5.7095337l-5.886406 -11.161133z" fill-rule="nonzero"></path><path fill="#2ec9ff" d="m269.29065 363.58652l-0.36889648 -10.8281555l12.632629 -0.093444824l7.8963013 -3.3510132l5.167877 -4.3650513l8.732178 6.205475l-6.869049 6.78479l-11.952209 4.048218z" fill-rule="nonzero"></path><path fill="#2ec9ff" d="m253.46669 414.36487l-2.4940186 -10.544006l12.366287 -2.580597l7.0813904 -4.8414l4.206848 -5.2979736l9.782806 4.3637695l-5.398102 8.005676l-10.92038 6.324066z" fill-rule="nonzero"></path><path fill="#2ec9ff" d="m61.72441 399.42398l10.633583 -2.0762024l2.088974 12.458221l4.556923 7.266693l5.1269226 4.412445l-4.747177 9.602936l-7.7851257 -5.709564l-5.8864136 -11.161102z" fill-rule="nonzero"></path><path fill="#2ec9ff" d="m115.01757 415.1024l-5.2206726 9.492462l-10.901871 -6.3818665l-8.498314 -1.1600342l-6.6726 1.1069336l-4.329239 -9.798767l9.371765 -2.315796l12.339729 2.6357727z" fill-rule="nonzero"></path><path fill="#2ec9ff" d="m268.302 412.52747l7.88501 -7.4309387l8.415741 9.4218445l7.7321777 3.7139282l6.690918 0.99572754l1.1103821 10.655273l-9.631317 -0.6741333l-10.935059 -6.2981567z" fill-rule="nonzero"></path><path fill="#2ec9ff" d="m313.3491 392.79797l10.633575 -2.0762024l2.0889587 12.458252l4.556946 7.266693l5.1269226 4.4124146l-4.7471924 9.602936l-7.7851257 -5.7095337l-5.8864136 -11.161102z" fill-rule="nonzero"></path><path fill="#0e79ff" d="m318.8845 406.2073l-0.09609985 10.834534l-12.625427 -0.4507141l-8.033081 3.0079956l-5.350586 4.1386414l-8.45813 -6.5760803l7.154114 -6.4830017l12.115295 -3.5298767z" fill-rule="nonzero"></path><path fill="#2ec9ff" d="m152.60013 421.36996l5.5764465 -9.291504l10.653076 6.7860413l8.448746 1.477356l6.710037 -0.8565674l3.9555054 9.954956l-9.453171 1.9637451l-12.231735 -3.0959778z" fill-rule="nonzero"></path><path fill="#2ec9ff" d="m88.98837 129.57747l12.808647 -1.4466553l9.336174 20.57611l-8.645485 6.7666473z" fill-rule="nonzero"></path><path fill="#2ec9ff" d="m275.12878 203.33952l9.70285 8.485764l-8.905029 20.765366l-10.82608 -1.8247528z" fill-rule="nonzero"></path><path fill="#2ec9ff" d="m37.715405 290.1365l12.808655 -1.4466553l9.33617 20.576141l-8.645485 6.766632z" fill-rule="nonzero"></path><path fill="#0e79ff" d="m307.88727 262.42676l-3.7241821 10.25827l15.108765 16.466492l7.284729 -4.5177307z" fill-rule="nonzero"></path><path fill="#0e79ff" d="m162.9472 54.435143l11.429779 -3.2080688l4.854248 14.850807l-8.645477 6.7666473z" fill-rule="nonzero"></path><path fill="#0e79ff" d="m124.45952 184.78313l10.97879 4.223404l-5.3319855 13.717148l-10.97979 -0.0028381348z" fill-rule="nonzero"></path><path fill="#0e79ff" d="m229.7707 306.79373l11.585571 -2.0393982l2.499939 14.501984l-9.411255 5.656433z" fill-rule="nonzero"></path><path fill="#0e79ff" d="m168.91716 338.64587l-7.87558 -9.606323l12.217621 -15.357574l10.122925 4.247284z" fill-rule="nonzero"></path><path fill="#0e79ff" d="m159.76498 258.06586l2.5816498 -11.475876l14.3467865 3.2801514l1.594162 10.863083z" fill-rule="nonzero"></path><path fill="#0e79ff" d="m240.15779 158.58345l5.719208 9.74585l-12.409943 7.7502136l-8.298172 -6.405121z" fill-rule="nonzero"></path><path fill="#0e79ff" d="m249.41228 405.24768l10.978775 4.223419l-5.33197 13.717163l-10.979797 -0.0028686523z" fill-rule="nonzero"></path><path fill="#0e79ff" d="m186.6312 405.6156l3.95549 11.675446l-16.526306 9.332367l-7.865494 -7.6605225z" fill-rule="nonzero"></path><path fill="#0e79ff" d="m56.302044 421.20062l-1.9268417 -11.604492l14.527523 -2.359497l5.565338 9.465363z" fill-rule="nonzero"></path><path fill="#0e79ff" d="m331.73764 153.5536l-1.5856323 10.588165l-14.480499 -1.1354828l-2.496582 -9.516571z" fill-rule="nonzero"></path><path fill="#0e79ff" d="m232.59096 366.21863l-4.9368744 -10.676514l13.378952 -6.127899l7.876877 7.6491394z" fill-rule="nonzero"></path><path fill="#0e79ff" d="m78.5107 51.287056l10.978783 4.2234116l-5.33197 13.717155l-10.979797 -0.0028457642z" fill-rule="nonzero"></path><path fill="#0e79ff" d="m109.939835 393.61383l10.978783 4.223419l-5.331978 13.717133l-10.97979 -0.0028381348z" fill-rule="nonzero"></path><path fill="#0e79ff" d="m130.90819 367.42303l9.972183 -6.904022l11.803848 13.025452l-5.5169373 9.493805z" fill-rule="nonzero"></path><path fill="#000000" fill-opacity="0.0" d="m318.4253 401.5763c-0.72854614 2.173767 -2.692627 4.93869 -6.850464 4.392975c-3.0722961 -0.40322876 -8.020569 -4.5897827 -6.0257874 -5.472473c2.1742249 -0.96206665 0.7648926 5.21167 -2.499237 4.988556c-2.5888367 -0.17697144 -8.957733 -4.3953857 -6.415619 -4.3093567c3.3857422 0.11462402 -4.6503906 4.056366 -7.816284 2.342987" fill-rule="evenodd"></path><path stroke="#1c58b2" stroke-width="4.0" stroke-linejoin="round" stroke-linecap="round" d="m318.4253 401.5763c-0.72854614 2.173767 -2.692627 4.93869 -6.850464 4.392975c-3.0722961 -0.40322876 -8.020569 -4.5897827 -6.0257874 -5.472473c2.1742249 -0.96206665 0.7648926 5.21167 -2.499237 4.988556c-2.5888367 -0.17697144 -8.957733 -4.3953857 -6.415619 -4.3093567c3.3857422 0.11462402 -4.6503906 4.056366 -7.816284 2.342987" fill-rule="evenodd"></path><path fill="#000000" fill-opacity="0.0" d="m206.26717 317.64606c2.5926056 -1.9984741 5.6626587 -5.6067505 4.0593414 -9.566742c-1.1847382 -2.9260864 -7.571701 -5.6054993 -8.251663 -3.047699c-0.74113464 2.7879028 6.767029 -2.2098694 5.768265 -5.4366455c-0.7921448 -2.5592651 -7.531204 -6.680542 -6.8644257 -4.1170654c0.88804626 3.414215 4.1158752 -7.1118774 1.2516327 -9.381012" fill-rule="evenodd"></path><path stroke="#1c58b2" stroke-width="4.0" stroke-linejoin="round" stroke-linecap="round" d="m206.26717 317.64606c2.5926056 -1.9984741 5.6626587 -5.6067505 4.0593414 -9.566742c-1.1847382 -2.9260864 -7.571701 -5.6054993 -8.251663 -3.047699c-0.74113464 2.7879028 6.767029 -2.2098694 5.768265 -5.4366455c-0.7921448 -2.5592651 -7.531204 -6.680542 -6.8644257 -4.1170654c0.88804626 3.414215 4.1158752 -7.1118774 1.2516327 -9.381012" fill-rule="evenodd"></path><path fill="#000000" fill-opacity="0.0" d="m75.74554 133.79031c-1.7601013 1.4689789 -4.882103 2.793457 -8.136017 0.1485138c-2.4043732 -1.9543915 -4.4222145 -8.114143 -2.2610016 -7.819748c2.3556595 0.3208847 -2.0814743 4.838974 -4.743599 2.9373474c-2.111393 -1.5082169 -5.322056 -8.440041 -3.2027817 -7.033737c2.8225822 1.8730011 -6.0863647 1.0155411 -7.8834496 -2.1035767" fill-rule="evenodd"></path><path stroke="#1c58b2" stroke-width="4.0" stroke-linejoin="round" stroke-linecap="round" d="m75.74554 133.79031c-1.7601013 1.4689789 -4.882103 2.793457 -8.136017 0.1485138c-2.4043732 -1.9543915 -4.4222145 -8.114143 -2.2610016 -7.819748c2.3556595 0.3208847 -2.0814743 4.838974 -4.743599 2.9373474c-2.111393 -1.5082169 -5.322056 -8.440041 -3.2027817 -7.033737c2.8225822 1.8730011 -6.0863647 1.0155411 -7.8834496 -2.1035767" fill-rule="evenodd"></path><path fill="#000000" fill-opacity="0.0" d="m277.58572 164.7382c0.5584717 -2.2235107 2.3030396 -5.1316833 6.4902344 -4.9080505c3.0939941 0.16523743 8.350311 3.9580994 6.4298096 4.991928c-2.0932922 1.1268463 -1.164917 -5.13739 2.1063843 -5.166504c2.594574 -0.023086548 9.269623 3.6920624 6.728668 3.8022003c-3.3842163 0.14668274 4.322937 -4.4028625 7.611389 -2.9385223" fill-rule="evenodd"></path><path stroke="#1c58b2" stroke-width="4.0" stroke-linejoin="round" stroke-linecap="round" d="m277.58572 164.7382c0.5584717 -2.2235107 2.3030396 -5.1316833 6.4902344 -4.9080505c3.0939941 0.16523743 8.350311 3.9580994 6.4298096 4.991928c-2.0932922 1.1268463 -1.164917 -5.13739 2.1063843 -5.166504c2.594574 -0.023086548 9.269623 3.6920624 6.728668 3.8022003c-3.3842163 0.14668274 4.322937 -4.4028625 7.611389 -2.9385223" fill-rule="evenodd"></path><path fill="#000000" fill-opacity="0.0" d="m253.75645 58.98736c3.3018646 2.8584824 7.333145 7.649254 5.799179 11.764145c-1.1335144 3.0405655 -8.524445 4.606224 -9.589233 1.5540924c-1.1605682 -3.3267365 8.32431 4.0571823 7.443054 7.480934c-0.6989746 2.7154465 -8.370819 5.8326416 -7.8224945 3.0835876c0.7303009 -3.6613693 5.6269226 8.997826 2.416809 10.908585" fill-rule="evenodd"></path><path stroke="#1c58b2" stroke-width="4.0" stroke-linejoin="round" stroke-linecap="round" d="m253.75645 58.98736c3.3018646 2.8584824 7.333145 7.649254 5.799179 11.764145c-1.1335144 3.0405655 -8.524445 4.606224 -9.589233 1.5540924c-1.1605682 -3.3267365 8.32431 4.0571823 7.443054 7.480934c-0.6989746 2.7154465 -8.370819 5.8326416 -7.8224945 3.0835876c0.7303009 -3.6613693 5.6269226 8.997826 2.416809 10.908585" fill-rule="evenodd"></path><path fill="#000000" fill-opacity="0.0" d="m49.12836 350.45126c1.6836014 -1.5558472 4.734543 -3.0361023 8.117405 -0.55862427c2.4996605 1.8306274 4.8254166 7.8807373 2.6523094 7.695709c-2.3686218 -0.20166016 1.8345718 -4.9377747 4.58897 -3.172821c2.1845703 1.3998108 5.7404633 8.160828 3.553154 6.86322c-2.9131927 -1.7282715 6.0268326 -1.3211975 7.978775 1.7033081" fill-rule="evenodd"></path><path stroke="#1c58b2" stroke-width="4.0" stroke-linejoin="round" stroke-linecap="round" d="m49.12836 350.45126c1.6836014 -1.5558472 4.734543 -3.0361023 8.117405 -0.55862427c2.4996605 1.8306274 4.8254166 7.8807373 2.6523094 7.695709c-2.3686218 -0.20166016 1.8345718 -4.9377747 4.58897 -3.172821c2.1845703 1.3998108 5.7404633 8.160828 3.553154 6.86322c-2.9131927 -1.7282715 6.0268326 -1.3211975 7.978775 1.7033081" fill-rule="evenodd"></path><path fill="#000000" fill-opacity="0.0" d="m92.7976 242.30165c1.1585388 -1.9539185 3.4032898 -4.3707123 6.3390884 -3.593521c2.1693192 0.57429504 4.6593018 4.7569733 2.9259644 5.4381714c-1.8892822 0.7424927 0.9106674 -4.8505096 3.273697 -4.429428c1.8741608 0.33396912 5.4111023 4.6398315 3.545868 4.392685c-2.4842377 -0.32917786 4.6081696 -3.4288177 6.475189 -1.6416779" fill-rule="evenodd"></path><path stroke="#1c58b2" stroke-width="4.0" stroke-linejoin="round" stroke-linecap="round" d="m92.7976 242.30165c1.1585388 -1.9539185 3.4032898 -4.3707123 6.3390884 -3.593521c2.1693192 0.57429504 4.6593018 4.7569733 2.9259644 5.4381714c-1.8892822 0.7424927 0.9106674 -4.8505096 3.273697 -4.429428c1.8741608 0.33396912 5.4111023 4.6398315 3.545868 4.392685c-2.4842377 -0.32917786 4.6081696 -3.4288177 6.475189 -1.6416779" fill-rule="evenodd"></path><path fill="#000000" fill-opacity="0.0" d="m88.80684 265.809c1.3258667 4.4281616 -4.6861877 13.999603 -4.651581 9.539551c0.022979736 -2.9617004 2.731163 -5.525299 4.473427 -3.7944336c2.2804108 2.265503 3.422081 9.3506775 1.9618149 11.949554" fill-rule="evenodd"></path><path stroke="#1c58b2" stroke-width="4.0" stroke-linejoin="round" stroke-linecap="round" d="m88.80684 265.809c1.3258667 4.4281616 -4.6861877 13.999603 -4.651581 9.539551c0.022979736 -2.9617004 2.731163 -5.525299 4.473427 -3.7944336c2.2804108 2.265503 3.422081 9.3506775 1.9618149 11.949554" fill-rule="evenodd"></path><path fill="#000000" fill-opacity="0.0" d="m322.14117 411.05188c3.1689758 -3.3652344 14.465271 -2.9552917 10.58728 -0.7515564c-2.5751648 1.4633484 -6.1506653 0.4032898 -5.5250244 -1.9714966c0.8189087 -3.108307 6.380066 -7.644806 9.361053 -7.682495" fill-rule="evenodd"></path><path stroke="#1c58b2" stroke-width="4.0" stroke-linejoin="round" stroke-linecap="round" d="m322.14117 411.05188c3.1689758 -3.3652344 14.465271 -2.9552917 10.58728 -0.7515564c-2.5751648 1.4633484 -6.1506653 0.4032898 -5.5250244 -1.9714966c0.8189087 -3.108307 6.380066 -7.644806 9.361053 -7.682495" fill-rule="evenodd"></path><path fill="#000000" fill-opacity="0.0" d="m199.20657 428.91837c-4.4839783 -1.1226196 -9.640747 -11.180206 -5.824356 -8.871887c2.5342712 1.5328064 3.3545685 5.170349 0.97657776 5.783661c-3.112503 0.80270386 -9.786499 -1.8356628 -11.274628 -4.418579" fill-rule="evenodd"></path><path stroke="#1c58b2" stroke-width="4.0" stroke-linejoin="round" stroke-linecap="round" d="m199.20657 428.91837c-4.4839783 -1.1226196 -9.640747 -11.180206 -5.824356 -8.871887c2.5342712 1.5328064 3.3545685 5.170349 0.97657776 5.783661c-3.112503 0.80270386 -9.786499 -1.8356628 -11.274628 -4.418579" fill-rule="evenodd"></path><path fill="#000000" fill-opacity="0.0" d="m110.00312 65.70109c-3.7637024 2.6835327 -14.763969 0.08141327 -10.531036 -1.3247833c2.8108673 -0.93378067 6.1114883 0.8023071 5.035347 3.0097198c-1.4085464 2.8892365 -7.74675 6.2556763 -10.678032 5.7120667" fill-rule="evenodd"></path><path stroke="#1c58b2" stroke-width="4.0" stroke-linejoin="round" stroke-linecap="round" d="m110.00312 65.70109c-3.7637024 2.6835327 -14.763969 0.08141327 -10.531036 -1.3247833c2.8108673 -0.93378067 6.1114883 0.8023071 5.035347 3.0097198c-1.4085464 2.8892365 -7.74675 6.2556763 -10.678032 5.7120667" fill-rule="evenodd"></path><path fill="#000000" fill-opacity="0.0" d="m289.37665 368.6208c3.1596985 3.3738403 2.0413818 14.621246 0.0854187 10.6128235c-1.2988281 -2.6618042 -0.016357422 -6.163391 2.3145142 -5.389923c3.0508423 1.0123901 7.2293396 6.847046 7.0798035 9.82431" fill-rule="evenodd"></path><path stroke="#1c58b2" stroke-width="4.0" stroke-linejoin="round" stroke-linecap="round" d="m289.37665 368.6208c3.1596985 3.3738403 2.0413818 14.621246 0.0854187 10.6128235c-1.2988281 -2.6618042 -0.016357422 -6.163391 2.3145142 -5.389923c3.0508423 1.0123901 7.2293396 6.847046 7.0798035 9.82431" fill-rule="evenodd"></path><path fill="#000000" fill-opacity="0.0" d="m250.54013 228.53876c3.168991 -3.3652344 14.465271 -2.9552765 10.58728 -0.75157166c-2.5751648 1.4633789 -6.1506653 0.40330505 -5.5250244 -1.9714813c0.8189087 -3.1083221 6.380066 -7.644806 9.361053 -7.682495" fill-rule="evenodd"></path><path stroke="#1c58b2" stroke-width="4.0" stroke-linejoin="round" stroke-linecap="round" d="m250.54013 228.53876c3.168991 -3.3652344 14.465271 -2.9552765 10.58728 -0.75157166c-2.5751648 1.4633789 -6.1506653 0.40330505 -5.5250244 -1.9714813c0.8189087 -3.1083221 6.380066 -7.644806 9.361053 -7.682495" fill-rule="evenodd"></path><path fill="#000000" fill-opacity="0.0" d="m337.45392 244.75703c2.8278503 3.6565552 0.6553345 14.748917 -0.9143677 10.573944c-1.0423889 -2.7723694 0.5640869 -6.1376953 2.8117065 -5.148056c2.9418335 1.2953033 6.552185 7.4978027 6.1229553 10.447784" fill-rule="evenodd"></path><path stroke="#1c58b2" stroke-width="4.0" stroke-linejoin="round" stroke-linecap="round" d="m337.45392 244.75703c2.8278503 3.6565552 0.6553345 14.748917 -0.9143677 10.573944c-1.0423889 -2.7723694 0.5640869 -6.1376953 2.8117065 -5.148056c2.9418335 1.2953033 6.552185 7.4978027 6.1229553 10.447784" fill-rule="evenodd"></path><path fill="#2ec9ff" d="m323.62875 325.61868l-6.7788086 9.614258l-11.994843 -8.522949l2.6872864 -10.6467285z" fill-rule="nonzero"></path></g></svg>

