<?xml version="1.0" encoding="iso-8859-1"?>
<!-- Uploaded to: SVG Repo, www.svgrepo.com, Generator: SVG Repo Mixer Tools -->
<svg height="800px" width="800px" version="1.1" id="Layer_1" xmlns="http://www.w3.org/2000/svg" xmlns:xlink="http://www.w3.org/1999/xlink" 
	 viewBox="0 0 506 506" xml:space="preserve">
<circle style="fill:#FFD05B;" cx="253" cy="253" r="253"/>
<path style="fill:#FFFFFF;" d="M396.6,355.2L292.1,221.1V94.4h-78.2v126.7L109.4,355.2c-6.3,9.2-6.9,20.6-1.7,30.5
	c5.2,9.9,15,15.8,26.1,15.8h238.3c11.2,0,20.9-5.9,26.1-15.8C403.5,375.9,402.9,364.5,396.6,355.2z"/>
<path style="fill:#2FB5A0;" d="M290.5,257h-75l-87.8,110.9c-2,3.1-1.1,6-0.3,7.4c0.8,1.5,2.6,3.9,6.5,3.9h238.3
	c3.8,0,5.7-2.4,6.5-3.9c0.8-1.4,1.7-4.3-0.3-7.4L290.5,257z"/>
<g>
	<path style="fill:#FFFFFF;" d="M210.2,299c-8.4,0-15.2,6.8-15.2,15.2s6.8,15.2,15.2,15.2s15.2-6.8,15.2-15.2S218.5,299,210.2,299z"
		/>
	<path style="fill:#FFFFFF;" d="M301.1,318.4c-7.1,0-12.9,5.8-12.9,12.9s5.8,12.9,12.9,12.9s12.9-5.8,12.9-12.9
		C314,324.1,308.3,318.4,301.1,318.4z"/>
</g>
<circle style="fill:#FF7058;" cx="236.4" cy="224.7" r="9"/>
<circle style="fill:#84DBFF;" cx="266.1" cy="165.8" r="11.6"/>
<circle style="fill:#FFD05B;" cx="236.4" cy="131.8" r="9"/>
<circle style="fill:#2FB5A0;" cx="236.4" cy="77.2" r="9"/>
</svg>