<?xml version="1.0" encoding="UTF-8" standalone="no"?>
<!-- Created with Inkscape (http://www.inkscape.org/) -->

<svg
   xmlns:dc="http://purl.org/dc/elements/1.1/"
   xmlns:cc="http://creativecommons.org/ns#"
   xmlns:rdf="http://www.w3.org/1999/02/22-rdf-syntax-ns#"
   xmlns:svg="http://www.w3.org/2000/svg"
   xmlns="http://www.w3.org/2000/svg"
   xmlns:sodipodi="http://sodipodi.sourceforge.net/DTD/sodipodi-0.dtd"
   xmlns:inkscape="http://www.inkscape.org/namespaces/inkscape"
   sodipodi:docname="free_palestine_87.svg"
   inkscape:version="0.48.4 r9939"
   version="1.1"
   id="svg8019"
   height="533.51721"
   width="465.92953">
  <sodipodi:namedview
     id="base"
     pagecolor="#ffffff"
     bordercolor="#666666"
     borderopacity="1.0"
     inkscape:pageopacity="0.0"
     inkscape:pageshadow="2"
     inkscape:zoom="0.99153315"
     inkscape:cx="232.96477"
     inkscape:cy="266.75861"
     inkscape:document-units="px"
     inkscape:current-layer="layer1"
     showgrid="false"
     fit-margin-top="0"
     fit-margin-left="0"
     fit-margin-right="0"
     fit-margin-bottom="0"
     inkscape:window-width="1280"
     inkscape:window-height="748"
     inkscape:window-x="0"
     inkscape:window-y="26"
     inkscape:window-maximized="1" />
  <defs
     id="defs8021" />
  <metadata
     id="metadata8024">
    <rdf:RDF>
      <cc:Work
         rdf:about="">
        <dc:format>image/svg+xml</dc:format>
        <dc:type
           rdf:resource="http://purl.org/dc/dcmitype/StillImage" />
        <dc:title></dc:title>
      </cc:Work>
    </rdf:RDF>
  </metadata>
  <g
     transform="translate(783.65662,-87.912859)"
     id="layer1"
     inkscape:groupmode="layer"
     inkscape:label="Layer 1">
    <g
       id="g9444"
       transform="translate(-1143.7451,51.468531)">
      <path
         id="path9407"
         transform="translate(-896.1845,19.791178)"
         d="m 1312.8438,39.53125 c -0.2672,-0.02025 -0.7183,0.05003 -1.4376,0.375 -0.3732,0.168774 -0.4878,0.467761 -0.75,0.71875 l -0.125,-0.09375 0.063,0.125 c -0.2495,0.247699 -0.6146,0.462498 -0.75,0.6875 -0.5519,0.916736 -0.6513,1.495176 -0.8126,2.21875 -0.4231,1.899683 -0.6693,4.495515 -0.875,7.75 -0.6576,10.408633 -0.6372,27.213124 -0.3437,38.90625 0.1467,5.84494 0.3279,10.18739 0.625,12.375 0.163,1.20059 0.5843,1.6835 0.9687,2.21875 0.3846,0.53525 0.8253,1.04012 1.3438,1.59375 0.5095,0.54389 1.1032,1.1442 1.8125,1.8125 0.7018,0.66118 1.5122,1.39865 2.375,2.15625 3.4601,3.03822 8.2453,6.92098 13.9687,11.40625 4.4865,3.51585 9.6211,7.46819 15,11.5625 1.4815,1.1276 2.8828,2.189 4.4063,3.34375 7.0748,5.36252 14.5763,11.01491 22.0625,16.65625 3.7368,2.81589 7.4607,5.6322 11.125,8.40625 3.6744,2.78162 7.2825,5.5042 10.75,8.15625 3.4808,2.66228 6.8185,5.20326 9.9688,7.65625 1.6199,1.26138 3.1044,2.45617 4.625,3.65625 2.5652,2.02509 4.613,3.73082 6.8124,5.53125 -0.558,-0.36454 -1.0771,-0.71285 -1.6562,-1.09375 -4.164,-2.73822 -8.7917,-5.86795 -13.75,-9.28125 -8.4166,-5.79636 -17.6627,-12.29399 -26.9375,-18.875 -7.3376,-5.20644 -14.6297,-10.43081 -21.5,-15.3125 0,-1e-5 -0.029,9.4e-4 -0.031,0 -0.019,-0.0138 -0.043,-0.0173 -0.062,-0.0313 0,2e-5 -0.027,-0.0291 -0.031,-0.0313 -3.3787,-2.40127 -6.656,-4.76307 -9.7813,-6.96875 0,-1e-5 -0.029,9.4e-4 -0.031,0 -0.016,-0.009 -0.1172,-0.0696 -0.2188,-0.125 -3.0829,-2.17496 -5.9848,-4.21479 -8.6874,-6.09375 -2.7641,-1.92161 -5.2858,-3.68285 -7.5626,-5.21875 -1.113,-0.75097 -2.1627,-1.47186 -3.1562,-2.125 l -0.031,0 -0.031,-0.0313 c -10e-5,-3e-5 -0.05,-0.0251 -0.063,-0.0313 -0.9406,-0.61785 -1.8143,-1.17638 -2.625,-1.6875 -2.1175,-1.33509 -3.5974,-2.22097 -4.9062,-2.75 l 0,0.0313 c -0.208,-0.0855 -0.4329,-0.21058 -0.8438,-0.3125 -0.2598,-0.0643 -0.6605,-0.21545 -1.5312,-0.0625 -0.116,0.0202 -0.3994,-0.2272 -1.4688,0.65625 l -0.1875,0.15625 -0.1563,0.1875 c -0.52,0.59611 -0.5444,0.74284 -0.6874,1.3125 l 0,0.0313 c -0.2621,1.0776 -0.3045,1.9656 -0.4063,3.53125 -0.2043,3.14057 -0.3605,8.06059 -0.4687,13.59375 -0.054,2.75796 -0.1053,5.65224 -0.125,8.59375 -0.039,5.86991 0.01,11.75253 0.1562,16.5 0.036,1.18081 0.073,2.30444 0.125,3.34375 0.021,0.42624 0.048,0.68828 0.063,0.9375 -0.016,-0.26283 -0.024,-0.21554 0,0.1875 0.065,1.04691 0.1255,2.06032 0.2187,2.90625 0,-0.0305 0.032,0.11525 0.063,0.375 0.045,0.36993 0.079,0.52652 0.062,0.40625 0.054,0.40667 0.1,0.77652 0.1876,1.1875 0.035,0.1659 0.048,0.41325 0.2187,0.90625 0.1931,0.56002 0.5018,0.90895 0.6875,1.125 0.01,0.0122 -0.01,0.0197 0,0.0313 0.01,0.01 0.1477,0.16652 0.031,0.0313 0.1901,0.22011 0.3379,0.33783 0.3438,0.34375 0.01,0.0102 0.083,0.0881 0.1875,0.1875 l 0.031,0.0313 c 0.1728,0.16081 0.2425,0.21486 0.2812,0.25 0.1463,0.13293 0.3953,0.34496 0.6875,0.59375 0.01,0.006 0.023,0.0239 0.031,0.0313 0.01,-5.2e-4 0.01,0.0107 0.031,0.0313 0.057,0.0513 0.074,0.0926 0.1875,0.1875 l 0.031,0 0,0.0313 c 0.2712,0.22097 0.4836,0.37842 0.5937,0.46875 0.9505,0.77974 2.0732,1.67648 3.625,2.875 l 0.031,0 0,0.0313 c 0,4e-5 0.051,0.0248 0.062,0.0313 0,-4e-5 0.051,0.0248 0.063,0.0313 0.019,0.0114 0.037,0.0163 0.062,0.0313 1.4947,1.15207 3.1765,2.42959 5.0938,3.875 0.4095,0.3088 0.8127,0.64596 1.4062,1.09375 0.013,0.0102 0.018,0.0212 0.031,0.0313 0.407,0.31262 0.764,0.56536 1.0937,0.8125 0.6858,0.51378 1.3601,0.98304 1.9688,1.4375 1.5501,1.15775 3.0229,2.25713 4.7812,3.5625 1.2139,0.90362 2.3322,1.71263 3.5626,2.625 l 0,0.0313 c 0.5988,0.44339 1.3081,0.96382 1.9062,1.40625 1.4032,1.03864 2.5274,1.89823 4.0625,3.03125 3.5977,2.65623 6.8542,5.04403 10.7813,7.9375 0.7219,0.53189 1.4038,1.03117 2.125,1.5625 14.2732,10.51652 29.9822,22.10408 43.8437,32.53125 0.6988,0.52588 1.4425,1.06363 2.0625,1.53125 2.8772,2.16965 5.7509,4.34728 8.4062,6.375 2.0207,1.54355 3.9743,3.05226 5.8438,4.5 -1.665,-1.06944 -3.258,-2.08409 -5.0625,-3.25 -0.2741,-0.17717 -0.3912,-0.23837 -0.3125,-0.1875 -2.5273,-1.63386 -5.1959,-3.38389 -7.9062,-5.15625 -3.6641,-2.39583 -7.5501,-4.95432 -11.4063,-7.5 -2.6608,-1.75665 -5.2756,-3.50748 -8,-5.3125 -4.2345,-2.8055 -8.2619,-5.45854 -12.4687,-8.25 -5.2346,-3.47332 -10.3656,-6.89038 -15.3126,-10.15625 -0.2066,-0.13646 -0.4067,-0.27284 -0.6562,-0.4375 -3.1102,-2.05246 -5.8927,-3.86006 -8.7812,-5.75 -2.0171,-1.32037 -3.848,-2.50531 -5.7188,-3.71875 -1.5043,-0.97696 -3.1087,-2.02417 -4.5312,-2.9375 -0.3432,-0.22031 -0.6058,-0.39264 -0.9688,-0.625 -2.5579,-1.63798 -4.8392,-3.08537 -6.9688,-4.40625 -0.7891,-0.48959 -1.4997,-0.93687 -2.2187,-1.375 -0.3994,-0.24361 -0.7442,-0.43936 -1.1563,-0.6875 -0.3817,-0.23004 -0.5942,-0.33192 -0.7187,-0.40625 -0.7485,-0.44671 -1.4876,-0.89639 -2.1563,-1.28125 -0.3655,-0.21039 -0.67,-0.37445 -1.0624,-0.59375 -0.3859,-0.21549 -0.8729,-0.49996 -1.3438,-0.75 -0.5341,-0.28352 -0.5842,-0.31886 -0.1562,-0.0937 -0.614,-0.32372 -1.1457,-0.59369 -1.7813,-0.875 -0.2053,-0.0916 -0.3637,-0.17619 -0.4687,-0.21875 -0.3125,-0.12684 -0.4413,-0.15098 -0.375,-0.125 -0.01,-0.003 -0.024,0.003 -0.031,0 -0.1519,-0.0558 -0.3255,-0.11589 -0.5937,-0.1875 l -0.031,0 0,-0.0313 c 0.01,0.001 -0.1179,-0.008 -0.2187,-0.0313 -0.045,-0.0105 -0.035,-0.0197 -0.094,-0.0313 l 0,0.0313 c -0.2454,-0.0531 -0.6418,-0.14093 -1.1562,-0.0937 -0.042,0.004 -0.051,-0.005 -0.094,0 -0.1029,0.0207 -0.096,0.006 -0.3438,0.0625 l -0.062,0 -0.031,0 c -0.8665,0.2217 -1.5764,0.70647 -2.0625,1.6875 -0.1344,0.27196 -0.2972,0.62813 -0.4062,1.03125 -0.01,0.018 0,0.0135 0,0.0313 -0.099,0.36283 -0.1167,0.63211 -0.1563,0.84375 l -0.031,0 0,0.0313 c 0.062,-0.35011 0.043,-0.30586 -0.031,0.125 l 0,0.0313 0,0.0313 c -0.054,0.34812 -0.057,0.44622 -0.031,0.28125 -0.4271,2.783 -0.4903,7.03863 -0.4376,12.34375 0.014,1.35907 0.028,2.82923 0.063,4.3125 0,-0.0732 -0.01,-0.007 0,0.21875 0.1749,7.33203 0.5898,15.58533 1.0624,22.40625 0.2364,3.41046 0.4699,6.47177 0.7188,8.875 0.2489,2.40323 0.4127,3.92724 0.8125,5.28125 0.3443,1.16582 0.7821,1.4517 1.1875,1.875 0.4054,0.4233 0.8481,0.82187 1.375,1.25 1.0538,0.85625 2.4286,1.84641 4.125,3 3.3929,2.30718 8.0513,5.26233 13.5938,8.65625 11.0849,6.78784 25.6473,15.33826 40.0624,23.875 2.7447,1.6262 5.4931,3.24104 8.1876,4.84375 4.4056,2.6192 8.7394,5.22708 12.875,7.71875 0.6589,0.39727 1.3967,0.84736 2.0624,1.25 2.5741,1.55614 5.1461,3.09727 7.5313,4.5625 1.979,1.21655 3.915,2.43248 5.7187,3.5625 0.1574,0.0986 0.3065,0.21073 0.4688,0.3125 -0.1779,-0.10177 -0.2581,-0.1471 -0.4375,-0.25 -12.0109,-6.89051 -27.3005,-16.25959 -41.5,-23.875 0,-0.002 0,-0.0288 0,-0.0313 0,0 -0.094,-0.031 -0.094,-0.0313 -0.083,-0.0484 -12.0864,-7.04133 -24.4376,-13.8125 -6.1967,-3.39789 -12.446,-6.72016 -17.3437,-9.09375 -2.4489,-1.1868 -4.5376,-2.12703 -6.2187,-2.75 -0.8406,-0.31149 -1.5725,-0.54575 -2.3438,-0.6875 -0.3856,-0.0709 -0.7747,-0.13971 -1.3438,-0.0937 -0.569,0.0459 -1.5192,0.18788 -2.3437,1.15625 -2.0797,2.44273 -1.8459,5.05972 -1.7813,7.21875 0.059,1.97209 0.2953,3.34864 0.3438,3.625 0.01,0.11245 0.024,0.23113 0.031,0.34375 1.2521,20.2504 12.2889,43.26079 25.8438,60.3125 0.2005,0.25233 0.348,0.45117 0.4375,0.5625 1.9513,2.4253 3.9454,4.74608 6,6.90625 0.1539,0.16192 0.2078,0.21026 0.1563,0.15625 0.5223,0.54662 1.044,1.04446 1.5624,1.5625 0.5308,0.53094 1.0714,1.06723 1.625,1.59375 l 0.1876,0.1875 0.2187,0.15625 3.7187,2.4375 c 3.0898,2.70542 6.2597,5.19546 9.5313,7.46875 l 0.094,0.0625 0.063,0.0625 11.7812,7.125 0.094,0.0313 0.062,0.0313 c 1.2045,0.62888 2.4444,1.23079 3.6563,1.8125 l 1.2813,0.84375 0.8437,0.53125 0.6875,-0.0313 c 0.9296,0.41846 1.8572,0.82297 2.7812,1.21875 2.0841,0.89478 4.2328,1.7355 6.4063,2.5625 0.4983,0.18871 1.0131,0.37154 1.5313,0.5625 2.2385,0.82869 4.5098,1.65885 6.875,2.4375 14.3236,4.71445 30.8247,8.59996 50.7812,13.25 7.2152,1.6812 14.5365,2.76289 21.8125,3.625 -8.5633,-0.25914 -16.5286,-0.76419 -22.4063,-1.84375 -11.3247,-2.08006 -18.5557,-1.60292 -26.4374,-0.28125 -7.8818,1.32167 -16.4534,3.41408 -31.5938,4.75 -13.3193,1.17523 -20.9165,1.69083 -26.875,1.71875 -0.011,4e-5 -0.021,-3e-5 -0.031,0 -0.8529,0.002 -1.6658,-0.0127 -2.5,-0.0313 -1.594,-0.0339 -3.117,-0.0794 -4.6563,-0.1875 -0.4472,-0.0319 -0.4524,-0.0297 -0.031,0 0.015,10e-4 -0.2077,-0.0334 -0.5937,-0.0625 -1.2116,-0.0928 -2.4037,-0.18671 -3.625,-0.3125 -0.1924,-0.0196 -0.3785,-0.0399 -0.5937,-0.0625 -0.9951,-0.1054 -2.0742,-0.24124 -3.2188,-0.375 -0.8312,-0.0966 -1.5646,-0.17654 -2.4375,-0.28125 l -0.031,0 c -0.033,-0.003 -0.01,0.002 -0.031,0 0,-6e-5 -0.025,8.6e-4 -0.031,0 -1.0865,-0.13035 -2.4186,-0.29203 -3.625,-0.4375 -1.1073,-0.13378 -1.9465,-0.25192 -3.25,-0.40625 -0.06,-0.007 -0.044,0.006 -0.094,0 -0.2914,-0.0338 -0.4211,-0.0615 -0.4062,-0.0625 -1.9687,-0.2415 -4.0651,-0.54893 -6.25,-0.9375 -0.4735,-0.0836 -0.996,-0.18727 -1.5,-0.28125 -0.01,-0.002 -0.022,0.002 -0.031,0 -3.0185,-0.56763 -6.154,-1.22903 -9.3125,-1.96875 -1.3595,-0.31713 -2.7465,-0.6804 -4.1562,-1.03125 -4.7315,-1.1794 -9.3631,-2.4314 -13.625,-3.65625 -0.012,-0.004 -0.019,0.004 -0.031,0 -6.5361,-1.88601 -12.0476,-3.63567 -15.1875,-4.65625 -1.7461,-0.56741 -3.8438,-1.25 -3.8438,-1.25 l -4.1596,-1.3444 0.2188,4.34375 c 0,0 0.053,1.01365 0.1562,2.5625 5e-4,0.008 -5e-4,0.0227 0,0.0313 0.041,0.68181 0.064,1.36251 0.1562,2.5 l 0,0.0313 c 0.021,0.24192 0.034,0.27805 0.031,0.25 0.2579,3.12509 0.7103,7.32799 1.4687,11.5 l 0.031,0 0,0.0313 c 7e-4,0.005 10e-5,0.0306 0,0.0313 l -0.031,0 c 0.1048,0.5736 0.2415,1.09527 0.3438,1.59375 0,0.01 0,0.0213 0,0.0313 0.1589,0.7844 0.3409,1.5905 0.5312,2.375 0.1444,0.58726 0.3122,1.16851 0.4688,1.71875 0,0.009 0,0.0218 0,0.0313 0.01,0.0304 0.023,0.0636 0.031,0.0937 l -0.031,0 c 0.014,0.0582 -0.018,0.0303 0,0.0937 l 0.031,0.0313 c 0.185,0.63839 0.3707,1.25603 0.5626,1.8125 1.5907,4.61464 4.5267,10.84235 7.5624,16.3125 1.5179,2.73508 3.0724,5.24334 4.5,7.28125 1.4277,2.03791 2.3942,3.57248 4.375,4.65625 0.6495,0.35531 1.2081,0.52993 1.875,0.71875 0.01,0.003 0.022,-0.003 0.031,0 0.379,0.10821 0.7601,0.19101 1.1563,0.28125 0.5469,0.12398 1.0746,0.21894 1.5937,0.3125 2.7301,0.49614 6.5582,0.92353 11.4063,1.1875 -0.2373,-0.0118 -0.1514,0.009 0.2812,0.0313 0.4883,0.0257 0.927,0.0417 1.4062,0.0625 1.34,0.0578 2.6813,0.0961 4.1563,0.125 0.1465,0.003 0.1736,0.002 0.094,0 0.1411,0.003 0.163,0.002 0.063,0 1.9112,0.0367 3.9724,0.0527 6.125,0.0313 2.2337,-0.0229 4.5852,-0.0918 7.0312,-0.1875 8.4403,-0.33003 18.504,-1.26937 29.5312,-2.78125 -2.4995,0.6552 -5.4918,1.60032 -7.375,1.96875 -6.0759,1.18877 -23.5525,4.00296 -35.2812,7.15625 -1.4486,0.38946 -2.8553,0.77765 -4.125,1.1875 -0.022,0.007 -0.01,-0.008 -0.031,0 -0.6742,0.21756 -1.2662,0.43771 -1.7813,0.625 -0.5843,0.21392 -1.1527,0.44149 -1.6563,0.65625 -0.2833,0.12083 -0.6099,0.28715 -0.9374,0.4375 -0.075,0.0346 -0.1412,0.0564 -0.2188,0.0937 -0.1213,0.0499 -0.2627,0.1167 -0.2812,0.125 0,7.8e-4 -0.031,-10e-6 -0.031,0 -0.5306,0.27623 -0.9855,0.55533 -1.3125,0.78125 -0.3873,0.26758 -0.7872,0.56317 -1.2188,1.03125 -0.147,0.15942 -0.2423,0.30131 -0.3124,0.40625 -0.055,0.0811 -0.051,0.0766 -0.125,0.1875 l -0.031,0.0313 c -0.015,0.0224 -0.015,0.008 -0.031,0.0313 l 0,0.0313 c -0.079,0.12087 -0.264,0.33018 -0.4687,0.875 -0.7531,2.00469 -0.2616,3.83269 0.4375,5.53125 0.01,0.0133 -0.01,0.0177 0,0.0313 0.01,0.0135 0.026,0.0177 0.031,0.0313 0.01,0.0131 -0.01,0.0179 0,0.0313 0.2443,0.57997 0.5129,1.12446 0.7813,1.625 3.6503,6.80649 12.225,15.36334 18.25,21.78125 2.1705,2.31203 6.1071,6.72124 10.0313,10.5 1.962,1.88938 3.9146,3.6162 5.7812,4.9375 1.8666,1.3213 3.4848,2.64447 6.25,2.1875 1.8496,-0.30567 2.5334,-1.17226 3.4688,-2.0625 0.9353,-0.89024 1.9136,-1.98043 3,-3.28125 2.1726,-2.60163 4.7614,-5.98276 7.75,-9.65625 5.9771,-7.34697 13.5275,-15.77601 21.2812,-20.59375 5.4094,-3.36112 10.1954,-5.33837 14.3438,-6.71875 -3.2485,1.94271 -6.5866,3.98909 -9.0313,6.125 -8.6011,7.51479 -18.2464,16.30286 -23.75,25.78125 -2.7022,4.65403 -4.4086,9.00929 -5.2813,12.5625 -0.4363,1.77661 -0.6588,3.34559 -0.6874,4.75 -0.029,1.40441 -0.041,2.65211 1,4.125 l 0.125,0.1875 0.1562,0.15625 c 1.789,1.86578 4.494,3.3871 8.125,5.375 3.631,1.9879 8.0117,4.15594 12.3438,6.15625 4.332,2.00031 8.6049,3.84492 12.0312,5.15625 1.7131,0.65567 3.1916,1.16877 4.4375,1.53125 0.6229,0.18124 1.1994,0.34151 1.75,0.4375 0.5506,0.096 0.9792,0.25277 2.0313,0 1.2667,-0.30435 1.8574,-1.03758 2.25,-1.5625 0.3925,-0.52492 0.6339,-0.99608 0.875,-1.53125 0.4821,-1.07035 0.893,-2.32745 1.3437,-3.8125 0.9014,-2.97011 1.9209,-6.86493 3.1875,-11.15625 2.5332,-8.58265 6.1446,-18.74109 11.3125,-25.4375 8.0366,-10.41358 12.8459,-14.84232 16.7813,-17.40625 -0.9716,1.02627 -1.8711,1.86615 -2.9376,3.21875 -7.4014,9.38715 -14.7002,23.80779 -15.4374,38 -0.1914,3.68435 -0.093,9.1592 0.625,14.21875 0.3591,2.52977 0.8542,4.94947 1.6562,7.0625 0.802,2.11303 1.8546,4.16486 4.125,5.28125 1.4459,0.71096 2.5415,0.7482 4.2812,0.96875 1.7399,0.22055 3.8711,0.40588 6.3126,0.5625 4.8828,0.31325 10.9507,0.54371 16.9374,0.6875 11.9735,0.28757 23.6493,0.28125 24.8438,0.28125 0.7781,0 1.5193,0.0461 2.4062,-0.0313 0.887,-0.0773 2.4947,-0.27995 3.4688,-1.9375 0.9741,-1.65755 0.4657,-3.11252 0.031,-4.21875 -0.4345,-1.10623 -1.057,-2.24904 -2,-3.78125 -4.0565,-6.59191 -11.5,-13.15605 -11.5,-29.0625 0,-7.3657 3.9294,-13.21602 9.4376,-18.09375 5.5081,-4.87773 12.4916,-8.53501 17.6874,-10.96875 1.8146,-0.84995 6.3527,-1.71307 11.9376,-2.1875 5.5848,-0.47443 12.3233,-0.67991 19.2187,-0.78125 13.7908,-0.20269 28.0349,0.0388 35.875,-0.8125 41.496,-4.50556 68.2332,-21.76479 81.8125,-35.8125 0.6057,-0.62647 1.1843,-1.2594 1.75,-1.90625 0.2565,-0.2937 0.5473,-0.62032 0.8125,-0.9375 0.3487,-0.41701 0.6283,-0.8058 0.9063,-1.15625 0.024,-0.0303 0.1463,-0.16227 0.3124,-0.375 0.4278,-0.54819 0.9019,-1.12699 1.375,-1.78125 0.3351,-0.46352 0.6634,-0.9446 1,-1.4375 0.2086,-0.3055 0.4102,-0.6283 0.5938,-0.90625 0.1756,-0.2659 0.3722,-0.54651 0.5625,-0.84375 0.356,-0.55652 0.6647,-1.09056 0.9687,-1.59375 -0.1043,0.17233 -0.059,0.11929 0.125,-0.1875 0.4663,-0.77698 0.9296,-1.56976 1.375,-2.375 0.2645,-0.47824 0.5168,-0.96484 0.75,-1.40625 0.2085,-0.39475 0.449,-0.80996 0.6876,-1.28125 0.1663,-0.32876 0.2561,-0.57369 0.3124,-0.6875 0.3295,-0.66535 0.689,-1.38568 1.0313,-2.125 0.1572,-0.3392 0.1719,-0.39278 0.063,-0.15625 0.8525,-1.84993 1.6434,-3.77072 2.4062,-5.75 0.028,-0.0728 0.1248,-0.2521 0.2188,-0.5 0.3274,-0.86237 0.6539,-1.72433 0.9688,-2.625 0.3598,-1.0291 0.6553,-2.04374 0.9687,-3.03125 0,-0.009 0,-0.022 0,-0.0313 -0.037,0.12106 -6e-4,-0.003 0.031,-0.0937 l 0.031,0 c -0.01,0.0107 -0.023,0.009 0,-0.0625 0.014,-0.0437 -0.012,-0.0212 0,-0.0625 0.3378,-1.07097 0.6827,-2.12978 1,-3.25 -0.1586,0.55868 -0.1258,0.48171 0.063,-0.1875 0.2972,-1.05473 0.6008,-2.13339 0.875,-3.21875 0.3621,-1.43431 0.6912,-2.88249 1,-4.3125 0.1557,-0.72162 0.2949,-1.46848 0.4375,-2.1875 0.01,-0.0524 0.045,-0.18834 0.094,-0.4375 1.7081,-8.77235 2.6562,-18.30196 2.6562,-28.34375 0,-31.49055 0.6784,-41.94078 0.9062,-50.59375 0.1802,-6.85188 6.0454,-10.03235 9.8438,-12.40625 0.3524,-0.22025 1.1523,-0.54257 1.7188,-0.8125 0.3295,0.53076 0.657,1.03469 1.0937,1.46875 1.1178,1.11108 3.2014,1.9174 4.9375,1.1875 1.7361,-0.7299 2.4986,-2.19047 2.9062,-3.5625 0.2262,-0.7612 0.1237,-1.6811 0.1563,-2.53125 0.065,-0.0209 0.4375,-0.15625 0.4375,-0.15625 l 7,-2.25 -6.5625,-3.28125 c 0,0 -1.0146,-0.5348 -1.8125,-0.9375 -2.8321,-11.52106 -7.0549,-24.96247 -4.7188,-38 1.5658,-8.73716 6.0743,-17.56773 10.1876,-26.625 l 0.031,-0.0313 0,-0.0313 c 2.1586,-4.75648 4.2128,-9.56478 5.5625,-14.53125 l 0,-0.0313 c -0.077,0.28427 -0.049,0.23241 0.063,-0.1875 0.1767,-0.65824 0.3644,-1.34861 0.5312,-2.09375 0.043,-0.18779 0.067,-0.31183 0.094,-0.4375 l 0,-0.0313 c 0.093,-0.43575 0.1357,-0.7893 0.1875,-1.0625 0.095,-0.50223 0.2,-1.00093 0.2813,-1.53125 0.1066,-0.69662 0.2035,-1.51503 0.2812,-2.40625 0.038,-0.44019 0.065,-0.95101 0.094,-1.375 0.037,-0.553 0.065,-1.15783 0.094,-1.75 0.01,-0.19893 0.022,-0.45842 0.031,-0.6875 0.036,-0.84468 0.072,-1.76965 0.094,-2.75 0,-0.21191 2e-4,-0.29047 0,-0.28125 0.1068,-5.31872 -0.011,-12.00142 -0.5625,-18.84375 -0.3444,-4.27329 -0.8738,-8.59649 -1.5938,-12.6875 -0.2874,-1.63406 -0.6075,-3.23605 -0.9687,-4.78125 -0.3647,-1.55874 -0.78,-3.03994 -1.2187,-4.4375 -0.2214,-0.70524 -0.4399,-1.41939 -0.6876,-2.09375 -0.4812,-1.3118 -1.0016,-2.57798 -1.625,-3.78125 -1.825,-3.52324 -4.3593,-6.4733 -8.0624,-7.25 -0.7427,-0.1558 -1.5557,-0.20458 -2.375,-0.125 -0.635,0.0614 -1.1738,0.17654 -1.625,0.3125 l 0,0.0313 c 0.04,-0.0125 -0.1248,-0.003 -0.4688,0.125 -0.6593,0.2385 -0.7071,0.29635 -0.1875,0.0937 -0.3199,0.12449 -0.6579,0.2875 -1,0.46875 -0.2933,0.15555 -0.6041,0.33989 -0.9375,0.5625 l 0,-0.0313 c -0.2818,0.18756 -0.4846,0.36217 -0.625,0.46875 -0.2321,0.17625 -0.4631,0.33479 -0.6562,0.5 l 0,0.0313 c -0.033,0.0278 -0.1056,0.0888 -0.25,0.21875 0.1381,-0.12424 0.029,-0.0732 -0.25,0.1875 -0.2142,0.20012 -0.3333,0.3643 -0.4063,0.4375 -0.2278,0.22868 -0.4234,0.41099 -0.5625,0.5625 l 0,0.0313 c -0.2025,0.22124 -0.3523,0.39511 -0.4688,0.53125 -0.2706,0.31689 -0.2854,0.35224 -0.094,0.125 l -0.031,0.0313 c -0.438,0.52157 -0.9118,1.09302 -1.375,1.75 -0.4457,0.63222 -0.862,1.28113 -1.2812,1.96875 -0.4211,0.69067 -0.8355,1.41706 -1.2188,2.125 -0.1834,0.33863 -0.3396,0.65878 -0.5312,1.03125 -0.1966,0.38178 -0.3833,0.75971 -0.5625,1.125 -0.3596,0.73302 -0.7283,1.47932 -1.0625,2.21875 -0.2166,0.47828 -0.4113,0.94338 -0.625,1.4375 -0.419,0.97041 -0.8376,1.98601 -1.2188,2.9375 -0.1133,0.28272 -0.1698,0.45548 -0.1874,0.5 -0.4703,1.18755 -0.9402,2.36282 -1.3438,3.4375 -0.022,0.0505 -0.054,0.0829 -0.094,0.1875 l 0,0.0313 c -0.4177,1.1149 -0.7927,2.11859 -1.0937,2.90625 -0.5438,1.42302 -1.0284,3.1752 -1.5,5.21875 -0.4727,2.0482 -0.9145,4.37779 -1.3125,6.90625 -0.1295,0.82366 -0.2525,1.66875 -0.375,2.5625 l 0,0.0313 -0.031,0.0625 0,0.0625 0.031,0 c -0.018,0.13168 -0.045,0.27395 -0.063,0.40625 -0.3292,2.48083 -0.6174,5.05781 -0.8125,7.65625 -0.1384,1.84252 -0.232,3.70857 -0.2812,5.53125 -0.015,0.55977 -0.027,1.12075 -0.031,1.6875 -10e-5,0.0119 10e-5,0.0194 0,0.0313 0,0.29573 4e-4,0.56318 0,0.78125 0,0.0666 -2e-4,0.16667 0,0.25 3e-4,0.11588 -10e-4,0.2359 0,0.40625 0.014,2.53504 0.1543,4.94808 0.4375,7.1875 0.2195,1.73541 0.4771,3.48199 0.7812,5.21875 0.1689,0.95198 0.373,1.91903 0.5626,2.875 -0.2614,-0.48736 -0.5335,-0.97793 -0.8126,-1.46875 -0.176,-0.30958 -0.37,-0.71339 -0.625,-1.15625 -0.1757,-0.29802 -0.345,-0.54503 -0.4687,-0.75 -0.1926,-0.31897 -0.2601,-0.4316 -0.1875,-0.3125 -0.2541,-0.41752 -0.5116,-0.80729 -0.75,-1.1875 -0.1626,-0.25776 -0.3241,-0.55471 -0.5312,-0.875 l -0.031,0 c -0.01,-0.0149 0.01,-0.0168 0,-0.0313 -0.264,-0.40825 -0.5399,-0.82783 -0.8437,-1.28125 -0.614,-0.91621 -1.2338,-1.82616 -1.875,-2.71875 -0.035,-0.0479 -0.1132,-0.17433 -0.2813,-0.40625 -0.6654,-0.91811 -1.3292,-1.74138 -1.9375,-2.53125 -0.3833,-0.49771 -0.7742,-0.98889 -1.1562,-1.46875 -0.1254,-0.15739 -0.1946,-0.27105 -0.25,-0.34375 0,0.002 -0.03,-0.0299 -0.031,-0.0313 -0.1786,-0.22246 -0.2469,-0.29234 -0.1875,-0.21875 -0.033,-0.0416 -0.019,-0.0396 -0.063,-0.0937 -0.056,-0.0693 -0.058,-0.0506 -0.094,-0.0937 -0.094,-0.1181 -0.1606,-0.21909 -0.1563,-0.21875 -0.3954,-0.4917 -0.8242,-0.98813 -1.2813,-1.53125 l 0,-0.0313 c -0.019,-0.0218 -0.02,0.0119 -0.031,0 4e-4,4e-4 0.01,-0.0216 0,-0.0313 -0.4293,-0.50933 -0.8383,-0.96782 -1.2188,-1.40625 -0.2869,-0.32967 -0.3193,-0.35225 -0.094,-0.0937 -0.2696,-0.30997 -0.5709,-0.68235 -0.9375,-1.09375 -0.1145,-0.12849 -0.2224,-0.24337 -0.3125,-0.34375 -0.8098,-0.90292 -1.5409,-1.72024 -2.25,-2.46875 -1.5609,-1.64766 -3.0584,-3.14991 -4.4375,-4.53125 -1.371,-1.37321 -2.6286,-2.6357 -3.8125,-3.75 l -0.031,0 0,0.0313 c 0,-0.002 -0.027,0.002 -0.031,0 -0.1117,-0.0623 -0.3688,-0.21174 -0.7188,-0.40625 0.3673,0.19481 0.7505,0.3754 0.75,0.375 -0.5349,-0.50335 -0.9931,-0.91795 -1.5312,-1.40625 -1.0923,-0.99092 -2.1488,-1.94302 -3.0625,-2.6875 -0.4505,-0.36697 -0.8621,-0.66984 -1.2187,-0.9375 -0.3116,-0.23365 -0.635,-0.44587 -0.9376,-0.625 l -0.031,0 0,-0.0313 -0.031,0 0,-0.0313 c -0.065,-0.0358 -0.094,-7.8e-4 -0.1563,-0.0313 -0.2202,-0.12665 -0.4534,-0.27736 -0.75,-0.40625 -0.3177,-0.1381 -0.6657,-0.26938 -1.0937,-0.375 -0.2903,-0.0716 -0.7041,-0.17454 -1.25,-0.1875 -0.3482,-0.008 -0.8529,-0.009 -1.5313,0.1875 0,-8.2e-4 -0.034,1.6e-4 -0.031,0 -0.091,0.0239 -0.3251,0.0987 -0.6562,0.25 l 0,0.0313 c 0.01,-0.009 0.01,-0.0187 -0.031,0 -0.4706,0.23017 -0.748,0.47499 -0.7813,0.5 -0.078,0.0589 -0.244,0.18768 -0.4687,0.40625 -0.01,0.009 -0.022,-0.009 -0.031,0 -0.015,0.0144 -0.039,0.0642 -0.125,0.15625 -0.039,0.0414 -0.1993,0.21616 -0.4063,0.5 -0.014,0.0194 -0.016,0.0105 -0.031,0.0313 -0.048,0.0685 -0.054,0.0684 -0.094,0.125 -0.3,0.45019 -0.4061,0.76307 -0.4687,0.90625 -0.138,0.31404 -0.2164,0.53732 -0.2813,0.75 -0.076,0.24984 -0.132,0.53193 -0.1874,0.8125 -0.057,0.29595 -0.077,0.49298 -0.094,0.625 l 0,0.0313 c -0.049,0.39812 -0.084,0.78055 -0.094,1.1875 -0.01,0.26387 -0.012,0.58588 0,0.9375 0.01,0.1974 4e-4,0.4833 0.031,0.875 0.042,0.52751 0.1251,0.75088 0.125,0.75 0.046,0.40732 0.066,0.98716 0.1875,1.6875 0.085,0.48945 0.1871,0.97022 0.25,1.4375 0.063,0.46264 0.09,0.98623 0.1562,1.59375 2e-4,0.002 0.01,0.13422 0.031,0.34375 0.2339,2.20187 0.4445,4.67067 0.6875,7.34375 0.1278,1.40558 0.2956,2.87391 0.4688,4.34375 0.039,0.32818 0.073,0.68164 0.125,1.09375 0.034,0.27266 0.067,0.51632 0.094,0.71875 0.043,0.32659 0.072,0.44239 0.063,0.375 l 0,0.0313 c 0.041,0.2984 0.08,0.57042 0.125,0.875 0.056,0.38538 0.1022,0.83476 0.1875,1.34375 -0.012,-0.0693 0,0.0491 0.031,0.21875 0,0.0123 0,0.019 0,0.0313 0.081,0.47141 0.1956,0.86534 0.25,1.15625 0.098,0.51691 0.1817,1.0883 0.3124,1.6875 0.086,0.39721 0.1929,0.78469 0.2813,1.15625 0.032,0.13122 0.051,0.20464 0.063,0.25 0.063,0.25754 0.1047,0.42081 0.125,0.5 0.022,0.0858 0.047,0.22667 0.094,0.40625 0.06,0.22477 0.1067,0.41749 0.1562,0.59375 0.069,0.25028 0.1609,0.57126 0.2812,0.96875 0.079,0.25934 0.1323,0.42791 0.1563,0.5 0,0.009 0,0.022 0,0.0313 0.2717,0.85628 0.601,1.72159 0.9375,2.5625 0.1132,0.28245 0.1554,0.38604 0.125,0.3125 0.056,0.13579 0.1398,0.34099 0.25,0.59375 0.2887,0.66245 0.5973,1.33302 0.9688,2.03125 2.7155,5.105 7.2149,9.60179 11.5937,13.4375 4.3788,3.83571 8.7121,7.02864 10.9375,8.9375 2.6544,2.27672 6.2885,4.78095 9.5625,7.21875 3.274,2.4378 6.2047,4.99352 7.0313,6.21875 1.0206,1.51284 2.7212,6.14527 3.9374,10.5625 1.2163,4.41723 2.152,8.85114 2.4688,10.59375 0.1714,0.94227 0.4985,3.28861 0.7188,4.96875 -0.3662,-0.21477 -0.8955,-0.49071 -1.2188,-0.6875 -3.6269,-2.20773 -6.6312,-9.63747 -8.875,-16.59375 -2.3683,-7.34123 -7.6906,-17.95877 -24.625,-25.25 -17.3173,-7.45604 -34.7689,-2.21515 -47.5625,12 -6.5905,7.32263 -11.1937,17.81373 -15.5313,27.5 -4.3375,9.68627 -8.5788,18.56899 -12.75,22.21875 -2.1562,1.88671 -3.8648,3.1499 -5.4062,4.21875 6.712,-14.60305 17.6314,-47.64166 0.6875,-83.84375 l 0,-0.0313 -0.031,0 c 9e-4,0.002 -10e-5,-0.0313 0,-0.0313 -0.01,-0.0131 -0.025,0.0128 -0.031,0 -0.01,-0.015 0.01,-0.0166 0,-0.0313 -0.01,-0.0229 -0.015,-0.0828 -0.094,-0.25 -0.3984,-0.84336 -0.8415,-1.69521 -1.2812,-2.5625 -0.022,-0.0444 -0.01,-0.0215 -0.031,-0.0625 -0.014,-0.0264 -0.018,-0.006 -0.031,-0.0313 -0.4033,-0.79272 -0.8124,-1.5238 -1.1875,-2.21875 0.017,0.0308 -0.041,-0.14266 -0.2188,-0.46875 -0.057,-0.10499 -0.1159,-0.21392 -0.1874,-0.34375 -0.4304,-0.7804 -0.8613,-1.54108 -1.3126,-2.3125 -0.085,-0.14544 -0.2365,-0.41229 -0.4374,-0.75 -0.2625,-0.44049 -0.4328,-0.65941 -0.4688,-0.71875 -0.229,-0.37744 -0.4632,-0.80204 -0.7188,-1.21875 l -0.031,0 c -0.3852,-0.61723 -0.7788,-1.23283 -1.1562,-1.8125 -0.153,-0.23405 -0.323,-0.54755 -0.5626,-0.90625 -1.7041,-2.56318 -3.5682,-5.11845 -5.5937,-7.6875 -6e-4,-8e-4 -0.084,-0.12711 -0.2813,-0.375 -0.7219,-0.90835 -1.4728,-1.8005 -2.2187,-2.6875 -1.1006,-1.3088 -2.2223,-2.65331 -3.375,-4 -0.1843,-0.2148 -0.3271,-0.37132 -0.4375,-0.5 -6.5578,-7.64638 -14.0095,-16.04503 -21.9375,-24.6875 -6.3412,-6.91263 -12.9648,-13.98169 -19.6563,-21.03125 -6.6925,-7.05073 -13.451,-14.0649 -20.0312,-20.8125 -6.5796,-6.747 -12.9962,-13.24732 -19,-19.25 -9.0046,-9.00306 -17.0953,-16.883321 -23.5,-22.96875 -3.2757,-3.112383 -5.9424,-5.548362 -8.2188,-7.59375 -0.6482,-0.582607 -1.4419,-1.342752 -2.125,-1.9375 l -0.031,0 0,-0.03125 -0.031,-0.03125 c -10e-5,-5.7e-5 -0.079,-0.0554 -0.094,-0.0625 -0.5815,-0.504915 -1.1351,-0.97078 -1.625,-1.375 -1.0574,-0.872368 -1.742,-1.421886 -2.625,-1.90625 -0.018,-0.01027 -0.014,-0.02175 -0.031,-0.03125 -0.1297,-0.06967 -0.2779,-0.123369 -0.2813,-0.125 0.2269,0.08364 0.2682,0.02917 -0.5,-0.21875 -0.064,-0.02078 -0.1802,-0.0729 -0.4375,-0.125 -0.2573,-0.0521 -0.6331,-0.30494 -1.7812,0.15625 -1.0319,0.414516 -1.3747,1.012626 -1.625,1.40625 -0.2503,0.393624 -0.3809,0.710686 -0.5,1.03125 -0.2384,0.641129 -0.4025,1.298207 -0.5626,2.0625 -0.3197,1.527338 -0.6214,3.484483 -0.875,5.84375 -0.1273,1.185245 -0.2343,2.477467 -0.3437,3.8125 -0.2202,2.686999 -0.395,5.651413 -0.5313,8.78125 -0.1361,3.12879 -0.2248,6.41066 -0.25,9.6875 -0.025,3.27406 0.01,6.54179 0.125,9.65625 0.1157,3.12042 0.3041,6.09316 0.5938,8.75 0.071,0.64649 0.1619,1.25916 0.25,1.90625 0.1709,1.25507 0.3618,2.44094 0.5938,3.53125 0.3462,1.62806 0.7471,3.04655 1.3437,4.3125 1.251,2.65442 3.034,5.01807 5.0313,7.15625 4.3929,4.70296 9.9212,8.49851 14.4374,12.15625 5.5891,4.52663 11.8071,9.48061 18.0938,14.53125 6.2738,5.04026 12.6184,10.18227 18.625,15.0625 0,2e-5 0.029,0.0302 0.031,0.0313 0,6.4e-4 0.029,-0.001 0.031,0 2.9887,2.4284 5.8782,4.79787 8.625,7.0625 0.01,0.005 0.025,-0.005 0.031,0 0,0.001 0.055,0.0276 0.062,0.0313 0.01,0.004 0.05,0.0255 0.063,0.0313 2.7009,2.22816 5.2376,4.41429 7.5937,6.40625 1.7786,1.5036 3.303,2.8096 4.8125,4.125 1.1342,0.98888 2.2459,1.96685 3.2188,2.84375 0.3316,0.2996 0.6824,0.61205 0.9687,0.875 0.7472,0.68584 1.5287,1.41787 2.0937,1.96875 1.2418,1.21072 2.5156,2.52614 3.8126,3.9375 0.1412,0.15372 0.2718,0.29286 0.375,0.40625 0.5113,0.56206 1.0115,1.14794 1.5624,1.78125 0.2619,0.30101 0.4594,0.50461 0.5626,0.625 0.4763,0.55569 0.9598,1.10696 1.4374,1.6875 0.2528,0.3074 0.4688,0.60352 0.6876,0.875 0.414,0.51359 0.8265,1.0171 1.25,1.5625 0.2698,0.34783 0.5357,0.71723 0.8437,1.125 0.1253,0.16576 0.2045,0.2623 0.2187,0.28125 0.2739,0.36463 0.5561,0.73098 0.8438,1.125 0.01,0.007 -0.01,0.0246 0,0.0313 0.3206,0.44901 0.6422,0.93042 1,1.4375 0.2993,0.42428 0.6034,0.82176 0.875,1.21875 -0.1781,-0.254 -0.078,-0.12531 0.094,0.125 0,0.007 -0.01,0.0238 0,0.0313 0.6022,0.88322 1.1862,1.72742 1.7187,2.5625 0.3735,0.58539 0.7521,1.20867 1.1563,1.875 -0.016,-0.0268 0.051,0.0857 0.094,0.15625 0.026,0.0436 0.011,0.0152 0.063,0.0937 4.1556,6.89776 7.5138,14.46294 9.125,22.125 5.3588,25.48429 -1.0758,49.7087 1.7188,75.5625 0.5736,5.30736 1.7598,11.23922 3.7187,16.8125 -1.318,-3.31622 -2.4489,-6.82267 -3.3437,-10.46875 -2.0035,-8.16332 -1.803,-21.90399 -2,-36.65625 -0.1971,-14.75226 -0.8488,-30.64921 -5.125,-44.0625 -3.1354,-9.8347 -6.6126,-19.33397 -13.0938,-28.1875 -0.3699,-0.50531 -0.7387,-1.05842 -1.1562,-1.59375 -0.405,-0.51845 -0.8347,-1.03184 -1.25,-1.53125 -0.1917,-0.23058 -0.4054,-0.48914 -0.6563,-0.78125 -0.2901,-0.33767 -0.5243,-0.56977 -0.6563,-0.71875 -0.4024,-0.45423 -0.8533,-1.01007 -1.375,-1.5625 l -0.031,0 c -0.01,-0.0108 -0.021,-0.0205 -0.031,-0.0313 -0.4629,-0.48897 -0.9312,-0.96516 -1.4063,-1.4375 -0.2022,-0.201 -0.4785,-0.45842 -0.7813,-0.75 -0.3249,-0.31283 -0.5968,-0.54668 -0.7812,-0.71875 -0.4897,-0.45694 -1.0084,-0.95576 -1.5938,-1.46875 -2.5028,-2.19648 -5.1006,-4.40268 -7.6874,-6.625 l 0,-0.0313 c -0.5281,-0.4508 -1.0847,-0.92061 -1.6876,-1.4375 l 0,-0.0313 c -0.053,-0.0452 -0.05,-0.0252 -0.094,-0.0625 l 0,0.0313 c -5.5628,-4.7738 -11.2768,-9.62933 -17.1563,-14.53125 -27.7661,-23.14991 -58.3772,-47.42465 -86.1562,-70.375 l -0.063,-0.0625 c -0.053,-0.0457 -4.1947,-3.6461 -10.5937,-9.15625 -3.2106,-2.76469 -6.9793,-6.00685 -11.0313,-9.46875 -4.061,-3.4696 -8.3951,-7.13971 -12.7813,-10.84375 -4.3799,-3.698897 -8.7894,-7.417259 -13,-10.90625 -2.1146,-1.752293 -4.1583,-3.425698 -6.125,-5.03125 -1.9632,-1.602926 -3.8281,-3.120647 -5.5937,-4.53125 -5.3151,-4.246423 -9.4632,-7.409698 -12.0625,-9 l 0,0.03125 c -0.3705,-0.227485 -0.7087,-0.471997 -1.2188,-0.71875 -0.4369,-0.211393 -0.8671,-0.4083 -1.5624,-0.5 -0.027,-0.0036 -0.1079,-0.104745 -0.375,-0.125 z m 1.7812,7.75 c 2.2162,1.503366 5.2417,3.698119 9.6875,7.25 1.7421,1.391787 3.5782,2.905414 5.5313,4.5 1.9618,1.601654 4.0277,3.262161 6.125,5 4.1847,3.467677 8.5618,7.179747 12.9374,10.875 4.3821,3.700594 8.7346,7.3551 12.7813,10.8125 4.0443,3.45532 7.7622,6.67631 10.9687,9.4375 6.4278,5.5349 10.6563,9.21875 10.6563,9.21875 l 0.031,0.0313 0.031,0 c 27.8649,23.02296 58.4823,47.30715 86.1875,70.40625 5.8526,4.87958 11.5472,9.70917 17.0937,14.46875 0.2925,0.25069 0.4524,0.36538 0.4688,0.375 0.4228,0.36869 0.8428,0.75482 1.3125,1.15625 0.01,0.005 0.025,-0.005 0.031,0 2.5796,2.21618 5.1594,4.46124 7.625,6.625 0.4695,0.41151 0.9249,0.86549 1.4374,1.34375 0.3082,0.28763 0.5636,0.50684 0.7188,0.65625 0.1853,0.17844 0.4142,0.38459 0.6875,0.65625 0.4526,0.44998 0.8942,0.90108 1.3125,1.34375 l 0.031,0 0,0.0313 0.031,0.0313 c 0,0.005 0.027,-0.005 0.031,0 0,0.001 0.027,0.0281 0.031,0.0313 0.3586,0.38544 0.7343,0.83629 1.1562,1.3125 0.2756,0.31108 0.4866,0.53154 0.5938,0.65625 0.1766,0.20565 0.3694,0.44891 0.5938,0.71875 0.3856,0.46361 0.77,0.92061 1.125,1.375 0.352,0.45137 0.7028,0.94619 1.0624,1.4375 5.8743,8.02439 9.1345,16.82544 12.2188,26.5 3.9046,12.24761 4.6484,27.6862 4.8438,42.3125 0.1953,14.6263 -0.1837,28.30721 2.1874,37.96875 1.9562,7.97059 4.824,15.70632 9.0938,22.03125 4.2698,6.32493 10.0732,11.2759 17.5625,13.15625 7.5287,1.89023 14.7934,-0.145 20.3437,-3.25 2.7752,-1.5525 5.1658,-3.39821 7,-5.25 1.8343,-1.85179 3.1929,-3.59263 3.7813,-5.75 0.3948,-1.44776 0.6256,-2.7661 0.4687,-4.1875 -0.078,-0.7107 -0.2812,-1.47999 -0.7812,-2.25 -0.5,-0.77001 -1.386,-1.47166 -2.3125,-1.75 -1.8529,-0.55669 -3.2901,0.0629 -4.7187,0.8125 -1.4287,0.74963 -2.9529,1.84869 -4.75,3.40625 -5.9791,5.18185 -14.538,7.42687 -22.1876,2.84375 -3.5867,-2.14895 -6.3899,-6.35852 -8.375,-11.5625 -1.985,-5.20398 -3.1378,-11.28247 -3.7187,-16.65625 -2.6407,-24.4302 3.8937,-48.98829 -1.8125,-76.125 -1.8011,-8.56531 -5.4958,-16.74052 -9.9375,-24.09375 l -0.031,-0.0625 c 0.01,0.003 0,-0.0102 -0.031,-0.0625 -0.011,-0.017 -0.014,-0.003 -0.031,-0.0313 -0.3861,-0.63637 -0.7779,-1.30891 -1.2188,-2 -0.6193,-0.97119 -1.2542,-1.88526 -1.8438,-2.75 l 0,-0.0313 c 0.175,0.25087 0.08,0.12852 -0.094,-0.125 -0.01,-0.007 0.01,-0.0239 0,-0.0313 -0.3054,-0.44576 -0.6199,-0.84406 -0.9063,-1.25 -0.333,-0.47206 -0.6612,-0.95121 -1.0312,-1.46875 l 0,-0.0313 -0.031,0 c -0.292,-0.39975 -0.563,-0.80325 -0.875,-1.21875 -0.1144,-0.15228 -0.1913,-0.24652 -0.2188,-0.28125 -0.01,-0.011 -0.023,-0.0202 -0.031,-0.0313 -0.2757,-0.36546 -0.5587,-0.74847 -0.875,-1.15625 -0.4337,-0.55862 -0.8633,-1.13027 -1.3126,-1.6875 -0.264,-0.32778 -0.5188,-0.62513 -0.75,-0.90625 -0.5013,-0.60934 -0.9954,-1.19258 -1.5,-1.78125 -0.2699,-0.31505 -0.4827,-0.52862 -0.5937,-0.65625 -0.5441,-0.62535 -1.0776,-1.23896 -1.6563,-1.875 -0.1479,-0.16267 -0.2656,-0.31848 -0.375,-0.4375 -1.3686,-1.4894 -2.7378,-2.86465 -4.0624,-4.15625 -0.6321,-0.61622 -1.4341,-1.37353 -2.2188,-2.09375 -0.3243,-0.29781 -0.7083,-0.64576 -1.0312,-0.9375 -1.0072,-0.90774 -2.1289,-1.90145 -3.2813,-2.90625 -1.5299,-1.33316 -3.0747,-2.6655 -4.875,-4.1875 -2.3823,-2.01409 -4.9786,-4.21491 -7.75,-6.5 l 0,0.0313 c 0,-1e-5 -0.03,4.6e-4 -0.031,0 -4e-4,-2.2e-4 7e-4,-0.0308 0,-0.0313 -2.7509,-2.26816 -5.6508,-4.65173 -8.6562,-7.09375 0,-1e-5 -0.03,4.6e-4 -0.031,0 -0.01,-0.002 -0.1,-0.0506 -0.125,-0.0625 -6.0016,-4.87593 -12.3302,-9.99915 -18.5938,-15.03125 -6.2916,-5.05458 -12.4925,-10.02006 -18.0625,-14.53125 -4.7792,-3.8707 -10.0976,-7.58321 -13.8437,-11.59375 -1.7024,-1.8225 -3.0725,-3.72314 -3.9688,-5.625 -0.2779,-0.58959 -0.6172,-1.64114 -0.9062,-3 -0.1917,-0.90097 -0.3761,-1.95344 -0.5313,-3.09375 -0.075,-0.55061 -0.1492,-1.11259 -0.2187,-1.75 -0.2704,-2.47876 -0.4513,-5.3129 -0.5626,-8.3125 -0.1113,-3.00556 -0.1495,-6.20781 -0.125,-9.40625 0.024,-3.19566 0.1167,-6.37325 0.25,-9.4375 0.1333,-3.063193 0.3187,-5.999139 0.5313,-8.59375 0.107,-1.305771 0.1933,-2.515785 0.3125,-3.625 0.146,-1.358447 0.3099,-2.206739 0.4688,-3.21875 0.2032,0.174484 0.3716,0.306639 0.5937,0.5 0,1.4e-5 0.03,-4.85e-4 0.031,0 0.012,0.01046 0.05,0.0204 0.062,0.03125 0.5008,0.438832 1.2727,1.190068 2,1.84375 2.2512,2.022708 4.8657,4.401599 8.0938,7.46875 6.3517,6.035083 14.3985,13.9001 23.375,22.875 5.9837,5.98262 12.3743,12.4573 18.9375,19.1875 6.5626,6.7296 13.2966,13.72079 19.9687,20.75 6.6733,7.03038 13.2817,14.08784 19.5938,20.96875 7.8886,8.59947 15.3067,16.94613 21.8125,24.53125 0.1851,0.21584 0.3279,0.37226 0.4375,0.5 1.1499,1.34345 2.2634,2.65282 3.3438,3.9375 0.7273,0.86496 1.4543,1.71871 2.125,2.5625 0,-0.005 0.09,0.13274 0.2812,0.375 1.9236,2.43981 3.6641,4.88022 5.2812,7.3125 0.1458,0.21822 0.3387,0.50118 0.5626,0.84375 l -0.031,0 c 0.3807,0.58459 0.7533,1.14201 1.0937,1.6875 0.229,0.37327 0.473,0.75119 0.7188,1.15625 0.2493,0.41088 0.4038,0.63445 0.4375,0.6875 0,0.004 0,0.0265 0,0.0313 0.079,0.13523 0.2227,0.37352 0.4063,0.6875 0.432,0.73872 0.8496,1.4615 1.25,2.1875 0.054,0.0981 0.1204,0.18963 0.1874,0.3125 -0.021,-0.0379 0.015,0.11863 0.1876,0.4375 0.4002,0.74142 0.7977,1.42081 1.125,2.0625 l 0,0.0313 c 0.014,0.0281 0.017,0.005 0.031,0.0313 0.4144,0.81526 0.8251,1.63556 1.2188,2.46875 -0.013,-0.027 0.029,0.0764 0.125,0.28125 0.013,0.0279 0.018,0.005 0.031,0.0313 0.01,0.0147 -0.01,0.017 0,0.0313 0.014,0.0295 0.017,0.003 0.031,0.0313 21.3666,45.74204 -4.4687,85.96875 -4.4687,85.96875 l -2.4687,3.8125 4.5,0.75 c 0,0 0.9145,0.092 1.7187,-0.0313 0.8042,-0.12327 1.8411,-0.40622 3.1563,-0.96875 2.6302,-1.12506 6.3612,-3.36299 11.625,-7.96875 6.022,-5.26933 9.9421,-14.62278 14.2812,-24.3125 4.3391,-9.68972 8.9273,-19.71441 14.5,-25.90625 11.5324,-12.81377 25.6325,-17.0089 40.75,-10.5 15.5002,6.67373 19.1756,14.93879 21.3125,21.5625 2.2608,7.00866 4.7034,15.77599 11.4375,19.875 1.8986,1.15567 4.369,2.5352 6.8125,3.84375 l 2.625,1.40625 -0.625,0.25 c -1.8419,0.72662 -3.6979,1.49861 -5.25,2.46875 -3.4096,2.13092 -12.3863,7.07731 -12.6563,17.34375 -0.2229,8.46535 -0.9062,19.17307 -0.9062,50.75 0,9.66681 -0.8996,18.80817 -2.5312,27.1875 -0.01,0.047 -0.046,0.19467 -0.094,0.4375 -0.1386,0.69866 -0.2918,1.38738 -0.4375,2.0625 -0.3046,1.41039 -0.6052,2.80855 -0.9375,4.125 -0.2598,1.02848 -0.5609,2.05861 -0.8438,3.0625 -0.019,0.0679 -0.01,0.0657 -0.031,0.15625 -0.2785,0.98299 -0.5991,1.9388 -0.9062,2.90625 0,-0.0101 -0.026,0.0728 -0.031,0.0937 -0.013,0.0409 -0.018,0.084 -0.031,0.125 -0.01,0.0216 0.01,0.0102 0,0.0313 -0.02,0.0609 -0.033,0.0626 -0.062,0.15625 -0.3219,1.01403 -0.6189,1.99504 -0.9376,2.90625 -0.2929,0.83781 -0.5924,1.64224 -0.9062,2.46875 -0.024,0.0637 -0.096,0.23161 -0.1875,0.46875 -0.7205,1.86948 -1.4551,3.64997 -2.25,5.375 -0.1562,0.33771 -0.1729,0.39445 -0.063,0.15625 -0.2951,0.63722 -0.6376,1.33139 -0.9688,2 -0.1561,0.31521 -0.264,0.52922 -0.3124,0.625 -0.1889,0.37313 -0.3971,0.78698 -0.625,1.21875 -0.2402,0.45445 -0.4684,0.88495 -0.6876,1.28125 -0.4151,0.75058 -0.824,1.4776 -1.25,2.1875 0.108,-0.18001 0.056,-0.11103 -0.125,0.1875 -0.3201,0.52997 -0.6232,1.02649 -0.9062,1.46875 -0.1579,0.24668 -0.3232,0.48232 -0.5,0.75 -0.1884,0.28531 -0.3632,0.56638 -0.5312,0.8125 -0.2978,0.43586 -0.6254,0.88072 -0.9376,1.3125 -0.3742,0.51748 -0.8091,1.05993 -1.25,1.625 -0.015,0.0193 -0.092,0.14458 -0.25,0.34375 -0.3104,0.39139 -0.5948,0.73358 -0.8437,1.03125 -0.2246,0.2687 -0.4484,0.53882 -0.6875,0.8125 -0.5223,0.59731 -1.053,1.1917 -1.5625,1.71875 -12.5483,12.98121 -37.9894,29.64214 -78.125,34 -6.8956,0.74872 -21.4318,0.57678 -35.3437,0.78125 -6.956,0.10223 -13.7824,0.31618 -19.625,0.8125 -5.8427,0.49632 -10.5879,1.12052 -14,2.71875 -5.3892,2.5243 -12.8263,6.35613 -19.0938,11.90625 -6.2674,5.55012 -11.4688,13.06638 -11.4688,22.59375 0,17.87971 9.2239,27.09814 12.375,32.21875 0.2444,0.39699 0.2493,0.4844 0.4376,0.8125 -1.7319,-10e-4 -12.3967,-0.005 -23.9063,-0.28125 -5.9428,-0.14273 -11.9505,-0.35236 -16.6875,-0.65625 -2.3685,-0.15195 -4.4377,-0.33716 -5.9688,-0.53125 -1.2631,-0.16012 -2.3051,-0.49357 -2.4374,-0.5 0,-0.002 -0.032,0.001 -0.031,0 -0.025,-0.0569 -0.5588,-0.61037 -1.0625,-1.9375 -0.5482,-1.44423 -1.0235,-3.52553 -1.3438,-5.78125 -0.6405,-4.51145 -0.7319,-9.80113 -0.5624,-13.0625 0.6386,-12.29473 7.4229,-26.09362 14.125,-34.59375 3.3383,-4.234 5.9829,-6.29572 7.8437,-7.625 0.9304,-0.66464 1.6499,-1.10052 2.4375,-1.78125 0.3938,-0.34037 0.8411,-0.7623 1.2188,-1.53125 0.3776,-0.76895 0.4929,-1.95078 0.25,-2.78125 -0.178,-0.60852 -0.4086,-1.39642 -1.2188,-2.21875 -0.8101,-0.82233 -2.1594,-1.22709 -3.125,-1.21875 -1.9312,0.0167 -3.3164,0.64808 -5.875,1.6875 -5.7574,2.33897 -12.4395,6.24864 -24.8125,22.28125 -6.0966,7.89986 -9.7449,18.60122 -12.3437,27.40625 -1.2995,4.40252 -2.3178,8.33096 -3.1563,11.09375 -0.3344,1.10176 -0.5942,1.83697 -0.8437,2.46875 -0.9765,-0.2852 -2.3299,-0.7597 -3.9376,-1.375 -3.238,-1.2393 -7.4545,-3.04545 -11.6874,-5 -4.233,-1.95455 -8.5129,-4.07673 -11.9688,-5.96875 -3.2107,-1.7578 -5.5074,-3.35441 -6.2188,-3.96875 -0.03,-0.14617 -0.067,-0.24812 -0.062,-0.5 0.016,-0.78665 0.1752,-1.98774 0.5312,-3.4375 0.7121,-2.89952 2.1957,-6.78487 4.625,-10.96875 4.7598,-8.19743 13.9932,-16.84894 22.5,-24.28125 2.4094,-2.10509 7.3547,-5.04197 11.4688,-7.5 2.057,-1.22901 3.8904,-2.33958 5.3124,-3.375 0.7111,-0.51771 1.3126,-0.97619 1.9063,-1.6875 0.2969,-0.35566 0.6566,-0.78142 0.875,-1.59375 0.2184,-0.81233 0.014,-2.2406 -0.6875,-3.0625 -0.9872,-1.15621 -1.9168,-1.2605 -2.7188,-1.40625 -0.8019,-0.14575 -1.5892,-0.19334 -2.5,-0.15625 -1.8214,0.0742 -4.0356,0.44601 -6.6562,1.125 -5.2412,1.35799 -12.0557,4.03833 -19.4375,8.625 -8.8989,5.52934 -16.6473,14.37366 -22.75,21.875 -3.0514,3.75067 -5.6821,7.18621 -7.7187,9.625 -1.0184,1.2194 -1.9057,2.18584 -2.5313,2.78125 -0.14,0.1332 -0.1928,0.16868 -0.3125,0.25 -0.3623,-0.14305 -1.0243,-0.40165 -1.7812,-0.9375 -1.4299,-1.01217 -3.2493,-2.5988 -5.0938,-4.375 -3.6891,-3.55239 -7.5261,-7.81449 -9.8125,-10.25 -6.0932,-6.49059 -14.6141,-15.49974 -17.3125,-20.53125 -0.2408,-0.4491 -0.4468,-0.84552 -0.5625,-1.125 l 0,-0.0313 c -0.034,-0.0815 -0.01,-0.0199 -0.031,-0.0937 -0.2468,-0.68814 -0.2453,-0.92105 -0.2812,-0.875 0.192,-0.13019 0.366,-0.21019 0.5625,-0.3125 l 0.031,0 c 0.1993,-0.10328 0.6,-0.2715 1.0624,-0.46875 0.4086,-0.17424 0.8658,-0.35625 1.3438,-0.53125 0.5433,-0.19753 1.048,-0.39646 1.5625,-0.5625 l 0.031,0 c 1.1307,-0.36501 2.4574,-0.75228 3.8437,-1.125 11.1353,-2.99375 28.4311,-5.77048 34.875,-7.03125 9.3675,-1.83277 25.8359,-6.81 32.6563,-10.21875 0.053,-0.0265 0.1466,-0.0553 0.2812,-0.125 0.4524,-0.23273 0.7571,-0.44272 0.9062,-0.53125 0.5345,-0.31778 1.0283,-0.49282 1.8126,-1.40625 l 0.031,0 c -0.1533,0.18153 -0.1715,0.20783 0.094,-0.125 0.4886,-0.61284 0.5959,-1.06501 0.5,-0.84375 l 0.031,-0.0625 0,-0.0313 c 0.1497,-0.37522 0.4909,-0.88471 0.1562,-2.125 -0.1083,-0.40066 -0.3803,-1.00252 -0.8124,-1.5 -1.1943,-1.34078 -2.6177,-1.42091 -3.6563,-1.40625 -0.01,1.3e-4 -0.022,-1.4e-4 -0.031,0 -0.8648,0.0102 -1.6697,0.15322 -2.5937,0.3125 l -0.031,0 c -0.5525,0.0962 -1.1607,0.18952 -1.9062,0.34375 -0.012,0.002 -0.019,-0.002 -0.031,0 -1.864,0.38143 -3.9291,0.86076 -6.75,1.4375 -2.7196,0.5567 -5.917,1.20099 -9.6563,1.78125 -13.2617,2.05796 -24.8481,3.02639 -34.5625,3.40625 -2.4121,0.0943 -4.6943,0.16543 -6.8438,0.1875 -2.0839,0.0208 -4.0742,0.004 -5.9374,-0.0313 -0.1399,-0.003 -0.1642,-0.002 -0.063,0 -0.1454,-0.003 -0.1746,-0.002 -0.094,0 -1.4369,-0.0281 -2.744,-0.0694 -4.0313,-0.125 -0.4907,-0.0213 -0.9013,-0.008 -1.3437,-0.0313 0.2292,0.012 0.1575,-0.0407 -0.2813,-0.0625 l 0,0.0313 c -4.6541,-0.25341 -8.2906,-0.6951 -10.6562,-1.125 -0.544,-0.098 -1.0296,-0.17878 -1.3438,-0.25 -0.3689,-0.0841 -0.6241,-0.15554 -0.8437,-0.21875 -0.4606,-0.13016 -0.6877,-0.25428 -0.625,-0.21875 -0.09,-0.14732 -1.2866,-1.25894 -2.375,-2.8125 -1.2439,-1.7755 -2.7108,-4.17667 -4.1563,-6.78125 -2.8908,-5.20916 -5.7449,-11.34035 -7.125,-15.34375 -0.17,-0.49334 -0.3569,-0.97761 -0.5,-1.46875 0,-0.009 0,-0.0218 0,-0.0313 -0.01,-0.0397 0.012,-0.0205 0,-0.0625 l 0,-0.0313 c -0.1506,-0.52422 -0.3051,-1.08834 -0.4374,-1.625 0,-0.009 0,-0.0218 0,-0.0313 -0.1633,-0.67517 -0.3188,-1.41471 -0.4688,-2.15625 -0.099,-0.4806 -0.1987,-0.91668 -0.2812,-1.34375 0,0.0125 0,-0.039 0,-0.0313 -0.01,-0.04 -0.024,-0.0853 -0.031,-0.125 l 0,-0.0313 c -9e-4,-0.006 -1e-4,-0.0305 0,-0.0313 0,-0.011 0,-0.0202 0,-0.0313 -0.7046,-3.88463 -1.13,-7.90609 -1.375,-10.875 -0.018,-0.21589 -0.031,-0.25727 -0.031,-0.25 -9e-4,-0.0136 0,-0.0177 0,-0.0313 -0.017,-0.21549 -0.018,-0.31803 -0.031,-0.5 3.2329,1.04839 8.5587,2.72663 15.0312,4.59375 4.3378,1.24699 9.0604,2.5186 13.875,3.71875 1.3811,0.34371 2.7734,0.69406 4.2188,1.03125 3.2553,0.76237 6.4772,1.44565 9.5938,2.03125 0.5084,0.0948 1.035,0.18813 1.5624,0.28125 2.4236,0.431 4.8055,0.79924 7.0313,1.0625 0.1217,0.0141 0.1094,-0.008 0.1875,0 1.1866,0.14168 1.9937,0.26956 3.125,0.40625 1.2255,0.14777 2.572,0.30738 3.6562,0.4375 l 0.031,0 0.031,0 c 0.023,0.003 0.04,-0.003 0.062,0 0.8774,0.10485 1.6208,0.18997 2.4063,0.28125 1.1222,0.13114 2.2161,0.26218 3.2813,0.375 0.2013,0.0212 0.376,0.0403 0.5937,0.0625 1.3404,0.13807 2.6209,0.22127 3.8125,0.3125 -10e-4,-1e-4 0.1957,0.0347 0.5938,0.0625 0.4415,0.0312 0.4581,0.0304 0.031,0 1.6365,0.11491 3.2806,0.18285 4.9688,0.21875 0.8595,0.0191 1.711,0.0344 2.6562,0.0313 6.2952,-0.028 14.0283,-0.56959 27.4062,-1.75 15.4924,-1.36697 24.5116,-3.5463 32.0626,-4.8125 7.5509,-1.2662 13.6261,-1.69303 24.375,0.28125 22.996,4.22377 68.3212,1.93875 83.9687,-0.90625 7.5116,-1.36575 12.1207,-2.51376 14.9063,-3.34375 2.7855,-0.82999 4.0624,-1.5 4.0624,-1.5 l -1.9687,-5.5625 c 0,0 -52.3676,8.39947 -97.9375,-2.21875 -19.9464,-4.6477 -36.3277,-8.53235 -50.2812,-13.125 -2.2886,-0.75343 -4.5088,-1.5372 -6.6876,-2.34375 -0.4874,-0.17962 -0.9732,-0.3436 -1.4687,-0.53125 -2.1099,-0.8028 -4.1651,-1.6451 -6.1563,-2.5 -1.1388,-0.48776 -2.2692,-0.97427 -3.3437,-1.46875 l -0.6875,-0.3125 -0.1875,0 -0.4375,-0.28125 -0.1875,-0.0937 -0.1875,-0.0937 c -1.2405,-0.59275 -2.4485,-1.2021 -3.625,-1.8125 l -0.1875,-0.0937 -11.5937,-7.03125 c -3.1458,-2.19484 -6.2137,-4.59335 -9.1876,-7.21875 L 1352,335 l -0.1562,-0.125 -3.5626,-2.3125 c -0.4188,-0.403 -0.8165,-0.81642 -1.25,-1.25 l 0,-0.0313 c -0.4943,-0.49396 -0.9845,-0.96207 -1.4687,-1.46875 -0.1511,-0.15835 -0.2105,-0.21337 -0.1563,-0.15625 -1.9167,-2.01525 -3.7897,-4.21133 -5.6562,-6.53125 -0.1942,-0.24161 -0.3554,-0.39661 -0.4375,-0.5 -12.9582,-16.30114 -23.524,-38.91141 -24.5625,-57.28125 l -0.031,-0.1875 -0.031,-0.1875 c 0,0 -0.232,-1.4181 -0.2813,-3.0625 -0.025,-0.83112 0.069,-0.98078 0.1876,-1.59375 1.3205,0.51202 3.0551,1.26397 5.2187,2.3125 4.7192,2.28707 10.9414,5.56462 17.0937,8.9375 12.3048,6.74576 24.4063,13.78125 24.4063,13.78125 l 0.031,0.0313 0.062,0.0313 c 13.9917,7.49858 29.2315,16.89051 41.4063,23.875 6.0874,3.49225 11.392,6.38562 15.5313,8.1875 2.0696,0.90094 3.8311,1.52718 5.5,1.8125 0.8344,0.14266 1.6615,0.22936 2.625,0.0313 0.9634,-0.19816 2.1589,-0.85074 2.8124,-1.9375 0.515,-0.85632 0.5274,-1.83658 0.4063,-2.4375 -0.1211,-0.60092 -0.3097,-0.95776 -0.5,-1.28125 l -0.031,-0.0313 c -0.066,-0.11038 -0.1979,-0.38017 -0.4687,-0.71875 -0.6035,-0.75258 -1.1844,-1.2046 -1.8125,-1.75 -0.3879,-0.33617 -0.8722,-0.753 -1.4688,-1.21875 -0.1334,-0.1044 -0.1693,-0.12826 -0.125,-0.0937 -0.2384,-0.18489 -0.5675,-0.42575 -0.875,-0.65625 -0.3119,-0.23353 -0.5824,-0.44848 -0.7812,-0.59375 -0.5004,-0.36527 -1.1488,-0.8182 -1.7188,-1.21875 -0.6871,-0.48153 -1.4576,-1.0369 -2.2812,-1.59375 -0.2287,-0.15466 -0.5046,-0.31479 -0.6875,-0.4375 -1.2962,-0.86883 -2.7339,-1.83389 -4.25,-2.8125 -0.9328,-0.60231 -1.9799,-1.26706 -2.9375,-1.875 -0.8686,-0.55085 -1.8725,-1.1807 -2.7812,-1.75 -1.8259,-1.14388 -3.7942,-2.34097 -5.7813,-3.5625 -2.393,-1.47001 -4.9403,-3.05864 -7.5313,-4.625 -0.6511,-0.39384 -1.4152,-0.84091 -2.0937,-1.25 -4.1489,-2.49975 -8.4933,-5.09521 -12.9063,-7.71875 -2.7131,-1.61383 -5.4554,-3.22501 -8.1874,-4.84375 -14.4248,-8.54242 -28.9931,-17.1037 -40,-23.84375 -5.5035,-3.37002 -10.1061,-6.29836 -13.3438,-8.5 -1.6188,-1.10082 -2.9022,-2.02404 -3.7188,-2.6875 -0.3125,-0.25395 -0.5016,-0.41501 -0.6562,-0.5625 -0.064,-0.33626 -0.3146,-1.72113 -0.5312,-3.8125 -0.2381,-2.29786 -0.4857,-5.29344 -0.7188,-8.65625 -0.4661,-6.72562 -0.8591,-14.94061 -1.0312,-22.15625 0,0.0726 0.01,0.007 0,-0.21875 -0.033,-1.43271 -0.049,-2.86188 -0.063,-4.21875 -0.042,-4.20971 0.1281,-6.99978 0.3126,-9.21875 0.2351,0.13311 0.4196,0.25665 0.6874,0.40625 0.3087,0.17244 0.5935,0.35976 1,0.59375 0.6238,0.35904 1.3608,0.78128 2.0938,1.21875 0.3715,0.22175 0.5529,0.32517 0.6875,0.40625 0.3678,0.22146 0.699,0.39646 1.125,0.65625 0.7114,0.43349 1.3842,0.86478 2.1563,1.34375 2.1055,1.30596 4.3717,2.72077 6.9062,4.34375 0.3339,0.2137 0.6006,0.38865 0.9688,0.625 1.3936,0.89481 3.0189,1.95534 4.5312,2.9375 1.874,1.21556 3.6862,2.40872 5.6875,3.71875 2.8825,1.88594 5.6458,3.70148 8.75,5.75 0.2053,0.13552 0.4062,0.24113 0.6563,0.40625 4.9329,3.25667 10.0724,6.67929 15.3124,10.15625 4.2175,2.7985 8.2426,5.45002 12.4688,8.25 2.7086,1.7946 5.3178,3.54173 8,5.3125 3.8728,2.5566 7.7754,5.13668 11.4375,7.53125 2.706,1.76954 5.3871,3.50745 7.9375,5.15625 0.2739,0.17705 0.392,0.23887 0.3125,0.1875 3.0354,1.96123 5.8639,3.80541 8.5937,5.53125 3.2464,2.05253 6.2504,3.92864 8.9063,5.53125 0.3454,0.20831 0.7203,0.40124 0.9375,0.53125 1.5553,0.93062 2.9721,1.76089 4.2812,2.5 0.1622,0.0916 0.3364,0.18981 0.5,0.28125 2.0163,1.12668 3.6756,2.01112 5.0626,2.59375 0.2589,0.10957 0.3431,0.11863 0.2812,0.0937 0.3207,0.12947 0.6255,0.25419 0.9062,0.34375 0.3647,0.11631 0.7462,0.2262 1.1876,0.28125 0.011,0.001 0.02,-10e-4 0.031,0 0.3122,0.038 0.6532,0.0525 1.1562,-0.0313 0.5167,-0.086 1.321,-0.31847 2,-1.125 0.6243,-0.7417 0.8452,-1.5545 0.75,-2.46875 l 0,-0.0625 0,-0.0625 c -0.087,-0.56359 -0.167,-0.6067 -0.2187,-0.6875 -0.013,-0.0381 0.01,-0.004 0,-0.0313 -0.01,-0.0143 -0.056,-0.11347 -0.063,-0.125 -0.2213,-0.56376 -0.4739,-0.96851 -0.7812,-1.375 -0.2518,-0.33187 -0.5439,-0.67199 -0.875,-1.03125 -0.5894,-0.63746 -1.1972,-1.2067 -1.8438,-1.8125 -0.1598,-0.14967 -0.4688,-0.44113 -0.8438,-0.78125 -0.2823,-0.25573 -0.5672,-0.53679 -0.8437,-0.78125 l -0.031,0 c -0.763,-0.67378 -1.6029,-1.40511 -2.5312,-2.1875 -0.1714,-0.14469 -0.2253,-0.18309 -0.1562,-0.125 -0.7658,-0.644 -1.6319,-1.39446 -2.5626,-2.15625 -0.243,-0.199 -0.4792,-0.38122 -0.625,-0.5 -3.0911,-2.51638 -6.8952,-5.53223 -10.9687,-8.6875 -1.9414,-1.50372 -4.0318,-3.09588 -6.1563,-4.71875 -2.668,-2.0374 -5.5216,-4.19975 -8.4062,-6.375 -0.692,-0.5219 -1.4309,-1.05595 -2.0625,-1.53125 -13.8941,-10.45169 -29.6299,-22.07495 -43.9063,-32.59375 -0.7301,-0.53793 -1.4121,-1.03729 -2.125,-1.5625 -3.9332,-2.89801 -7.1931,-5.28835 -10.7812,-7.9375 -1.4941,-1.10278 -2.6193,-1.96301 -4.0625,-3.03125 -0.6126,-0.45313 -1.3243,-0.97532 -1.9063,-1.40625 -1.264,-0.93735 -2.3892,-1.75162 -3.5624,-2.625 -1.7238,-1.27965 -3.1703,-2.38255 -4.75,-3.5625 -0.7146,-0.5335 -1.3999,-0.98007 -1.9688,-1.40625 -0.4219,-0.31615 -0.7336,-0.58286 -1.0312,-0.8125 l -0.031,0 c -0.4504,-0.33826 -0.846,-0.67896 -1.4375,-1.125 -2.0029,-1.50991 -3.7554,-2.83751 -5.2188,-3.96875 l -0.031,0 c -0.01,-0.006 -0.023,0.006 -0.031,0 -0.01,-0.005 0.01,-0.0263 0,-0.0313 -1e-4,-2e-5 -0.027,-0.0288 -0.031,-0.0313 -1.445,-1.11781 -2.5167,-1.96337 -3.4375,-2.71875 -0.2187,-0.17944 -0.3487,-0.28148 -0.4688,-0.375 0.014,0.0166 -0.043,-0.0274 -0.125,-0.0937 -0.044,-0.0396 -0.048,-0.0646 -0.1562,-0.15625 -0.045,-0.0382 -0.022,0.001 -0.063,-0.0313 -0.1644,-0.14002 -0.3141,-0.29969 -0.5,-0.46875 -3e-4,-0.002 -0.031,0.002 -0.031,0 -0.023,-0.13644 -0.034,-0.22503 -0.062,-0.4375 l 0,-0.0313 c -0.047,-0.34459 -0.078,-0.44017 -0.063,-0.3125 0.01,0.0749 -0.01,-0.0872 -0.031,-0.3125 -0.072,-0.65652 -0.1261,-1.60662 -0.1875,-2.59375 0,0.045 0,-0.058 0,-0.0313 0.011,0.1339 0.02,0.17511 0,-0.15625 -0.024,-0.39526 -0.049,-0.61232 -0.063,-0.875 -0.049,-0.97483 -0.089,-2.08491 -0.125,-3.25 -0.1431,-4.63613 -0.1952,-10.47302 -0.1562,-16.28125 0.019,-2.89757 0.071,-5.78061 0.125,-8.53125 0.097,-4.94231 0.2702,-8.98687 0.4374,-11.96875 0.4461,0.26495 0.512,0.26636 1.0313,0.59375 0.7866,0.49593 1.6251,1.05086 2.5937,1.6875 l 0.031,0 0.031,0 0.031,0.0313 c 0.9308,0.61261 1.9349,1.2915 3.0312,2.03125 2.2263,1.50186 4.7377,3.23576 7.5,5.15625 2.7475,1.91008 5.7297,3.99919 8.875,6.21875 l 0.031,0.0313 c 0.01,0.005 0.025,-0.005 0.031,0 0,3e-5 0.051,0.0251 0.062,0.0313 3.1029,2.19046 6.3435,4.54821 9.75,6.96875 l 0.031,0 0.031,0.0313 c 0,2e-5 0.027,0.0291 0.031,0.0313 6.8441,4.86324 14.1471,10.05487 21.4688,15.25 9.2872,6.58989 18.5464,13.08443 27,18.90625 4.9787,3.42736 9.6257,6.60126 13.8437,9.375 1.4044,0.92376 2.7611,1.7907 4.0625,2.625 l 0.031,0 0.031,0.0625 0.063,0.0313 c 0,1e-5 0.029,-9.9e-4 0.031,0 0,-3e-5 0.05,0.0258 0.063,0.0313 0.016,0.007 0.038,0.0205 0.062,0.0313 0.027,0.0171 0.07,0.0473 0.094,0.0625 0.1315,0.0841 0.2187,0.1363 0.25,0.15625 0.2304,0.14941 0.5114,0.32081 0.8438,0.53125 1.0201,0.64601 1.9768,1.27004 2.9062,1.84375 l 0.031,0 c 1.9525,1.19743 3.7839,2.30209 5.3438,3.15625 -0.048,-0.026 0.028,0.0216 0.2188,0.125 1.3452,0.72995 2.5092,1.27289 3.5,1.6875 0.4779,0.19798 0.97,0.37534 1.5,0.53125 l 0,0.0313 c 0.095,0.0276 0.287,0.11555 0.875,0.21875 l 0.031,0 c 0.3678,0.0626 0.7232,0.0722 1.0312,0.0625 l 0.031,0 c 0.1506,-0.006 0.1334,-0.029 0.125,-0.0313 -0.01,-0.003 -0.01,0.006 0.031,0 0.2742,-0.0436 0.7997,-0.11036 0.2812,-0.0313 0.1699,-0.0261 0.2407,-0.0676 0.3438,-0.0937 0.074,-0.0156 0.137,-0.0386 0.2187,-0.0625 l 0,0.0313 c 0.01,-0.002 0.026,0.002 0.031,0 l 0,-0.0313 c 0.116,-0.0352 0.1814,-0.007 0.3124,-0.0625 -0.1723,0.0978 -0.1911,0.14661 0.4063,-0.1875 l 0.094,-0.0625 0.094,-0.0625 c 0.1547,-0.10397 0.148,-0.11346 0.25,-0.1875 0.043,-0.0348 0.026,-0.002 0.063,-0.0313 L 1432,201 c 0.4569,-0.40645 0.5724,-0.62689 0.75,-0.96875 -0.078,0.14996 0.2839,-0.32723 0.375,-1.25 l 0,-0.0313 c 0.016,-0.17065 0.024,-0.22375 0.031,-0.28125 l 0,-0.0313 c 0.01,-0.59029 -0.035,-0.89335 -0.062,-0.96875 -0.013,0.0137 -0.017,0.1146 0,0.25 -0.1546,-0.87933 -0.4758,-1.42993 -0.8438,-2 l -0.031,0 c -0.1778,-0.27425 -0.2272,-0.33877 -0.1876,-0.28125 l 0,-0.0313 -0.031,0 c -0.3397,-0.47899 -0.7104,-0.93716 -1.125,-1.40625 -0.1003,-0.11336 -0.2854,-0.33088 -0.5312,-0.59375 -0.2218,-0.23694 -0.3488,-0.34893 -0.3438,-0.34375 -0.2812,-0.29307 -0.5303,-0.55791 -0.6875,-0.71875 l -0.031,0 0,-0.0313 c -3.8072,-3.7847 -10.4384,-9.27586 -18.7187,-15.8125 -1.5223,-1.20146 -3.0187,-2.38117 -4.6563,-3.65625 -3.1819,-2.47767 -6.5531,-5.05853 -10.0312,-7.71875 -3.4888,-2.66841 -7.0806,-5.37839 -10.75,-8.15625 -3.6659,-2.77523 -7.3827,-5.58622 -11.125,-8.40625 -7.4863,-5.64144 -14.9974,-11.30103 -22.0625,-16.65625 -1.5245,-1.15553 -2.932,-2.22163 -4.4063,-3.34375 -5.365,-4.08377 -10.4852,-8.01097 -14.9374,-11.5 -5.6742,-4.44659 -10.4119,-8.31503 -13.7188,-11.21875 -0.829,-0.7279 -1.5612,-1.40998 -2.1875,-2 -0.6187,-0.58294 -1.1372,-1.07716 -1.5625,-1.53125 -0.3806,-0.40636 -0.6343,-0.71057 -0.7812,-0.90625 -0.1739,-1.45592 -0.3909,-5.75171 -0.5313,-11.34375 -0.29,-11.551186 -0.2876,-28.383757 0.3437,-38.375 0.1275,-2.017476 0.2971,-3.091087 0.4688,-4.40625 z m 371.2812,83.28125 c 0.088,0.003 0.1807,0.0348 0.3126,0.0625 1.147,0.2406 2.6062,1.46547 4,4.15625 0.4496,0.86807 0.8811,1.88664 1.3124,3.0625 0.2092,0.56946 0.3968,1.18494 0.5938,1.8125 0.3981,1.26806 0.7656,2.59762 1.0938,4 0.3309,1.41592 0.635,2.92675 0.9062,4.46875 0.6774,3.84913 1.1672,7.99569 1.5,12.125 0.5321,6.60181 0.6653,13.1292 0.5625,18.25 0,0.21148 -2e-4,0.293 0,0.28125 -0.02,0.90653 -0.058,1.78458 -0.094,2.625 -0.01,0.18724 -0.021,0.45268 -0.031,0.65625 -0.028,0.57623 -0.061,1.13418 -0.094,1.625 -0.029,0.43731 -0.066,0.92369 -0.094,1.25 -0.071,0.80788 -0.1462,1.55777 -0.2188,2.03125 -0.066,0.43324 -0.1313,0.85241 -0.2187,1.3125 -0.074,0.39082 -0.1388,0.70967 -0.1875,0.9375 -0.036,0.16801 -0.07,0.30046 -0.094,0.40625 -0.1186,0.52991 -0.2769,1.08854 -0.4374,1.6875 0.01,-0.0126 -0.024,0.0605 -0.031,0.0937 -0.01,0.021 0.01,0.0414 0,0.0625 l 0,0.0313 c -0.017,0.056 -0.037,0.0599 -0.063,0.15625 -1.2034,4.42816 -3.0838,8.98759 -5.1875,13.625 -0.01,0.0127 -0.025,0.0186 -0.031,0.0313 0.016,-0.0377 -0.011,0.0191 -0.031,0.0625 -0.01,0.0123 -0.026,0.0189 -0.031,0.0313 -0.016,0.0363 0.02,-0.0174 0,0.0313 -4.0217,8.84908 -8.81,18.01481 -10.5938,27.96875 -0.5921,3.30443 -0.7495,6.58817 -0.7188,9.8125 -0.8717,-2.60203 -1.8582,-5.01247 -3.0937,-6.84375 -0.819,-1.21399 -1.9469,-2.34261 -3.1563,-3.4375 0.4026,0.17833 0.7239,0.39031 1.3126,0.4375 0.967,0.0775 2.3647,-0.38413 3.0937,-1.21875 1.4579,-1.66924 1.1576,-2.97192 1.0625,-4.375 -0.095,-1.40308 -0.3683,-3.05059 -0.8125,-5.09375 -1.1526,-5.30222 -3.2918,-12.8992 -5.0937,-20.875 l -0.031,0 c -0.288,-1.26182 -0.5632,-2.49001 -0.8125,-3.6875 0.019,0.0917 0.01,-0.0397 -0.063,-0.375 -0.2623,-1.2741 -0.5256,-2.5473 -0.75,-3.8125 -0.2947,-1.68276 -0.5476,-3.33729 -0.75,-4.9375 -0.2444,-1.93182 -0.3621,-4.12433 -0.375,-6.46875 -8e-4,-0.10531 4e-4,-0.24477 0,-0.40625 -1e-4,-0.052 0,-0.12241 0,-0.1875 l 0,-0.0313 c 3e-4,-0.27468 0,-0.54828 0,-0.75 0,-0.52219 0.016,-1.04292 0.031,-1.59375 0.046,-1.7107 0.149,-3.45863 0.2812,-5.21875 0.1995,-2.65652 0.4688,-5.33301 0.8125,-7.84375 l 0,-0.0313 0,-0.0313 0,-0.0625 c 0.053,-0.55366 0.076,-0.55327 0.031,-0.0313 0.1079,-0.77718 0.2215,-1.53466 0.3437,-2.3125 0.3784,-2.40408 0.7844,-4.61808 1.2187,-6.5 0.4354,-1.88657 0.9111,-3.43745 1.2813,-4.40625 0.3319,-0.86856 0.6907,-1.89299 1.0937,-2.96875 -0.076,0.20073 -0.034,0.12003 0.094,-0.21875 0.3792,-1.00952 0.814,-2.13255 1.2812,-3.3125 0.109,-0.27482 0.1715,-0.45996 0.1876,-0.5 0.355,-0.88635 0.7536,-1.84866 1.1562,-2.78125 0.1931,-0.44646 0.3835,-0.87937 0.5938,-1.34375 0.3103,-0.68665 0.6393,-1.35965 0.9687,-2.03125 0.1736,-0.35383 0.3324,-0.70579 0.5,-1.03125 0.1592,-0.30943 0.3221,-0.60905 0.5,-0.9375 0.3484,-0.6436 0.7112,-1.26756 1.0625,-1.84375 0.3532,-0.57924 0.697,-1.10666 1.0625,-1.625 0.3208,-0.45508 0.6822,-0.92219 1.0625,-1.375 0.052,-0.0613 0.06,-0.0548 0.094,-0.0937 0.1014,-0.11877 0.1413,-0.17091 0.125,-0.15625 0.079,-0.0946 0.1754,-0.20273 0.2187,-0.25 0.1728,-0.18822 0.2923,-0.3237 0.375,-0.40625 0.1582,-0.15862 0.2303,-0.23162 0.25,-0.25 -0.1608,0.15018 -0.1009,0.10624 0.1563,-0.125 9e-4,-9.9e-4 0.042,-0.0585 0.1562,-0.15625 0.1333,-0.11401 0.2763,-0.20634 0.375,-0.28125 0.1758,-0.13352 0.2741,-0.22442 0.3125,-0.25 0.1248,-0.0834 0.2646,-0.15827 0.4375,-0.25 0.1246,-0.066 0.2205,-0.0961 0.375,-0.15625 0.042,-0.0163 0.026,-0.0172 0.063,-0.0313 l 0,-0.0313 c -0.131,0.0486 -0.099,0.0471 0.1563,-0.0313 0.01,-0.004 0.023,0.003 0.031,0 0.1949,-0.0553 0.3643,-0.0897 0.4062,-0.0937 0.08,-0.008 0.1623,-0.0341 0.25,-0.0313 z m -0.75,10.21875 -2.75,0.21875 0,2 c -0.3173,0.55677 -0.638,1.08548 -0.9374,1.71875 -1.2987,2.74605 -2.4069,6.06875 -3.375,9.75 -0.3293,1.25214 -0.6231,2.53739 -0.9063,3.8125 -0.5742,2.58492 -1.0961,5.30719 -1.5313,8.09375 -0.2213,1.41729 -0.388,2.8141 -0.5624,4.1875 -0.1768,1.39212 -0.3611,2.77909 -0.5,4.1875 -0.2108,2.13713 -0.3579,4.22312 -0.4688,6.28125 -0.1244,2.30705 -0.1644,4.5736 -0.1562,6.6875 0.01,1.30193 0.032,2.58382 0.094,3.8125 0.069,1.40585 0.1926,2.78012 0.3437,4.0625 l -0.031,0 c 0,0.0347 0,0.0231 0,0.0625 l 0,0.0313 0.031,0.0313 c 0.1908,1.57928 0.439,3.02148 0.7813,4.34375 l 0,0.0625 0.031,0.0625 c 0.072,0.23741 0.1612,0.54761 0.25,0.90625 0.061,0.24599 0.088,0.35965 0.094,0.375 0.043,0.19778 0.084,0.39606 0.125,0.59375 0.048,0.23248 0.082,0.5535 0.1563,0.96875 0,0.0126 0,0.0188 0,0.0313 0.07,0.38882 0.1487,0.71037 0.1874,0.9375 0.069,0.40924 0.1177,0.57976 0.094,0.4375 0.086,0.5073 0.1983,1.02679 0.2812,1.46875 0.092,0.4872 0.1753,0.98792 0.3438,1.5625 -0.06,-0.20483 -0.051,-0.12939 0.063,0.21875 0.158,0.48433 0.2833,1.01483 0.9063,1.71875 0.6229,0.70392 2.4281,1.39798 3.625,1 1.1968,-0.39798 1.6128,-1.01605 2,-1.53125 0.3871,-0.5152 0.708,-1.07526 1.0312,-1.71875 0.199,-0.40385 0.396,-0.85512 0.5938,-1.3125 0.052,-0.0994 0.038,-4.7e-4 0.094,-0.125 l 0,-0.0313 0,-0.0313 c 0.1704,-0.39839 0.2181,-0.56604 0.1875,-0.5 0.01,-0.0112 0.026,-0.0198 0.031,-0.0313 0.1584,-0.3749 0.35,-0.87949 0.5,-1.25 0.268,-0.67166 0.5839,-1.45158 0.9063,-2.3125 0.2564,-0.68459 0.5244,-1.44129 0.7813,-2.21875 0.082,-0.24958 0.1042,-0.34495 0.094,-0.3125 0.2213,-0.68208 0.4121,-1.34424 0.5937,-1.96875 0.039,-0.13551 0.1049,-0.36138 0.1876,-0.65625 0.1643,-0.58628 0.325,-1.15479 0.4687,-1.71875 0.1838,-0.72121 0.3677,-1.43165 0.5313,-2.15625 l 0,-0.0313 c -0.014,0.0607 0.011,-0.0172 0.062,-0.25 0.099,-0.44551 0.1874,-0.88652 0.2813,-1.34375 0.075,-0.36533 0.145,-0.77233 0.2187,-1.15625 0.1084,-0.56391 0.2393,-1.11266 0.3438,-1.71875 0.046,-0.26582 0.084,-0.53495 0.125,-0.78125 0.1191,-0.72731 0.2138,-1.45864 0.3125,-2.15625 0.019,-0.13088 0.039,-0.29908 0.063,-0.46875 0.1089,-0.79478 0.2168,-1.59431 0.3125,-2.4375 0,-0.0213 0,-0.0412 0,-0.0625 0.013,-0.1461 0.023,-0.29024 0,-0.0937 -0.01,0.0655 0.01,-0.1349 0,-0.0313 0.098,-0.87637 0.2061,-1.72723 0.2813,-2.59375 0,0.0485 0.01,-0.0383 0.031,-0.28125 l 0,-0.0313 c 0.2157,-2.56533 0.331,-5.14876 0.375,-7.71875 0.081,-4.74927 -0.1462,-9.47369 -0.6562,-13.9375 -0.3676,-3.21605 -0.9077,-6.26548 -1.5938,-9.15625 0,-0.0248 0,-0.0379 0,-0.0625 -0.024,-0.099 -0.039,-0.21399 -0.063,-0.3125 -0.1531,-1.358 -0.2674,-2.53939 -0.4687,-3.5 -0.1116,-0.53199 -0.2201,-1.01684 -0.5313,-1.65625 -0.1556,-0.3197 -0.344,-0.70875 -0.8437,-1.15625 -0.4998,-0.4475 -1.4948,-0.89102 -2.4376,-0.8125 z M 1684.5,154.3125 c 0.2118,1.28829 0.5013,2.45676 0.6562,3.8125 0.4776,4.17917 0.6709,8.6568 0.5938,13.15625 -0.042,2.44385 -0.1713,4.89071 -0.375,7.3125 0.01,-0.0548 -0.01,0.0448 -0.031,0.28125 -0.073,0.84668 -0.1585,1.67985 -0.25,2.5 l 0,0.0313 c -0.034,0.34181 -0.031,0.50063 -0.031,0.5 -0.076,0.63363 -0.1599,1.24863 -0.25,1.90625 -0.017,0.12259 -0.04,0.2769 -0.063,0.4375 -0.098,0.69279 -0.2072,1.38772 -0.3125,2.03125 -0.042,0.25196 -0.085,0.48919 -0.125,0.71875 -0.092,0.53545 -0.1734,1.06413 -0.2813,1.625 -0.066,0.34382 -0.1459,0.70777 -0.2187,1.0625 -0.086,0.41981 -0.1881,0.86202 -0.2813,1.28125 0.015,-0.0659 -0.011,-0.008 -0.062,0.21875 -0.1547,0.68538 -0.3026,1.37918 -0.4688,2.03125 -0.1411,0.55358 -0.2961,1.05808 -0.4375,1.5625 -0.033,0.11909 -0.077,0.35065 -0.1563,0.625 -0.1873,0.64383 -0.3545,1.23667 -0.5312,1.78125 -0.077,0.23779 -0.1088,0.32673 -0.094,0.28125 -0.182,0.55109 -0.4101,1.14195 -0.625,1.71875 -0.053,-0.20702 -0.088,-0.39165 -0.1562,-0.625 -0.01,-0.0268 -0.024,-0.0667 -0.031,-0.0937 -0.2438,-0.96001 -0.4652,-2.10325 -0.625,-3.40625 0,-0.0349 0,-0.0229 0,-0.0625 l 0,-0.0313 0,-0.0313 c -0.1329,-1.11426 -0.216,-2.36321 -0.2813,-3.6875 -0.056,-1.11196 -0.087,-2.32935 -0.094,-3.5625 -0.01,-2.01308 0.039,-4.13859 0.1562,-6.3125 0.1063,-1.97243 0.2357,-3.98524 0.4375,-6.03125 0.1315,-1.33347 0.2963,-2.67379 0.4687,-4.03125 0.1748,-1.37618 0.3597,-2.732 0.5626,-4.03125 0.4132,-2.64652 0.9197,-5.24715 1.4687,-7.71875 0.2784,-1.25315 0.549,-2.44162 0.8437,-3.5625 0.1754,-0.66697 0.4094,-1.05468 0.5938,-1.6875 z m -52.9062,7.03125 c 0.095,0.007 0.1681,-0.0199 0.2812,0 0.075,0.0132 0.1671,0.0649 0.25,0.0937 -0.096,-0.0185 -0.1911,-0.0167 -0.2812,-0.0313 -0.077,-0.0123 -0.1813,-0.0576 -0.25,-0.0625 z m -1.3126,5.84375 c 0.3081,0.23178 0.6315,0.47525 0.9688,0.75 0.7439,0.60618 1.786,1.50921 2.8438,2.46875 0.4607,0.41814 0.8752,0.81468 1.4374,1.34375 1e-4,3e-5 0.058,0.0284 0.063,0.0313 1.1159,1.05106 2.3281,2.23223 3.6562,3.5625 1.3431,1.3453 2.7892,2.82962 4.3125,4.4375 0.6767,0.71437 1.3864,1.48537 2.1563,2.34375 l 0,0.0313 c 0.1096,0.12216 0.1933,0.18266 0.2812,0.28125 0.2374,0.26636 0.5491,0.65187 0.9062,1.0625 l 0.031,0 c 0.1436,0.16452 0.2109,0.23537 0.2187,0.25 0.349,0.40189 0.6671,0.7921 1,1.1875 l 0.031,0 c 0.062,0.0728 0.051,0.0772 0.031,0.0625 0.3833,0.45754 0.8303,1.02111 1.3124,1.625 l 0,0.0313 c 0,0.005 0.052,0.0183 0.063,0.0313 -5e-4,0.002 0.025,0.0194 0.031,0.0313 0.027,0.0329 0.011,0.0297 0.063,0.0937 l 0,0.0313 c 0.015,0.0152 0.092,0.0647 0.094,0.0625 0.05,0.0488 0.1301,0.17019 0.094,0.125 0.1338,0.16661 0.2303,0.27974 0.2812,0.34375 0.3596,0.45156 0.7287,0.9322 1.0938,1.40625 0.6323,0.82103 1.2353,1.60992 1.8125,2.40625 0.029,0.0398 0.1186,0.14864 0.2813,0.375 0.1279,0.1781 0.2478,0.38191 0.375,0.5625 -0.395,-0.43589 -0.778,-0.84606 -1.125,-1.21875 -0.4175,-0.44802 -0.8449,-0.89575 -1.2813,-1.34375 -0.01,-0.009 0.01,-0.0231 0,-0.0313 -0.1522,-0.1564 -0.2726,-0.27156 -0.3125,-0.3125 -0.3983,-0.40923 -0.7952,-0.7965 -1.1562,-1.15625 -0.3651,-0.36324 -0.7573,-0.77252 -1.2188,-1.21875 -0.9242,-0.89451 -1.8842,-1.81676 -2.9062,-2.75 -0.4537,-0.41426 -0.8797,-0.78782 -1.3438,-1.15625 -0.018,-0.0145 -0.1079,-0.0626 -0.1875,-0.125 -0.013,-0.01 -0.019,-0.0214 -0.031,-0.0313 -0.3691,-0.2847 -0.7237,-0.55362 -1.0312,-0.75 0,-0.003 -0.027,0.003 -0.031,0 -0.063,-0.0406 -0.1738,-0.1057 -0.3126,-0.1875 -0.012,-0.007 -0.019,-0.0242 -0.031,-0.0313 -0.2188,-0.12791 -0.441,-0.25994 -0.6875,-0.375 l -0.031,0 c -0.5609,-0.25403 -1.0858,-0.40222 -1.625,-0.46875 -0.1679,-0.0207 -0.3582,0.0634 -0.5312,0.0625 -0.051,-0.01 -0.067,-0.0225 -0.25,-0.0313 -0.043,-0.002 -0.13,-10e-4 -0.1875,0 0.066,0.004 0.1372,0.029 0.1875,0.0313 0.1345,0.006 0.1296,0.0228 0.1875,0.0313 -0.439,0.005 -0.8878,-0.0168 -1.3437,0.15625 -0.01,0.003 -0.023,-0.003 -0.031,0 -0.043,0.0168 -0.082,0.0126 -0.125,0.0313 l -0.063,0.0313 -0.031,0.0313 c -0.013,0.005 -0.094,0.0311 -0.094,0.0313 l -0.031,0 c -0.6896,0.35919 -0.8994,0.68056 -0.9376,0.71875 l -0.031,0 0,0.0313 c 0.02,-0.0204 -0.2709,0.17392 -0.625,0.8125 -0.5358,0.9655 -0.6005,1.78899 -0.5938,2.59375 0.01,0.41904 0.052,0.80116 0.094,1.125 0.039,0.29776 0.076,0.71207 0.1875,1.21875 0.1002,0.46233 0.1956,0.69197 0.2187,0.78125 l 0,0.0313 c 0.1797,0.67805 0.4079,1.39808 0.6563,2.125 0,0.009 0,0.0226 0,0.0313 0.8411,2.45029 2.0392,5.12877 3.2813,7.5 0.2651,0.50612 0.5619,0.95622 0.8437,1.40625 l -0.031,0 c -0.039,-0.0633 0.01,0.003 0.125,0.1875 0.1222,0.19265 0.1766,0.29567 0.1876,0.3125 l 0.031,0 c 0.047,0.071 0.067,0.10128 0.063,0.0937 0.1587,0.24107 0.3195,0.45344 0.4375,0.625 0.01,0.007 -0.01,0.024 0,0.0313 0.3993,0.58404 0.8156,1.1111 1.2188,1.65625 0.03,0.0401 0.1271,0.20615 0.25,0.375 0.01,0.0117 0.049,0.0738 0.062,0.0937 0.045,0.0676 0.1064,0.16268 0.2188,0.3125 0.013,0.0171 0.017,0.0131 0.031,0.0313 0.105,0.13703 0.1848,0.2306 0.25,0.3125 l -0.1874,0 4.1874,4.9375 c 6.5602,7.74515 14.6975,16.21619 18.375,19.9375 -3.3574,-2.49682 -6.914,-4.97864 -9.125,-6.875 -2.6128,-2.24117 -6.7728,-5.28547 -10.9062,-8.90625 -4.1334,-3.62078 -8.134,-7.83097 -10.2188,-11.75 -0.2587,-0.48633 -0.5235,-1.03373 -0.7812,-1.625 -0.042,-0.0966 -0.097,-0.25026 -0.1875,-0.46875 -0.1082,-0.26194 -0.1622,-0.34285 -0.125,-0.25 -0.2747,-0.68643 -0.5449,-1.44094 -0.7813,-2.1875 -0.074,-0.23115 -0.1084,-0.35552 -0.125,-0.40625 0,-0.007 0,-0.0241 0,-0.0313 -0.06,-0.19982 -0.1544,-0.46791 -0.25,-0.8125 l 0,-0.0313 c -0.055,-0.1959 -0.085,-0.34961 -0.125,-0.5 -0.018,-0.0682 -0.052,-0.18057 -0.094,-0.34375 -0.06,-0.23417 -0.1109,-0.37974 -0.125,-0.4375 l 0,-0.0313 c -0.03,-0.11994 -0.054,-0.18397 -0.063,-0.21875 -0.084,-0.35168 -0.1469,-0.69796 -0.2188,-1.03125 -0.1,-0.45802 -0.2079,-0.94847 -0.3124,-1.5 -0.085,-0.45261 -0.1425,-0.82759 -0.1876,-1.09375 0.015,0.0865 0.01,0.0361 -0.031,-0.1875 -0.058,-0.34523 -0.1186,-0.78046 -0.1875,-1.25 -0.04,-0.26892 -0.087,-0.53774 -0.125,-0.8125 0,-0.0258 0,-0.008 0,-0.0313 -0.037,-0.26328 -0.072,-0.41299 -0.063,-0.34375 -0.035,-0.25797 -0.07,-0.50026 -0.094,-0.6875 -0.039,-0.31529 -0.078,-0.66456 -0.125,-1.0625 -0.1648,-1.39908 -0.2816,-2.78617 -0.4062,-4.15625 -0.2402,-2.64304 -0.474,-5.16484 -0.7188,-7.46875 -9e-4,-0.0113 -0.01,-0.12738 -0.031,-0.34375 -0.061,-0.5557 -0.1041,-1.10169 -0.1875,-1.71875 -0.082,-0.61242 -0.1949,-1.19171 -0.2813,-1.6875 -0.067,-0.38488 -0.095,-0.77438 -0.1562,-1.3125 -0.052,-0.4554 -0.071,-0.66671 -0.063,-0.5625 -0.012,-0.14604 -0.022,-0.33364 -0.031,-0.625 -0.01,-0.16214 0,-0.36475 0,-0.5625 0,-0.0493 0,-0.079 0,-0.125 z m 13,22.875 c 0.3832,0.36485 0.7789,0.72849 1.1563,1.09375 0.3591,0.34713 0.7283,0.73037 1.1563,1.15625 0.3883,0.38699 0.7672,0.75836 1.0937,1.09375 0.16,0.16393 0.2776,0.27647 0.3125,0.3125 0.4076,0.4181 0.8239,0.8575 1.2188,1.28125 0.4249,0.45634 0.8145,0.8682 1.1562,1.25 0.5551,0.62217 1.1124,1.28698 1.6562,1.9375 l 0.031,0 c 0.1304,0.15446 0.1676,0.19417 0.1563,0.1875 0.1228,0.13794 0.2413,0.28136 0.3437,0.40625 l -0.031,0 c 0.4698,0.57827 0.9592,1.18968 1.4376,1.8125 1.2399,1.61425 2.4021,3.29679 3.5,5.03125 0.5461,0.86268 1.0803,1.72703 1.5937,2.625 0.3102,0.5428 0.5575,0.99307 0.7813,1.40625 1.035,1.91081 2.0813,3.8287 3.0624,5.53125 -2.936,-3.16002 -5.9929,-6.52238 -8.75,-9.75 l -0.5312,-0.625 c -0.7533,-0.88952 -1.4636,-1.71466 -2.125,-2.53125 0,1.2e-4 0.01,-0.0262 0,-0.0313 -0.022,-0.0417 -0.087,-0.126 -0.1875,-0.25 -0.5193,-0.64142 -0.9927,-1.20662 -1.4375,-1.78125 -0.1612,-0.20921 -0.2758,-0.348 -0.3438,-0.4375 0.011,0.0143 -0.019,-0.0342 -0.125,-0.1875 l -0.031,-0.0625 -0.031,-0.0313 c -0.034,-0.0446 -0.1378,-0.20129 -0.3126,-0.4375 -0.4275,-0.57814 -0.8007,-1.07043 -1.0937,-1.5 -0.1514,-0.22069 -0.2907,-0.40324 -0.375,-0.53125 -0.048,-0.0729 -0.067,-0.10083 -0.063,-0.0937 -0.1113,-0.17117 -0.1622,-0.25937 -0.1562,-0.25 0.054,0.0837 0.01,0.0388 -0.094,-0.125 l 0,-0.0313 c -0.2588,-0.41325 -0.4697,-0.7633 -0.5938,-1 -0.9072,-1.73204 -1.6899,-3.67223 -2.375,-5.46875 z m 26.4688,30.625 c 0.2184,0.90823 0.643,2.50151 0.8125,3.28125 0.037,0.16859 0.029,0.21359 0.063,0.375 -0.6846,-0.69351 -1.8777,-1.96826 -2.875,-3 0.3129,0.0219 0.5654,0.12976 0.9688,0.0313 0.4548,-0.11115 0.7122,-0.43122 1.0312,-0.6875 z m -33.5625,25.59375 c -2.2179,0.0184 -4.503,0.76259 -6.2813,2.34375 -2.3667,2.10415 -3.3048,5.22062 -3.0937,8.21875 0.2111,2.99813 1.4849,5.98749 3.7187,8.5 2.2326,2.51123 5.0517,4.16364 8,4.71875 2.9484,0.55511 6.1707,-0.0575 8.5313,-2.15625 2.3589,-2.09723 3.3261,-5.1937 3.125,-8.1875 -0.2011,-2.9938 -1.4846,-5.98713 -3.7187,-8.5 -2.7959,-3.14482 -6.5427,-4.96859 -10.2813,-4.9375 z m 0.063,6 c 1.6733,-0.0139 3.9688,0.93787 5.7188,2.90625 1.4026,1.57768 2.1169,3.42213 2.2187,4.9375 0.1018,1.51537 -0.323,2.59948 -1.125,3.3125 -0.8003,0.71155 -1.9134,0.99981 -3.4063,0.71875 -1.4928,-0.28106 -3.2209,-1.20193 -4.625,-2.78125 -1.4029,-1.57804 -2.1425,-3.44208 -2.25,-4.96875 -0.1074,-1.52667 0.3308,-2.6064 1.125,-3.3125 0.5922,-0.52654 1.3151,-0.80394 2.3438,-0.8125 z m -60.8125,81.8125 c -0.3461,0.61173 -0.589,1.20471 -1.5625,2.1875 -1.3945,1.4078 -3.3374,2.93901 -5.625,4.21875 -4.5752,2.55948 -10.382,4.098 -16,2.6875 -4.4412,-1.11506 -8.1287,-3.62466 -11.2812,-7.1875 1.0938,1.05185 2.3021,1.98865 3.625,2.78125 10.1071,6.05558 21.6521,3.06194 29.1874,-3.46875 0.7308,-0.63328 1.0825,-0.79764 1.6563,-1.21875 z m -263.75,109.3125 0,0.0313 c -0.064,0.0133 -0.1306,0.0229 -0.1875,0.0313 0.05,-0.007 0.1119,-0.0416 0.1875,-0.0625 z"
         style="font-size:medium;font-style:normal;font-variant:normal;font-weight:normal;font-stretch:normal;text-indent:0;text-align:start;text-decoration:none;line-height:normal;letter-spacing:normal;word-spacing:normal;text-transform:none;direction:ltr;block-progression:tb;writing-mode:lr-tb;text-anchor:start;baseline-shift:baseline;color:#000000;fill:#000000;fill-opacity:1;stroke:none;stroke-width:6;marker:none;visibility:visible;display:inline;overflow:visible;enable-background:accumulate;font-family:Sans;-inkscape-font-specification:Sans"
         inkscape:connector-curvature="0" />
      <path
         style="fill:#ffffff"
         d="m 438.30961,198.63659 0,10.09375 c 36.65052,27.13942 102.70124,75.07093 100.5,77.6875 -2.17497,2.58534 -64.82377,-40.45306 -100.5,-63.59375 l 0,54.71875 c 33.97201,20.61099 94.20698,54.75627 92.21875,58.0625 -2.74255,4.56059 -35.68781,-17.93937 -63.90625,-33.0625 0,0 -14.7509,-8.54539 -28.3125,-15.875 l 0,54.375 c 3.79981,5.11948 7.84845,9.76896 11.96875,13.6875 l 3.71875,2.4375 c 3.11106,2.74653 6.29628,5.23999 9.59375,7.53125 l 11.78125,7.125 c 1.28085,0.66876 2.58571,1.30651 3.90625,1.9375 l 1.28125,0.84375 0.4375,-0.0313 c 17.85747,8.21779 39.4797,13.39425 68.5,20.15625 46.39965,10.81157 99.09375,2.25 99.09375,2.25 0,0 -3.13409,1.7971 -18,4.5 -14.8659,2.70289 -60.83262,4.96059 -82.90625,0.90625 -22.07362,-4.05434 -26.58597,1.79711 -57.21875,4.5 -30.58223,2.69843 -31.31007,2.03008 -52.15625,-0.4375 l 0,34.21875 38.125,0 c 10.91116,-2.03446 15.65757,-3.82238 16.125,-2.09375 0.12281,0.45414 -1.00847,1.20619 -2.90625,2.09375 l 253.87495,0 c 1.2462,-1.14463 2.4299,-2.26783 3.5,-3.375 13.0641,-13.51446 22.5313,-39.6225 22.5313,-71.15625 0,-31.53374 0.681,-42.12834 0.9063,-50.6875 0.2252,-8.55916 7.6461,-12.62259 11.25,-14.875 1.2101,-0.75639 2.9677,-1.51561 4.75,-2.21875 5.1384,-0.5426 4.6874,-1.6875 4.6874,-1.6875 l 2.5,-0.8125 -3.0312,-1.53125 -5.8438,-3.0625 c 0,0 -4.8436,-2.64667 -6.6562,-3.75 -5.1805,-3.15337 -7.9038,-11.26753 -10.1562,-18.25 -2.2526,-6.98247 -6.7515,-16.42377 -22.9688,-23.40625 -16.2174,-6.98247 -31.9932,-2.26446 -44.1562,11.25 -12.1631,13.51447 -18.3381,41.04966 -28.5313,49.96875 -10.19324,8.91909 -14.03125,8.28125 -14.03125,8.28125 0,0 36.33125,-56.68715 -10.8125,-112.75 -1.09044,-1.29674 -2.22372,-2.62368 -3.375,-3.96875 l -43.15625,0 c 2.84917,2.47077 5.3827,4.73874 7.125,6.4375 10.26582,10.00926 22.80916,26.74425 26.5625,44.59375 5.5325,26.3105 -0.93637,50.70175 1.78125,75.84375 1.19877,11.09038 4.65289,25.1494 13.53125,30.46875 8.87836,5.31935 18.9303,2.70002 25.6875,-3.15625 6.7572,-5.85626 8.5702,-4.04906 7.2188,0.90625 -1.3515,4.9553 -14.3534,15.45698 -27.50005,12.15625 -13.28491,-3.33545 -20.66979,-17.5208 -24.46875,-33 -4.37464,-17.82486 1.11832,-54.8391 -7.0625,-80.5 -4.39528,-13.78673 -9.31039,-26.37202 -21.9375,-37.4375 -6.07338,-5.32985 -12.48255,-10.79134 -19.03125,-16.3125 l -70.34375,0 c 13.20669,10.42491 22.21704,18.2225 21.40625,19.78125 -0.99064,1.90453 -15.26629,-7.20771 -33.53125,-19.78125 l -62.0625,0 z m 301.7187,70.4375 c 2.7059,-0.0225 5.7271,1.34965 8,3.90625 3.6368,4.09055 4.0047,9.6585 0.8438,12.46875 -3.1609,2.81025 -8.6445,1.77805 -12.2812,-2.3125 -3.6368,-4.09055 -4.0359,-9.68975 -0.875,-12.5 1.1853,-1.05385 2.6891,-1.549 4.3124,-1.5625 z"
         id="path9389"
         inkscape:connector-curvature="0" />
      <path
         style="fill:#ffffff"
         d="m 789.15877,147.0797 c -7.35063,0.67765 -13.069,17.74866 -15.62499,24.4375 -2.43729,6.37821 -5.26684,25.60081 -3.78125,37.34375 1.54419,12.20615 5.81781,26.05565 7.53125,33.93749 1.71344,7.88186 0.70496,8.89247 -3.75,4.43751 -4.45496,-4.45497 -22.98042,-23.64728 -26.75,-30.84375 -3.76958,-7.19647 -7.19436,-17.79021 0.6875,-10.59375 7.88185,7.19647 13.35754,13.68171 17.8125,21.90624 4.45496,8.22453 9.26852,16.80025 5.15625,2.75 -4.11227,-14.05024 -14.73785,-26.7389 -20.90625,-33.24999 -6.1684,-6.51109 -10.97725,-10.94387 -13.71876,-13 -2.74151,-2.05613 -5.80826,-1.72559 -4.4375,6.15625 1.37076,7.88185 0.8712,22.15963 5.90625,31.625 4.80029,9.02402 17.00537,17.34996 21.84376,21.49999 4.88703,4.19176 14.40431,9.99851 17.125,14.03126 3.09629,4.58951 6.18961,18.51167 6.87499,22.28125 0.4377,2.40736 0.85031,6.7421 1.625,11.15625 0.61757,2.78588 1.34018,5.59014 1.6875,7.09375 0.017,0.0518 0.0453,0.10479 0.0625,0.15625 2.05613,6.16841 5.38485,4.08437 4.75,-1.3125 -0.23272,-0.99075 -0.49001,-2.09607 -0.65625,-2.875 -2.7598,-11.5702 -7.69772,-26.06236 -5.09375,-40.59375 2.87356,-16.03582 14.54507,-31.11433 16.90625,-46.53125 1.47123,-9.60609 1.15204,-57.00595 -11.78125,-59.71875 -0.25166,-0.0528 -0.50179,-0.0802 -0.75,-0.0937 -0.24046,-0.0131 -0.48163,-0.0219 -0.71875,0 z m 0.0313,16.15625 c 0.51403,-0.0428 0.78231,1.75955 1.125,4.84375 3.6975,15.18256 2.79841,37.33961 -2.65625,51.90625 -4.96639,13.26271 -3.93208,4.92244 -5.78125,-1.1875 -3.20631,-12.38043 0.65487,-44.8045 7.3125,-55.5625 z"
         id="path9387"
         inkscape:connector-curvature="0"
         sodipodi:nodetypes="sssssssssssssssscccccssccsccscc" />
      <path
         style="fill:#339900"
         d="m 383.34086,393.73034 c 0.15776,3.00789 0.92696,15.07015 3.53125,22.625 2.97079,8.61804 11.64579,24.74152 15.03125,26.59375 3.38547,1.85224 28.72802,4.93151 68.5625,-1.25 15.21617,-2.36124 21.54819,-5.14258 22.09375,-3.125 0.54557,2.01757 -22.93619,9.52965 -34.125,11.71875 -9.38918,1.83702 -43.9126,7.19158 -45.625,11.75 -1.7124,4.55842 10.79621,17.33184 18.875,25.9375 4.45687,4.74755 15.53464,17.35341 19.375,16.71875 3.84036,-0.63465 17.75364,-24.84042 34.40625,-35.1875 14.24838,-8.85321 26.16716,-10.26905 27.4375,-8.78125 1.27034,1.4878 -12.87093,8.02729 -18.5625,13 -8.55395,7.47355 -17.99328,16.19334 -23.125,25.03125 -5.13151,8.83792 -6.34552,16.46132 -5.125,18.1875 4.46008,4.65161 35.10495,18.47801 37.875,17.8125 2.77005,-0.66551 6.01674,-27.80998 17.28125,-42.40625 12.21151,-15.82337 18.05871,-19.07658 23.5625,-21.3125 4.98067,-2.0234 5.71898,-1.89602 6.21875,-0.1875 0.49977,1.70852 -4.16703,2.05635 -11.21875,11 -7.05172,8.94364 -14.09328,23.06903 -14.78125,36.3125 -0.36082,6.94572 0.35584,21.54219 4.71875,23.6875 4.36291,2.14535 48.73669,2.21875 51.0625,2.21875 3.37861,0 4.94761,0.45002 1.34375,-5.40625 -3.60385,-5.85626 -11.9375,-13.73192 -11.9375,-30.625 0,-16.89307 18.2587,-26.82321 28.84375,-31.78125 10.45338,-4.89637 53.26428,-2.4625 68,-4.0625 40.8158,-4.43171 66.9048,-21.39179 79.9687,-34.90625 9.0062,-9.31667 16.3048,-24.62401 19.9688,-43.5625 l -221.78125,0 c 1.4367,0.33597 2.80683,0.65645 4.28125,1 46.39965,10.81157 99.09375,2.25 99.09375,2.25 0,0 -3.13409,1.7971 -18,4.5 -14.8659,2.70289 -60.83262,4.96059 -82.90625,0.90625 -22.07362,-4.05434 -26.58597,1.79711 -57.21875,4.5 -30.63278,2.70289 -31.30258,2.04015 -52.25,-0.4375 -17.38947,-2.05682 -42.63482,-9.96929 -51.09375,-12.71875 l -3.78125,0 z"
         id="path9393"
         inkscape:connector-curvature="0" />
      <path
         style="fill:#000000"
         d="m 416.46586,62.417843 c -0.0875,0.03957 -0.16904,0.115509 -0.25,0.25 -0.16191,0.268981 -0.3007,0.729683 -0.4375,1.34375 -0.34199,1.535168 -0.61109,4.093769 -0.8125,7.28125 -0.6445,10.199938 -0.6355,27.002841 -0.34375,38.624997 0.14588,5.81108 0.35763,10.32372 0.59375,12.06251 0.059,0.4347 0.59648,1.15824 1.53125,2.15625 0.46739,0.49899 1.02345,1.06188 1.6875,1.6875 0.66405,0.6256 1.43538,1.31975 2.28125,2.0625 3.38349,2.97097 8.14496,6.84656 13.84375,11.31249 4.46932,3.50244 9.59673,7.44221 14.96875,11.53125 1.4778,1.12486 2.88225,2.18861 4.40625,3.34375 7.06995,5.35887 14.57624,11.01486 22.0625,16.65625 3.7395,2.81796 7.45989,5.63161 11.125,8.40625 3.6719,2.77974 7.27185,5.49602 10.75,8.15625 3.47949,2.66125 6.83392,5.22217 10,7.6875 9.48008,7.3815 17.27753,13.70702 21.8125,17.96875 0.75583,0.71029 1.40225,1.3783 1.96875,1.96875 0.28854,0.30041 0.54441,0.57608 0.78125,0.84375 0.23314,0.26349 0.44383,0.48818 0.625,0.71875 0.18117,0.23057 0.34141,0.45979 0.46875,0.65625 0.38202,0.58939 0.51082,1.02014 0.375,1.28125 -0.0226,0.0435 -0.0575,0.0928 -0.0937,0.125 -0.0363,0.0322 -0.0753,0.0415 -0.125,0.0625 -0.69803,0.29503 -2.6945,-0.4838 -5.71875,-2.125 -0.86063,-0.46664 -1.79407,-0.99519 -2.8125,-1.59375 -1.64454,-0.96655 -3.52262,-2.13425 -5.53125,-3.40625 -0.47781,-0.30253 -0.90986,-0.58808 -1.40625,-0.90625 -0.007,-0.005 -0.0242,0.005 -0.0313,0 -1.28532,-0.82399 -2.63104,-1.70403 -4.03125,-2.625 -0.007,-0.004 -0.0245,0.004 -0.0313,0 -2.81689,-1.85299 -5.83327,-3.8853 -9.03125,-6.0625 -9.60011,-6.53579 -20.65717,-14.32958 -31.6875,-22.15625 -7.34178,-5.20938 -14.66426,-10.43313 -21.53125,-15.3125 -0.007,-0.005 -0.024,0.005 -0.0313,0 -3.42915,-2.43658 -6.73028,-4.81206 -9.875,-7.03125 -0.007,-0.005 -0.0238,0.005 -0.0313,0 -3.15062,-2.22331 -6.12127,-4.30428 -8.875,-6.21875 -2.7632,-1.92105 -5.27977,-3.66862 -7.53125,-5.1875 -1.11513,-0.75239 -2.15564,-1.45649 -3.125,-2.09375 -0.008,-0.005 -0.0232,0.005 -0.0313,0 -0.975,-0.64083 -1.84298,-1.206 -2.65625,-1.71875 -2.05756,-1.29727 -3.57216,-2.15025 -4.4375,-2.5 -0.17407,-0.0716 -0.31515,-0.1259 -0.4375,-0.15625 -0.12235,-0.0303 -0.21236,-0.0435 -0.28125,-0.0313 -0.0344,0.006 -0.073,0.0142 -0.0937,0.0313 -0.013,0.0149 -0.0261,0.0414 -0.0313,0.0625 -0.10954,0.45038 -0.21367,1.51153 -0.3125,3.03125 -0.19767,3.03945 -0.361,7.9289 -0.46875,13.4375 -0.0539,2.7543 -0.10538,5.64296 -0.125,8.5625 -0.0392,5.83907 0.0114,11.71445 0.15625,16.40625 0.0362,1.17295 0.0748,2.27418 0.125,3.28125 0.12542,2.51767 0.30786,4.46238 0.53125,5.53125 0.0447,0.21377 0.076,0.38956 0.125,0.53125 0.0161,0.0467 0.0799,0.13048 0.15625,0.21875 0.0552,0.0674 0.0921,0.0923 0.1875,0.1875 0.10039,0.10133 0.25953,0.24165 0.40625,0.375 0.17052,0.15488 0.36263,0.33445 0.59375,0.53125 0.22335,0.19019 0.56624,0.45982 0.84375,0.6875 0.94511,0.7754 2.07137,1.66795 3.59375,2.84375 1.49743,1.15756 3.25623,2.46569 5.25,3.96875 0.81746,0.6164 1.63954,1.26924 2.53125,1.9375 0.62732,0.46998 1.30714,0.94352 1.96875,1.4375 2.98191,2.22723 6.54358,4.88204 10.125,7.53125 1.46873,1.08621 2.60802,1.95103 4.15625,3.09375 3.59287,2.65269 6.85112,5.04176 10.78125,7.9375 0.7174,0.52855 1.39935,1.02787 2.125,1.5625 1.70009,1.25262 3.51237,2.59426 5.25,3.875 l 149.78125,0 c -0.34651,-0.50437 -0.69685,-1.00061 -1.0625,-1.5 -0.36475,-0.49831 -0.74016,-1.00665 -1.125,-1.5 -0.37992,-0.48642 -0.787,-0.98724 -1.1875,-1.46875 -0.20802,-0.25021 -0.41122,-0.50111 -0.625,-0.75 -0.20008,-0.23286 -0.41976,-0.45582 -0.625,-0.6875 -0.42818,-0.48324 -0.86107,-0.99066 -1.3125,-1.46875 -0.44717,-0.47318 -0.93527,-0.93816 -1.40625,-1.40625 -0.23775,-0.23633 -0.47473,-0.48374 -0.71875,-0.71875 -0.24009,-0.23112 -0.50372,-0.45765 -0.75,-0.6875 -0.50109,-0.4676 -1.00376,-0.944 -1.53125,-1.40625 -2.10532,-1.84758 -4.23757,-3.68929 -6.40625,-5.5625 -0.99583,-0.86019 -2.02308,-1.72859 -3.03125,-2.59375 -5.55476,-4.76664 -11.259,-9.60925 -17.125,-14.5 -27.74666,-23.13366 -58.3881,-47.41156 -86.21875,-70.40624 0,0 -4.22274,-3.67889 -10.65625,-9.21876 -3.20857,-2.76294 -6.9519,-5.97888 -11,-9.4375 -4.05382,-3.4635 -8.39716,-7.14143 -12.78125,-10.843747 -4.37779,-3.697075 -8.7711,-7.396666 -12.96875,-10.875 -2.10594,-1.745066 -4.16075,-3.427647 -6.125,-5.03125 -1.95819,-1.598756 -3.80866,-3.098805 -5.5625,-4.5 -5.28232,-4.220215 -9.48116,-7.393127 -11.75,-8.78125 -0.37919,-0.232804 -0.7004,-0.432665 -0.96875,-0.5625 -0.26835,-0.129835 -0.47545,-0.199028 -0.625,-0.21875 -0.076,-0.01002 -0.1437,-0.01979 -0.1875,0 z"
         id="path9395"
         inkscape:connector-curvature="0" />
      <path
         style="fill:#000000"
         d="m 525.15336,76.949093 c -0.29658,0.119141 -0.58926,0.947713 -0.875,2.3125 -0.28574,1.364787 -0.56592,3.268041 -0.8125,5.5625 -0.12329,1.14723 -0.23556,2.398348 -0.34375,3.71875 -0.21638,2.640805 -0.3965,5.590985 -0.53125,8.6875 -0.13475,3.096517 -0.22519,6.326247 -0.25,9.562497 -0.0248,3.23625 0.0115,6.47124 0.125,9.53125 0.11345,3.06002 0.31372,5.96346 0.59375,8.53126 0.07,0.64194 0.13723,1.2449 0.21875,1.84375 0.16305,1.19768 0.35073,2.31685 0.5625,3.31249 0.31766,1.49346 0.68776,2.72848 1.125,3.65625 1.07365,2.27814 2.6502,4.39466 4.5,6.375 4.06955,4.35675 9.50854,8.11078 14.15625,11.875 5.57953,4.51891 11.77335,9.47865 18.0625,14.53125 6.28915,5.05261 12.66611,10.20141 18.6875,15.09375 0.006,0.005 0.0252,-0.005 0.0313,0 3.00379,2.44062 5.90172,4.82268 8.65625,7.09375 0.006,0.005 0.0253,-0.005 0.0313,0 2.75319,2.27007 5.33631,4.4545 7.71875,6.46875 4.78396,4.04431 8.69329,7.47594 11.25,9.96875 0.64161,0.62559 1.31205,1.292 1.96875,1.96875 0.0527,0.0543 0.1035,0.10161 0.15625,0.15625 0.6071,0.62827 1.19732,1.26805 1.8125,1.9375 0.12532,0.13637 0.24945,0.26823 0.375,0.40625 0.545,0.59905 1.07747,1.21442 1.625,1.84375 0.18646,0.21432 0.37597,0.40728 0.5625,0.625 0.49045,0.57218 0.97929,1.15506 1.46875,1.75 0.242,0.29426 0.47738,0.57537 0.71875,0.875 0.43167,0.53542 0.85271,1.07299 1.28125,1.625 0.29792,0.38396 0.57919,0.76459 0.875,1.15625 0.0715,0.0946 0.1474,0.18625 0.21875,0.28125 0.64863,0.86371 1.2721,1.75748 1.90625,2.65625 0.57692,0.81766 1.15793,1.62415 1.71875,2.46875 0.12498,0.18821 0.25094,0.37302 0.375,0.5625 0.2253,0.34416 0.43418,0.68298 0.65625,1.03125 0.40719,0.63824 0.7924,1.28615 1.1875,1.9375 0.0387,0.0638 0.0864,0.12358 0.125,0.1875 l 37.84375,0 c -0.0199,-0.0427 -0.0425,-0.0822 -0.0625,-0.125 -0.043,-0.0919 -0.0816,-0.18932 -0.125,-0.28125 -0.40092,-0.84856 -0.81704,-1.71062 -1.25,-2.5625 -0.006,-0.0124 -0.0249,-0.0188 -0.0313,-0.0313 -0.36654,-0.72043 -0.76621,-1.43371 -1.15625,-2.15625 -0.0778,-0.14401 -0.14003,-0.29341 -0.21875,-0.4375 -0.0622,-0.11393 -0.12469,-0.22977 -0.1875,-0.34375 -0.41533,-0.75319 -0.83959,-1.49493 -1.28125,-2.25 -0.1374,-0.23506 -0.26627,-0.48353 -0.40625,-0.71875 -0.14398,-0.24166 -0.32202,-0.47691 -0.46875,-0.71875 -0.45833,-0.75539 -0.9207,-1.52445 -1.40625,-2.28125 -0.641,-0.99908 -1.3104,-1.99899 -2,-3 -0.6896,-1.001 -1.38547,-1.99772 -2.125,-3 -0.73953,-1.00227 -1.52172,-2.02834 -2.3125,-3.03125 -0.0958,-0.12153 -0.18466,-0.25346 -0.28125,-0.375 -0.69632,-0.87606 -1.41963,-1.74902 -2.15625,-2.625 -1.22949,-1.46209 -2.50608,-2.9456 -3.8125,-4.46875 -6.5321,-7.61574 -13.9667,-15.97278 -21.875,-24.59375 -6.32664,-6.89677 -12.94264,-13.96002 -19.625,-21 -6.68236,-7.03997 -13.42861,-14.04265 -20,-20.78125 -6.57139,-6.73859 -12.97503,-13.22609 -18.96875,-19.21875 -8.99057,-8.98898 -17.05929,-16.877241 -23.4375,-22.937497 -3.25187,-3.089767 -5.89252,-5.497202 -8.15625,-7.53125 -0.6968,-0.626227 -1.50321,-1.392061 -2.09375,-1.90625 -0.007,-0.0058 -0.0246,0.0058 -0.0313,0 -0.62693,-0.5457 -1.18783,-1.025252 -1.6875,-1.4375 -1.02252,-0.843622 -1.74441,-1.384546 -2.1875,-1.625 -0.0485,-0.02701 -0.0834,-0.04262 -0.125,-0.0625 -0.0416,-0.01884 -0.0911,-0.05156 -0.125,-0.0625 -0.0748,-0.02411 -0.15043,-0.04614 -0.1875,-0.03125 z"
         id="path9397"
         inkscape:connector-curvature="0" />
      <path
         style="fill:#000000"
         d="m 414.18461,208.57409 c -0.083,0.0105 -0.16139,0.0409 -0.1875,0.0937 -0.0655,0.1325 -0.13084,0.32187 -0.1875,0.53125 -0.0456,0.16779 -0.0848,0.37903 -0.125,0.59375 -0.022,0.11946 -0.0421,0.27315 -0.0625,0.40625 -0.0796,0.51904 -0.13147,1.10206 -0.1875,1.8125 -0.12945,1.64153 -0.19922,3.75065 -0.21875,6.1875 -0.01,1.21844 -0.0135,2.51704 0,3.875 0.0135,1.35797 0.0285,2.79202 0.0625,4.25 0.002,0.0764 -0.002,0.14217 0,0.21875 l 30.75,0 c -4.0373,-2.64279 -7.78543,-5.08379 -11.21875,-7.28125 -2.54618,-1.63048 -4.81998,-3.06157 -6.9375,-4.375 -0.78061,-0.48428 -1.47229,-0.90793 -2.1875,-1.34375 -0.41272,-0.25169 -0.73509,-0.45269 -1.125,-0.6875 -0.25819,-0.15556 -0.47071,-0.2582 -0.71875,-0.40625 -0.74074,-0.44209 -1.4788,-0.87805 -2.125,-1.25 -0.38602,-0.22219 -0.68069,-0.39787 -1.03125,-0.59375 -0.42767,-0.23884 -0.90905,-0.5211 -1.28125,-0.71875 -0.0584,-0.031 -0.0992,-0.0325 -0.15625,-0.0625 -0.63789,-0.33632 -1.13535,-0.60961 -1.59375,-0.8125 -0.14055,-0.0627 -0.25155,-0.10624 -0.375,-0.15625 -0.11084,-0.045 -0.18446,-0.0592 -0.28125,-0.0937 -0.1445,-0.0529 -0.26074,-0.0945 -0.375,-0.125 -0.0525,-0.0137 -0.0791,-0.0225 -0.125,-0.0313 -0.13819,-0.0305 -0.22945,-0.0418 -0.3125,-0.0313 z"
         id="path9399"
         inkscape:connector-curvature="0" />
      <path
         style="fill:#ff0000"
         d="m 413.74711,153.29284 c -0.3444,14.04852 -0.33091,34.02496 0.71875,37.0625 1.03271,2.98856 127.3663,92.46965 124.34375,96.0625 -3.02255,3.59285 -123.14137,-81.13217 -124.8125,-77.75 -2.09493,4.23998 0.4071,49.10844 1.75,53.65625 1.58527,5.36861 117.52381,68.72066 114.78125,73.28125 -2.74255,4.56059 -35.68781,-17.93937 -63.90625,-33.0625 0,0 -48.45039,-28.19256 -50.34375,-25.96875 -1.89336,2.22382 -0.71875,8.71875 -0.71875,8.71875 1.34635,23.81633 17.42701,52.99246 34.71875,69.4375 l 3.71875,2.4375 c 3.11106,2.74653 6.29628,5.23999 9.59375,7.53125 l 11.78125,7.125 c 1.28085,0.66877 2.58571,1.30651 3.90625,1.9375 l 1.28125,0.84375 0.4375,-0.0313 c 5.62614,2.58909 11.63784,4.90126 18.125,7.03125 l 71.46875,-71.4687 -156.84375,-156.84375 z"
         id="path9401"
         inkscape:connector-curvature="0" />
      <path
         style="fill:#ff0000"
         d="m 383.27836,392.48034 c 0,0 0.62296,15.25696 3.59375,23.875 2.97079,8.61804 11.64579,24.74152 15.03125,26.59375 2.24848,1.23017 14.22413,2.97859 33.65625,2.21875 l 36.84375,-36.84375 c -14.13753,0.84322 -18.45642,-0.0143 -34.1875,-1.875 -20.94741,-2.47764 -54.9375,-13.96875 -54.9375,-13.96875 z"
         id="path9403"
         inkscape:connector-curvature="0" />
      <path
         style="fill:#ff0000"
         d="m 423.34086,457.38659 c -5.7062,1.53506 -9.96109,3.13849 -10.53125,4.65625 -0.4281,1.13961 0.0356,2.80825 1.09375,4.78125 l 9.4375,-9.4375 z"
         id="path9405"
         inkscape:connector-curvature="0" />
    </g>
  </g>
</svg>
