<?xml version="1.0" encoding="UTF-8"?>
<!DOCTYPE svg PUBLIC "-//W3C//DTD SVG 1.1//EN" "http://www.w3.org/Graphics/SVG/1.1/DTD/svg11.dtd">
<svg version="1.1" xmlns="http://www.w3.org/2000/svg" xmlns:xlink="http://www.w3.org/1999/xlink" x="0" y="0" width="1064" height="872" viewBox="0, 0, 1064, 872">
  <defs>
    <clipPath id="Clip_1">
      <path d="M0.06,0 L1063.08,0 L1063.08,872 L0.06,872 z"/>
    </clipPath>
  </defs>
  <g id="Layer_1">
    <g clip-path="url(#Clip_1)">
      <path d="M774.344,543.948 C766.334,569.781 758.282,595.6 750.352,621.456 C749.573,623.995 748.865,625.477 745.708,625.042 C726.818,622.438 707.902,620.012 688.995,617.526 C706.184,607.726 722.356,597.063 736.902,584.031 C751.318,571.117 763.694,556.44 774.195,539.938 C775.526,541.603 774.707,542.779 774.344,543.948 z M1062.56,379.003 C1061.83,375.344 1058.32,374.195 1054.75,374.042 C1046.89,373.707 1039.19,372.351 1031.72,369.968 C1003.61,361 983.275,343.889 975.424,314.499 C970.727,296.913 973.151,279.111 975.316,261.412 C977.8,241.107 982.096,221.035 983.046,200.532 C985.455,148.505 968.555,103.977 930.427,68.282 C899.969,39.768 863.264,24.723 821.825,20.888 C787.056,17.67 754.124,22.865 724.306,42.136 C721.021,44.259 718.68,44.015 715.346,42.206 C675.311,20.47 632.724,6.088 587.396,1.504 C545.432,-2.739 503.983,2.208 463.409,13.65 C444.426,19.003 426.076,25.925 411.609,40.221 C410.504,41.314 409.21,41.18 407.905,41.271 C379.194,43.28 353.288,53.576 330.473,70.422 C254.041,126.857 215.479,202.923 215.596,298.022 C215.637,332.181 223.059,365.007 237.942,395.95 C238.693,397.51 239.088,398.994 238.747,400.73 C237.457,407.303 237.544,413.952 237.777,420.605 C238.698,446.911 253.081,468.336 283.581,469.4 C285.948,469.483 287.18,470.112 287.805,472.446 C294.166,496.202 303.775,518.564 316.883,539.386 C318.573,542.072 317.712,542.596 314.982,542.959 C278.035,547.873 241.1,552.883 204.16,557.85 C195.987,558.949 193.719,561.614 194.804,569.791 C201.92,623.399 209.084,677.001 216.353,730.588 C216.717,733.273 216.367,734.698 213.956,736.246 C205.987,741.36 199.822,748.3 194.824,756.329 C172.769,791.759 188.325,838.337 226.716,850.732 C231.799,852.372 233.635,854.795 233.762,859.519 C233.78,860.184 233.868,860.848 233.941,861.51 C234.93,870.495 238.205,872.974 247.26,871.679 C253.848,870.737 260.444,869.845 267.039,868.956 C305.464,863.776 343.89,858.611 382.314,853.428 C407.874,849.98 433.433,846.533 458.984,843.025 C462.011,842.61 463.954,842.731 464.161,846.678 C464.378,850.802 465.425,854.885 466.15,858.98 C467.162,864.69 470.086,867.808 474.634,867.761 C479.815,867.707 482.447,864.7 483.235,859.799 C485.183,855.275 482.909,850.963 482.555,846.556 C482.384,844.435 481.475,842.094 484.065,840.807 C490.372,837.675 490.565,832.396 489.765,826.33 C487.304,807.671 484.699,789.032 482.209,770.378 C480.987,761.232 480.516,760.887 490.374,764.481 C502.27,768.819 514.13,773.287 526.186,777.128 C530.455,778.488 534.322,779.483 536.493,783.8 C540.487,791.744 551.222,793.212 556.248,783.503 C557.468,781.147 559.157,779.13 562.002,778.287 C577.827,773.595 593.156,767.467 608.712,761.994 C614.239,760.049 614.466,760.171 613.482,765.979 C608.638,794.561 604.087,823.196 598.323,851.615 C597.959,853.412 597.439,855.222 598.782,856.87 C599.796,861.667 602.524,864.677 607.623,864.744 C611.936,864.801 614.824,861.789 615.928,856.336 C624.449,814.271 630.855,771.839 637.857,729.511 C639.023,722.458 638.859,722.393 646.013,722.832 C688.523,725.44 731.04,727.871 773.602,729.519 C785.629,729.985 795.813,726.331 804.507,718.166 C813.117,710.08 819.404,700.319 824.773,689.915 C835.19,669.733 842.238,648.295 848.266,626.488 C855.45,600.5 861.028,574.171 865.061,547.51 C865.81,542.565 864.409,538.682 859.482,537.277 C856.65,536.47 856.674,535.403 857.28,533.115 C861.804,516.033 862.301,498.59 861.751,481.064 C861.314,467.142 859.362,453.56 852.579,441.101 C851.986,440.012 851.647,438.973 851.96,437.781 C855.127,425.715 854.818,412.669 862.152,401.765 C862.97,400.549 863.375,399.041 863.89,397.639 C865.572,393.058 867.216,388.463 869.105,383.237 C870.472,384.788 871.298,385.825 872.225,386.762 C893.92,408.718 919.608,422.867 950.782,424.832 C991.526,427.401 1027.05,412.93 1059.68,389.76 C1063.86,386.794 1063.31,382.72 1062.56,379.003" fill="#6E4100"/>
      <path d="M124.355,465.14 C110.766,477.319 97.372,489.78 80.162,496.912 C78.492,497.604 76.688,497.976 74.94,498.477 C74.307,498.658 73.656,498.778 73.378,498.842 C66.432,498.85 63.663,495.838 66.101,489.791 C73.889,470.468 86.977,456.467 107.875,451.318 C113.788,449.861 124.027,456.231 125.734,461.712 C126.231,463.31 125.361,464.239 124.355,465.14 z M175.4,421.262 C181.738,400.126 176.009,382.209 159.122,370.738 C141.979,359.094 122.77,357.851 103.149,360.287 C79.445,363.23 57.284,371.139 36.872,383.605 C22.08,392.639 8.832,403.339 1.182,419.519 C-1.253,424.669 0.155,429.317 4.662,431.392 C9.54,433.636 14.564,432.085 16.828,427.194 C20.504,419.249 26.315,412.957 33.008,407.809 C59.816,387.188 90.036,376.117 124.16,377.077 C133.286,377.334 141.926,379.916 149.369,385.355 C157.556,391.338 161.976,399.031 160.092,409.764 C157.588,424.036 149.994,435.598 141.591,446.847 C139.569,449.553 138.078,448.828 136.144,446.647 C124.88,433.939 109.82,430.545 94.16,436.893 C81.189,442.151 70.843,450.845 62.119,461.517 C55.663,469.415 50.429,478.039 48.299,488.279 C45.589,501.31 52.172,511.867 65.061,515.055 C77.972,518.249 88.926,513.239 99.491,506.911 C110.602,500.256 120.581,492.021 131.136,482.886 C129.471,493.305 124.921,501.234 119.6,508.904 C112.547,519.07 103.377,527.376 95.562,536.86 C92.84,540.164 92.867,544.141 95.168,547.491 C97.714,551.196 101.593,552.055 105.791,550.097 C107.745,549.185 109.603,548.061 111.482,546.993 C122.733,540.596 133.216,532.765 145.671,528.617 C149.252,527.425 153.559,525.028 156.278,528.747 C158.734,532.106 155.296,535.52 153.583,538.658 C151.156,543.104 146.76,545.946 144.141,550.227 C141.871,553.938 142.643,558.668 145.901,561.521 C148.733,564.002 153.966,564.156 156.906,561.548 C163.58,555.628 169.046,548.702 172.572,540.483 C180.139,522.839 168.273,509.039 151.819,509.817 C147.664,510.014 143.682,510.909 139.209,511.81 C139.433,510.78 139.428,510.424 139.58,510.157 C146.574,497.883 150.955,485.061 148.037,470.655 C147.551,468.254 148.262,466.304 149.937,464.298 C160.749,451.348 170.46,437.734 175.4,421.262" fill="#C5D1E0"/>
    </g>
    <path d="M483.235,859.799 C482.386,854.38 481.639,848.943 480.637,843.553 C480.249,841.463 480.142,840.418 482.764,839.736 C487.736,838.444 489.452,834.623 488.793,829.706 C486.363,811.57 483.896,793.439 481.446,775.305 C480.912,771.348 480.485,767.374 479.839,763.436 C479.251,759.851 480.453,759.499 483.593,760.651 C496.08,765.228 508.628,769.641 521.185,774.025 C524.593,775.215 527.826,777.209 531.699,776.633 C533.41,776.378 533.862,777.938 534.626,778.941 C536.341,781.192 537.856,783.606 539.678,785.764 C543.659,790.48 550.096,790.588 553.181,785.338 C556.492,779.703 560.816,777.107 567.077,775.186 C583.417,770.172 599.38,763.932 616.192,757.931 C610.756,791.253 605.355,824.162 598.782,856.871 C572.519,857.321 546.247,857.489 519.998,858.36 C509.199,858.718 498.402,858.731 487.609,859.097 C486.145,859.146 484.693,859.556 483.235,859.799" fill="#FFCF71"/>
    <path d="M296.041,427.994 C290.91,394.565 292.658,361.451 300.323,328.557 C305.153,307.831 311.257,287.543 319.954,268.087 C320.485,266.899 321.202,265.796 321.832,264.653 C323.907,266.647 323.435,269.27 323.447,271.702 C323.516,284.507 323.471,297.313 323.483,310.118 C323.484,312.279 323.32,314.487 324.02,316.555 C325.121,319.808 327.26,322.045 330.907,322.055 C334.337,322.065 336.386,319.987 337.531,316.932 C338.486,314.382 338.369,311.696 338.371,309.038 C338.384,286.92 338.405,264.801 338.349,242.683 C338.34,238.996 338.575,235.39 339.749,231.879 C347.196,219.844 355.749,208.683 365.904,198.788 C368.089,201.161 367.462,204.125 367.467,206.883 C367.521,233.863 367.495,260.842 367.503,287.821 C367.504,290.65 367.382,293.496 368.079,296.273 C369.15,300.539 372.137,303.021 375.76,302.714 C379.178,302.424 381.645,299.69 382.171,295.526 C382.443,293.373 382.343,291.201 382.344,289.037 C382.348,256.229 382.348,223.421 382.341,190.613 C382.34,187.607 382.265,184.603 383.796,181.857 C392.084,174.269 401.088,167.665 410.879,162.142 C412.126,163.223 412.396,164.721 412.398,166.217 C412.422,182.984 412.928,199.755 412.156,216.511 C408.89,221.273 409.314,226.058 412.12,230.855 C412.762,244.137 412.244,257.425 412.413,270.708 C412.439,272.7 412.292,274.704 412.648,276.675 C413.291,280.244 416.208,283.009 419.405,282.844 C423.015,282.657 425.123,280.483 426.021,277.086 C426.493,275.303 426.413,273.46 426.416,271.634 C426.429,262.166 426.401,252.698 426.435,243.231 C426.443,240.922 426.196,238.562 427.288,236.379 C428.248,235.002 429.744,234.776 431.218,234.741 C438.248,234.572 444.865,232.955 450.979,229.401 C452.115,228.74 453.355,228.231 454.728,228.826 C456.72,230.63 456.405,233.069 456.427,235.354 C456.505,243.174 456.449,250.995 456.461,258.816 C456.463,260.48 456.41,262.147 456.617,263.802 C457.049,267.253 458.648,269.912 462.246,270.548 C466.084,271.227 468.569,269.057 470.163,265.813 C471.608,262.87 471.356,259.644 471.357,256.49 C471.371,220.382 471.33,184.273 471.428,148.165 C471.435,145.392 470.245,142.059 473.574,140.067 C479.29,161.574 488.163,181.771 498.935,201.18 C500.09,203.986 500.394,206.92 500.386,209.931 C500.359,220.38 500.371,230.829 500.378,241.279 C500.379,242.605 500.35,243.935 500.491,245.256 C500.995,249.982 503.92,253.148 507.838,253.233 C511.742,253.319 514.626,250.33 515.228,245.362 C515.688,241.567 515.257,237.732 515.506,233.929 C515.627,232.076 515.141,229.798 517.728,228.992 C532.33,247.046 548.213,263.795 567.31,277.214 C574.149,282.019 581.41,285.995 589.872,287.235 C602.089,289.027 611.848,284.2 617.642,273.313 C622.428,264.32 624.25,254.508 624.81,244.496 C625.207,237.42 624.887,230.305 624.887,223.207 C625.357,223.108 625.827,223.01 626.297,222.911 C629.763,227.423 633.136,232.01 636.708,236.436 C672.744,281.1 719.396,307.013 776.06,315.16 C788.408,316.935 788.372,316.877 791.058,328.97 C793.803,341.323 795.975,353.766 797.431,366.338 C797.815,369.658 798.008,372.461 795.212,375.335 C792.446,378.178 792.989,382.057 795.312,385.457 C796.078,386.578 797.936,386.948 797.83,388.845 C778.288,383.876 773.534,385.287 769.728,397.081 C768.835,402.279 768.445,402.384 763.045,399.049 C745.492,388.211 727.669,388.4 710.023,398.461 C693.835,407.691 684.328,422.085 679.261,439.839 C674.644,456.014 677.91,470.396 687.783,483.658 C696.119,494.853 707.913,500.215 720.932,503.521 C730.411,505.928 739.972,506.676 749.611,504.413 C751.435,503.985 753.237,503.818 754.914,504.928 C757.381,508.464 759.456,512.378 762.412,515.442 C766.209,519.378 765.284,522.486 762.75,526.623 C734.414,572.891 693.215,601.927 641.663,616.863 C599.452,629.092 556.315,631.967 512.636,628.337 C496.526,626.998 480.602,624.56 464.819,621.071 C461.629,620.366 460.227,619.15 459.818,615.633 C458.145,601.255 456.119,586.917 454.038,572.591 C453.5,568.89 453.991,567.353 458.363,567.422 C503.316,568.128 548.273,568.588 593.229,569.178 C612.206,569.428 631.18,569.851 650.157,570.141 C656.515,570.238 659.268,566.943 658.108,560.634 C654.98,543.625 651.802,526.624 648.612,509.626 C647.123,501.691 645.598,500.497 637.07,500.871 C599.334,502.526 561.601,504.233 523.867,505.903 C496.604,507.109 469.34,508.284 442.078,509.481 C433.078,509.876 431.75,511.263 431.747,520.166 C431.745,527.247 431.732,527.143 424.228,528.137 C396.517,531.807 368.813,535.53 341.117,539.312 C339.057,539.593 337.427,540.037 335.958,537.846 C327.703,525.535 320.216,512.826 314.906,498.93 C314.188,495.762 316.317,496.661 317.693,497.169 C320.814,498.319 323.772,499.9 326.924,500.975 C342.821,506.394 359.081,509.195 374.305,500.155 C392.135,489.566 404.587,474.298 405.887,452.701 C406.737,438.588 400.778,426.009 392.957,414.557 C386.151,404.593 377.46,396.786 365.442,393.384 C346.554,388.037 329.924,392.306 315.292,405.044 C308.958,410.558 303.886,417.13 299.695,424.406 C298.841,425.888 298.421,427.993 296.041,427.994" fill="#FEF8EA"/>
    <path d="M401.95,58.894 C405.299,57.657 408.719,57.979 412.147,58.424 C415.919,58.913 418.887,58.401 421.4,54.706 C425.81,48.223 432.615,44.4 439.436,40.835 C458.708,30.762 479.634,25.997 500.796,22.246 C525.113,17.936 549.676,16.015 574.361,17.225 C603.67,18.662 631.903,25.658 659.401,35.523 C711.082,54.064 755.829,83.33 793.538,123.299 C831.576,163.615 855.213,210.956 862.579,266.03 C867.938,306.104 863.366,345.329 850.997,383.723 C850.801,384.333 850.56,384.93 850.352,385.5 C848.576,385.706 848.405,384.212 847.865,383.363 C841.216,372.898 831.578,367.89 819.342,368.112 C815.338,368.185 814.119,367.118 813.76,362.98 C812.523,348.724 809.644,334.702 806.548,320.739 C806.19,319.127 805.331,317.593 807.302,316.342 C811.376,313.758 811.868,309.888 810.332,305.828 C808.836,301.873 805.341,301.058 801.376,300.858 C770.957,299.325 741.697,292.875 714.52,278.802 C670.978,256.255 639.964,221.985 620.769,176.955 C618.063,170.606 614.671,167.986 609.828,169.165 C604.898,170.365 602.872,174.711 604.075,181.753 C607.018,199 608.957,216.346 608.722,233.861 C608.602,242.85 607.835,251.829 604.912,260.429 C601.259,271.174 596.213,273.289 585.887,268.577 C577.447,264.724 570.335,258.919 563.476,252.848 C525.894,219.585 500.426,178.881 488.486,129.967 C487.307,125.137 486.618,120.181 485.83,115.263 C485.045,110.362 481.787,107.136 477.309,107.057 C472.674,106.976 469.362,109.798 469.042,115.12 C468.835,118.562 466.561,118.564 464.452,119.217 C438.518,127.251 414.252,138.752 391.828,154.092 C380.128,162.096 369.357,171.225 359.173,181.063 C346.502,175.57 337.797,165.921 332.031,153.767 C326.846,142.839 324.55,131.083 324.627,118.902 C324.652,114.996 325.909,111.835 328.625,109.051 C346.64,90.582 366.46,74.545 389.808,63.187 C392.212,62.018 394.7,61.119 397.182,60.179 C398.708,59.522 400.558,60.061 401.95,58.894" fill="#DBA76F"/>
    <path d="M254.03,852.222 C270.784,845.954 273.24,827.601 272.132,816.284 C271.814,813.034 269.658,810.919 266.511,809.951 C264.138,809.221 261.748,808.545 259.119,807.773 C262.842,801.085 266.842,794.521 265.615,786.685 C264.32,778.417 258.58,774.253 250.268,772.413 C251.982,769.55 253.606,766.923 255.147,764.249 C258.995,757.571 261.729,750.47 263.195,742.888 C264.149,737.955 262.424,734.474 257.806,732.37 C251.82,729.643 245.554,727.521 239.008,728.289 C233.698,728.912 232.507,726.932 231.946,722.151 C229.948,705.135 227.475,688.175 225.21,671.19 C221.031,639.857 216.917,608.516 212.631,577.198 C212.251,574.422 212.685,573.444 215.564,573.065 C255.974,567.744 296.372,562.337 336.767,556.91 C367.599,552.768 398.428,548.607 429.241,544.329 C432.336,543.9 433.539,544.295 433.999,547.775 C440.785,599.065 447.746,650.332 454.655,701.606 C460.009,741.339 465.326,781.077 470.742,820.801 C471.143,823.742 470.563,824.683 467.364,825.106 C400.077,834.016 332.812,843.09 265.541,852.119 C262.745,852.494 259.934,852.751 257.13,853.063 C255.976,853.225 254.555,854.375 254.03,852.222" fill="#FEFEFE"/>
    <path d="M1026.86,390.13 C1008.55,400.149 989.156,406.627 968.218,408.128 C929.473,410.904 899.791,394.172 875.598,365.377 C873.797,363.233 874.476,361.361 874.917,359.364 C880.384,334.664 882.148,309.646 880.902,284.444 C878.612,238.101 865.086,195.19 840.228,156.018 C814.834,116.001 781.174,84.144 741.887,57.998 C740.502,57.077 739.108,56.169 737.745,55.217 C737.513,55.054 737.418,54.695 737.093,54.145 C744.441,49.903 752.037,46.25 759.979,43.304 C781.401,40.669 802.525,42.682 823.156,48.546 C875.612,63.454 914.06,94.894 935.162,145.852 C945.77,171.47 948.016,198.363 945.518,225.837 C943.123,252.173 938.198,278.289 939.161,304.926 C940.154,332.41 951.283,354.396 973.621,370.488 C986.996,380.122 1002.03,385.668 1018.38,387.793 C1021.27,388.169 1024.43,387.953 1026.86,390.13" fill="#DBA76F"/>
    <path d="M723.66,710.647 C699.08,709.163 672.694,707.486 646.293,706.072 C642.496,705.868 641.687,705.116 642.344,701.202 C646.058,679.069 649.511,656.892 652.825,634.695 C653.405,630.811 654.662,629.81 658.627,630.355 C689.928,634.657 721.258,638.749 752.59,642.828 C758.902,643.65 761.714,641.541 763.782,634.873 C772.835,605.696 781.945,576.537 790.815,547.305 C791.989,543.436 793.434,542.675 797.381,543.42 C812.405,546.256 827.518,548.618 842.597,551.164 C845.191,551.602 847.651,551.657 846.884,555.796 C839.669,594.731 831.174,633.313 815.668,669.961 C810.672,681.77 804.685,693.067 796.073,702.774 C789.591,710.08 781.951,713.536 771.828,712.738 C756.419,711.522 740.929,711.341 723.66,710.647" fill="#FEFEFE"/>
    <path d="M296.041,427.994 C300.799,420.219 305.528,412.516 312.216,406.063 C329.007,389.864 351.181,385.102 372.371,394.477 C383.11,399.228 390.889,407.812 396.776,417.88 C402.694,428.002 407.237,438.851 407.463,450.675 C407.67,461.51 403.842,471.399 397.405,480.291 C387.866,493.469 376.628,504.163 359.713,506.51 C345.46,508.487 332.072,505.068 319.144,499.208 C318,498.689 316.476,495.769 314.906,498.931 C307.296,482.39 302.599,464.943 299.022,447.176 C297.747,440.838 297.019,434.391 296.041,427.994" fill="#FFD5BA"/>
    <path d="M397.805,60.886 C371.077,72.451 348.692,89.992 328.745,110.929 C326.863,112.904 326.039,115.001 326.053,117.623 C326.187,143.466 333.93,165.411 357.519,179.295 C358.186,179.687 358.625,180.466 359.172,181.064 C354.104,186.397 349.036,191.732 343.968,197.066 C334.547,197.264 326.116,193.473 317.59,190.283 C308.056,186.715 299.068,181.927 290.552,176.364 C286.998,174.042 285.313,175.073 283.71,178.503 C271.582,204.474 263.091,231.496 259.281,259.983 C257.064,276.56 256.704,293.199 257.56,309.806 C258.478,327.624 261.841,345.142 266.723,362.336 C267.254,364.206 268.274,366.109 267.042,368.102 C260.264,369.964 253.78,372.388 248.552,378.271 C243.677,367.268 240.357,356.265 238.04,345 C220.578,260.103 242.871,185.801 298.708,120.836 C318.998,97.229 343.32,78.583 372.383,66.684 C379.91,63.603 387.567,60.834 395.749,59.964 C396.707,59.664 397.842,58.968 397.805,60.886" fill="#FEFEFE"/>
    <path d="M1026.86,390.13 C996.608,387.632 970.809,376.531 952.5,351.257 C940.428,334.593 937.195,315.542 937.559,295.446 C937.939,274.435 941.076,253.715 943.532,232.92 C949.166,185.21 939.982,141.41 908.624,103.853 C884.206,74.607 852.713,56.633 815.734,48.114 C799.127,44.288 782.285,42.92 765.256,43.944 C763.494,44.05 761.598,44.649 759.98,43.303 C799.706,31.641 838.532,35.27 875.798,52.182 C922.101,73.195 951.977,108.504 963.297,158.596 C967.906,178.993 967.412,199.555 964.384,220.14 C960.899,243.834 956.575,267.444 956.038,291.473 C955.124,332.414 977.51,366.321 1015.79,382.09 C1020.69,384.111 1025.77,385.702 1031,387.575 C1030.16,389.083 1028.52,389.62 1026.86,390.13" fill="#FEFEFE"/>
    <path d="M754.914,504.928 C748.2,505.802 741.6,507.674 734.715,507.009 C720.325,505.619 706.812,502.109 695.084,492.929 C680.4,481.434 671.337,459.698 678.267,438.004 C684.264,419.229 694.856,404.175 712.564,395.445 C730.103,386.799 747.912,387.295 764.56,398.531 C767.51,400.523 768.858,400.655 769.729,397.08 C768.615,407.056 772.067,415.683 777.949,423.735 C775.253,425.606 772.264,425.037 769.617,425.674 C755.188,429.146 748.275,446.395 755.08,457.057 C755.963,458.441 756.616,459.58 754.442,460.49 C744.005,464.855 741.847,476.468 745.539,487.426 C747.693,493.819 751.832,499.074 754.914,504.928" fill="#FFD5BA"/>
    <path d="M267.042,368.102 C257.885,338.928 254.327,309.017 256.14,278.56 C258.298,242.308 267.73,207.912 283.835,175.34 C285.12,172.743 285.962,171.812 288.855,173.692 C305.568,184.554 323.434,192.774 343.168,196.5 C343.459,196.555 343.702,196.872 343.967,197.066 C331.503,213.097 319.972,229.719 310.854,247.946 C294.17,281.295 284.012,316.601 278.813,353.427 C278.581,355.073 278.178,356.697 277.994,358.346 C276.923,367.923 276.937,367.925 267.042,368.102" fill="#DBA76F"/>
    <path d="M547.659,553.477 C517.205,553.477 486.751,553.436 456.298,553.529 C452.581,553.541 451.349,552.259 450.757,548.493 C449.642,541.4 450.377,533.917 446.078,527.353 C444.407,524.802 446.022,523.204 449.585,523.063 C484.653,521.68 519.711,520.074 554.771,518.518 C580.027,517.398 605.286,516.338 630.532,515.039 C634.278,514.846 635.611,515.659 636.212,519.579 C637.874,530.416 639.977,541.198 642.306,551.915 C643.052,555.351 642.51,556.134 639.03,556.061 C618.731,555.631 598.427,555.355 578.124,555.126 C567.97,555.011 557.814,555.106 547.659,555.106 C547.659,554.563 547.659,554.02 547.659,553.477" fill="#FEFEFE"/>
    <path d="M786.151,402.444 C801.275,410.492 813.969,419.373 824.761,430.846 C837.969,444.888 844.93,461.341 844.973,480.863 C845.009,497.038 845.154,513.129 841.093,528.969 C840.198,532.458 839.231,533.851 835.239,533.079 C822.839,530.682 810.383,528.499 797.873,526.782 C793.824,526.226 792.905,522.877 790.44,520.971 C777.746,511.16 769.848,497.583 762.332,483.878 C758.487,476.866 760.245,474.773 768.32,475.026 C771.144,475.114 773.961,475.416 776.785,475.512 C780.642,475.643 783.61,474.101 785.174,470.463 C786.728,466.848 785.976,463.534 783.125,460.914 C779.576,457.652 775.781,454.659 772.201,451.428 C770.663,450.04 768.743,448.734 769.64,446.013 C770.478,443.472 772.307,442.45 774.708,441.816 C780.398,440.315 785.955,441.875 791.557,442.378 C793.376,442.541 795.175,442.92 796.991,443.126 C800.994,443.581 804.337,442.494 806.091,438.587 C807.771,434.845 806.826,431.624 804.083,428.551 C798.009,421.748 791.247,415.431 787.609,406.778 C787.234,405.886 786.985,404.941 786.151,402.444" fill="#FEF8EA"/>
    <path d="M238.523,789.011 C239.851,788.953 241.185,788.79 242.507,788.861 C244.573,788.97 247.41,787.983 248.45,789.898 C249.445,791.729 247.509,793.921 246.479,795.753 C244.276,799.674 241.785,803.434 238.182,806.246 C235.044,808.696 234.153,811.908 235.025,815.573 C235.837,818.985 238.371,820.803 241.692,821.545 C245.257,822.342 248.809,823.29 252.42,823.762 C255.022,824.101 255.26,825.31 254.872,827.457 C253.734,833.764 249.574,837.565 242.965,837.04 C225.796,835.676 213.221,827.103 205.976,811.47 C196.478,790.978 203.065,765.48 221.042,751.824 C226.578,747.619 232.653,744.766 239.848,744.956 C245.407,745.103 245.519,745.25 243.214,750.57 C239.657,758.78 234.136,765.611 228.17,772.136 C227.049,773.362 225.809,774.51 224.868,775.863 C220.933,781.516 224.206,788.537 231.042,789.073 C233.52,789.267 236.027,789.104 238.52,789.104 C238.521,789.073 238.522,789.042 238.523,789.011" fill="#FEF8EA"/>
    <path d="M473.574,140.067 C472.286,141.873 472.855,143.94 472.853,145.886 C472.818,183.663 472.827,221.44 472.828,259.218 C472.828,261.541 472.897,263.841 472.049,266.103 C470.497,270.244 466.301,273.263 462.577,272.73 C458.168,272.1 454.987,268.498 454.942,263.676 C454.849,253.858 454.944,244.039 454.885,234.22 C454.874,232.454 455.479,230.532 454.069,228.96 C454.006,228.809 453.842,228.597 453.892,228.516 C456.865,223.696 455.733,218.978 453.546,214.271 C453.041,190.945 453.461,167.626 453.309,144.309 C453.301,143.126 453.623,142.005 453.858,140.866 C458.134,139.288 462.491,137.896 466.663,136.081 C471.022,134.185 473.4,135.039 473.574,140.067" fill="#C5D1E0"/>
    <path d="M383.796,181.857 C383.837,219.668 383.898,257.479 383.897,295.289 C383.897,300.403 380.602,304.227 376.109,304.765 C371.981,305.258 368.108,302.241 366.62,297.654 C365.927,295.515 366.018,293.385 366.015,291.234 C365.969,260.419 365.938,229.604 365.904,198.788 C371.197,192.436 377.241,186.876 383.796,181.857" fill="#C5D1E0"/>
    <path d="M453.858,140.866 C455.373,142.152 454.894,143.917 454.895,145.515 C454.907,169.045 454.886,192.575 454.873,216.105 C451.226,216.746 448.205,218.22 445.511,221.031 C442.629,224.038 438.422,224.43 434.33,224.428 C427.169,224.174 426.358,223.443 426.331,216.248 C426.26,197.144 426.291,178.039 426.317,158.934 C426.32,156.597 426.342,154.254 427.98,152.324 C436.284,147.777 444.85,143.823 453.858,140.866" fill="#FEF8EA"/>
    <path d="M567.092,689.59 C567.096,689.564 567.304,688.422 567.444,687.272 C568.374,679.672 568.388,679.584 576.003,681.276 C586.728,683.659 597.228,686.67 606.853,692.243 C609.629,693.85 610.497,695.6 609.613,698.708 C605.637,712.697 597.4,722.79 583.663,728.237 C580.52,729.483 579.318,728.773 578.293,725.697 C574.933,715.616 571.348,705.609 567.765,695.604 C567.186,693.986 566.968,692.398 567.092,689.59" fill="#FF7164"/>
    <path d="M524.772,688.396 C525.427,692.305 524.411,695.733 523.107,699.233 C519.915,707.803 516.787,716.41 514.076,725.139 C512.822,729.179 511.073,729.443 507.6,727.92 C494.307,722.09 486.178,712.054 482.416,698.166 C481.725,695.615 482.243,694.199 484.469,692.849 C496.068,685.815 508.917,682.586 522.065,680.198 C524.043,679.839 524.842,680.602 524.785,682.559 C524.726,684.556 524.772,686.555 524.772,688.396" fill="#FF7164"/>
    <path d="M339.749,231.879 C339.795,259.148 339.885,286.417 339.852,313.686 C339.844,320.002 336.062,324.085 330.811,324.018 C325.541,323.95 322,319.793 321.975,313.538 C321.911,297.243 321.878,280.948 321.832,264.653 C326.613,253.077 332.61,242.166 339.749,231.879" fill="#C5D1E0"/>
    <path d="M272.884,384.852 C275.428,384.337 276.497,385.356 276.485,388.575 C276.411,408.921 278.429,429.097 282.243,449.072 C282.855,452.278 282.292,452.646 279.249,452.222 C267.555,450.596 259.105,443.212 256.144,431.109 C253.578,420.623 253.573,410.008 256.083,399.497 C258.391,389.833 264.029,384.948 272.884,384.852" fill="#FEF8EA"/>
    <path d="M427.98,152.324 C427.973,173.085 427.964,193.846 427.958,214.607 C427.956,222.887 427.958,222.887 435.866,223.152 C435.58,225.548 433.576,225.227 432.105,225.28 C426.934,225.464 421.829,224.969 417.96,221.018 C415.939,218.954 412.982,219.544 410.89,217.939 C410.886,199.34 410.883,180.741 410.88,162.142 C416.203,158.215 421.99,155.092 427.98,152.324" fill="#C5D1E0"/>
    <path d="M635.708,636.077 C632.964,653.512 630.333,670.221 627.635,687.362 C622.573,682.231 616.93,678.306 610.699,675.287 C608.52,674.231 608.766,673.209 609.845,671.452 C614.998,663.071 617.568,653.8 618.327,644.093 C618.608,640.496 620.045,639.289 623.37,638.82 C627.292,638.267 631.131,637.125 635.708,636.077" fill="#FFCF70"/>
    <path d="M517.728,228.992 C516.023,231.412 517.064,234.148 516.907,236.73 C516.706,240.043 517.101,243.408 516.712,246.689 C516.082,251.992 512.055,255.343 507.288,255.018 C502.593,254.699 499.012,250.769 498.973,245.55 C498.891,234.581 498.948,223.612 498.946,212.643 C498.945,208.821 498.938,204.999 498.934,201.178 C504.841,210.692 511.035,220.01 517.728,228.992" fill="#C5D1E0"/>
    <path d="M488.767,649.895 C488.805,649.039 489.006,647.859 488.88,646.714 C488.475,643.053 490.406,642.497 493.365,643.167 C493.527,643.203 493.701,643.268 493.857,643.243 C508.968,640.806 510.775,653.049 515.202,662.483 C516.075,664.343 514.904,664.439 513.801,664.719 C508.005,666.188 502.162,667.487 496.419,669.133 C494.095,669.799 493.472,668.401 492.64,667.007 C489.551,661.826 488.851,656.082 488.767,649.895" fill="#FEFEFE"/>
    <path d="M837.654,420.034 C830.737,412.696 823.844,406.537 816.235,401.233 C814.909,400.309 814.817,399.156 814.853,397.787 C814.902,395.962 814.866,394.134 814.867,392.308 C814.867,384.431 816.206,383.369 824.02,385.216 C829.058,386.407 832.427,389.622 834.63,394.209 C837.496,400.175 839.037,411.976 837.654,420.034" fill="#FEF8EA"/>
    <path d="M564.412,646.093 C564.462,646.905 564.521,647.081 564.474,647.223 C560.37,659.825 560.148,659.986 546.909,659.986 C545.412,659.986 543.915,659.986 542.417,659.986 C532.868,659.986 530.247,658.01 527.229,648.955 C526.424,646.542 527.245,646.022 529.436,646.137 C541.061,646.748 552.691,646.509 564.412,646.093" fill="#FEF7E9"/>
    <path d="M601.582,642.823 C600.651,651.134 598.674,658.367 594.098,664.768 C592.571,666.905 591.17,667.922 588.414,667.028 C585.285,666.013 582.006,665.404 578.753,664.846 C576.035,664.38 575.654,663.437 576.931,660.945 C578.578,657.729 580.207,654.341 580.902,650.84 C581.88,645.904 584.518,644.125 589.293,644.056 C593.221,643.999 597.14,643.295 601.582,642.823" fill="#FEFDFD"/>
    <path d="M469.066,682.856 C467.06,668.3 465.108,654.198 463.199,640.089 C463.12,639.508 463.528,638.333 463.561,638.338 C466.161,638.766 468.784,639.144 471.321,639.837 C473.591,640.457 472.327,642.303 472.213,643.612 C471.29,654.248 472.243,664.569 477.427,674.13 C478.408,675.939 478.501,676.951 476.513,678.036 C474.071,679.37 471.818,681.051 469.066,682.856" fill="#FECF70"/>
    <path d="M546.442,765.635 C541.485,761.382 540.099,757.035 541.627,751.122 C543.604,743.473 544.558,735.56 546.658,727.805 C548.197,736.865 549.654,745.94 551.311,754.978 C552.183,759.737 547.926,761.811 546.442,765.635" fill="#FDFDFC"/>
    <path d="M623.097,715.095 C621.455,725.552 619.812,736.009 617.95,747.865 C614.619,742.653 612.048,738.538 609.376,734.489 C608.019,732.434 609.629,731.5 610.721,730.336 C615.292,725.463 619.093,720.066 621.91,713.994 C622.886,713.736 623.315,714.067 623.097,715.095" fill="#FECF70"/>
    <path d="M525.847,744.752 C525.643,745.71 525.422,746.664 525.238,747.626 C523.415,757.166 523.429,757.134 514.047,753.668 C508.436,751.595 502.775,749.66 497.15,747.625 C495.681,747.093 493.709,746.875 495.048,744.362 C496.013,742.551 496.866,741.326 499.227,742.53 C503.393,744.655 507.943,745.724 512.425,746.988 C517.204,748.336 521.637,748.525 525.847,744.752" fill="#FF7063"/>
    <path d="M567.144,744.104 C571.231,748.988 576.006,748.102 580.727,746.768 C584.399,745.73 588.114,744.645 591.545,743.022 C594.237,741.749 595.098,743.137 596.125,744.952 C597.661,747.667 595.182,747.554 593.844,748.042 C586.502,750.716 579.116,753.271 571.779,755.96 C569.655,756.739 568.163,756.703 568.083,754.003 C567.991,750.916 566.461,747.963 567.144,744.104" fill="#FE7062"/>
    <path d="M550.936,682.622 C550.259,685.648 552.385,689.572 546.879,689.83 C543.101,690.006 541.074,689.387 541.711,685.139 C541.829,684.352 541.407,683.501 541.394,682.676 C541.365,680.779 540.136,678.093 542.312,677.277 C544.499,676.457 547.425,676.424 549.644,677.175 C552.352,678.092 549.919,681.06 550.936,682.622" fill="#FC7061"/>
    <path d="M474.906,722.832 C477.003,725.17 478.995,727.617 481.238,729.806 C482.611,731.147 482.47,732.312 481.688,733.75 C480.347,736.216 479.043,738.702 477.073,742.4 C476.213,736.168 475.513,731.095 474.812,726.022 C474.296,724.943 474.22,723.876 474.906,722.832" fill="#FBCC6E"/>
    <path d="M254.03,852.222 C255.063,852.503 256.096,852.783 257.13,853.063 C255.052,854.361 252.739,853.779 250.024,854.309 C251.229,852.376 252.808,852.675 254.03,852.222" fill="#EBE6E0"/>
    <path d="M623.097,715.095 C622.701,714.728 622.306,714.361 621.91,713.994 C621.959,712.676 622.42,711.558 623.522,710.618 C624.257,712.269 624.133,713.723 623.097,715.095" fill="#C49644"/>
    <path d="M397.805,60.886 C397.12,60.578 396.434,60.271 395.749,59.964 C397.641,58.591 399.862,59.129 401.95,58.894 C400.94,60.331 399.27,60.394 397.805,60.886" fill="#F6ECE0"/>
    <path d="M474.906,722.832 C474.875,723.896 474.844,724.959 474.813,726.022 C473.808,724.78 473.577,723.394 474.196,721.934 C474.452,721.332 475.167,721.531 474.658,721.952 C474.563,722.03 474.814,722.528 474.906,722.832" fill="#B18436"/>
    <path d="M420.799,377.524 C414.634,374.709 408.632,372.805 403.31,369.507 C401.336,368.284 399.237,367.179 397.504,365.665 C394.333,362.895 393.821,358.173 396.023,354.767 C398.326,351.206 403.284,349.574 407.003,351.943 C420.783,360.72 436.273,364.311 451.971,367.378 C453.59,367.695 455.247,367.972 456.889,367.989 C461.59,368.036 464.466,370.457 465.404,374.86 C466.374,379.411 464.165,383.191 460.103,384.498 C441.61,390.451 423.183,396.977 403.262,396.032 C398.618,395.811 395.141,394.05 393.998,389.294 C392.708,383.926 396.356,379.22 401.932,379.051 C408.023,378.867 414.156,379.381 420.799,377.524" fill="#6E4100"/>
    <path d="M668.629,377.417 C675.125,379.181 680.703,379.03 686.275,379.028 C692.444,379.026 695.925,381.959 696.039,387.153 C696.156,392.529 692.516,395.782 686.263,396.023 C670.707,396.622 655.922,392.886 641.301,388.157 C637.824,387.032 634.261,386.169 630.807,384.981 C626.134,383.374 623.756,379.455 624.477,374.938 C625.156,370.691 628.384,368.68 633.423,367.94 C650.259,365.469 666.768,361.769 681.495,352.629 C684.975,350.469 688.409,350.274 691.747,352.603 C694.816,354.743 695.526,357.937 694.89,361.47 C694.377,364.328 692.381,366.003 690.054,367.477 C683.618,371.552 676.651,374.537 668.629,377.417" fill="#6E4100"/>
    <path d="M427.982,236.215 C427.973,249.375 427.993,262.536 427.937,275.696 C427.918,279.997 425.827,282.874 421.66,284.238 C417.748,285.52 414.994,283.753 412.427,281.094 C410.853,279.464 410.87,277.52 410.874,275.51 C410.898,260.351 410.912,245.192 410.93,230.033 C416.641,232.018 422.421,233.814 427.982,236.215" fill="#C5D1E0"/>
    <path d="M427.982,236.215 C421.737,235.7 415.87,234.144 410.929,230.033 C406.68,223.963 406.675,222.637 410.89,217.939 C414.354,217.091 416.881,218.063 419.678,220.604 C424.241,224.751 430.075,224.759 435.868,223.152 C440.074,222.516 444.175,221.983 446.821,217.784 C448.691,214.817 451.903,215.353 454.873,216.105 C458.874,221.109 458.738,223.268 454.068,228.961 C446.36,234.926 437.299,236.031 427.982,236.215" fill="#6E4100"/>
    <path d="M556.374,390.992 C556.099,394.413 554.549,397.002 551.323,398.351 C547.95,399.761 544.545,399.462 542.185,396.689 C539.629,393.687 537.429,390.29 535.594,386.792 C533.873,383.511 534.906,380.214 537.506,377.708 C539.929,375.372 542.87,374.555 546.209,375.883 C550.044,377.409 556.482,386.893 556.374,390.992" fill="#6E4100"/>
    <path d="M792.833,214.98 C793.12,221.317 793.073,227.61 790.906,233.719 C786.054,247.394 773.661,255.091 759.69,252.971 C747.343,251.098 738.12,239.258 738.027,225.013 C737.981,217.933 739.463,211.051 742.288,204.636 C748.275,191.039 752.24,176.779 756.718,162.682 C758.547,156.924 762.258,154.255 766.815,155.546 C771.807,156.959 773.781,161.248 772.047,167.066 C767.726,181.566 763.503,196.092 757.453,210.017 C755.405,214.734 753.861,219.715 754.02,224.987 C754.214,231.391 757.668,236.24 762.49,237.056 C768.478,238.069 773.503,234.746 775.793,228.255 C777.561,223.245 776.893,218.041 776.981,212.902 C777.029,210.073 776.672,207.212 776.976,204.417 C777.458,199.981 780.404,197.647 784.666,197.257 C788.67,196.89 792.47,200.287 792.78,204.494 C793.036,207.972 792.833,211.483 792.833,214.98" fill="#FEFEFE"/>
    <path d="M437.075,754.907 C437.209,764.691 434.165,772.173 429.929,779.241 C426.159,785.533 421.466,791.153 416.767,796.763 C415.019,798.848 412.619,800.66 410.36,799.012 C406.686,796.333 402.821,797.26 398.986,797.134 C384.878,796.671 373.109,787.99 369.642,775.078 C367.366,766.604 368.929,758.582 373.583,751.214 C380.75,739.867 390.995,732.45 403.912,729.247 C423.498,724.39 437.194,735.747 437.075,754.907" fill="#FF7164"/>
    <path d="M341.053,631.452 C338.146,631.18 336.264,630.079 335.855,627.32 C335.377,624.095 337.109,622.195 339.979,621.433 C346.871,619.605 353.779,617.812 360.738,616.267 C377.095,612.635 393.472,609.085 410.017,606.386 C411.652,606.12 413.319,606.025 414.976,605.931 C418.19,605.749 420.112,607.382 420.369,610.492 C420.629,613.645 418.829,615.461 415.731,615.878 C393.664,618.851 372.062,624.127 350.39,629.056 C347.158,629.791 343.965,630.7 341.053,631.452" fill="#FF7164"/>
    <path d="M366.776,581.966 C364.115,586.655 366.358,591.412 368.869,596.572 C371.209,601.38 369.794,606.454 366.046,610.389 C361.991,614.646 356.781,616.106 351.028,615.337 C348.178,614.956 346.655,613.114 346.797,610.126 C346.93,607.344 348.591,605.941 351.173,605.529 C353.286,605.191 355.517,605.554 357.483,604.381 C359.059,603.441 359.898,602.077 359.634,600.246 C359.381,598.498 358.195,598.059 356.483,597.77 C350.531,596.764 349.177,592.94 353.101,588.459 C354.441,586.928 355.531,585.323 356.207,583.411 C356.725,581.948 357.291,580.568 355.362,579.614 C353.678,578.781 352.478,579.477 351.421,580.679 C350.99,581.17 350.678,581.78 350.378,582.37 C348.887,585.299 346.622,586.753 343.484,585.224 C340.015,583.535 340.27,580.535 341.543,577.521 C344.09,571.49 350.309,568.154 356.505,569.415 C363.099,570.756 366.75,574.872 366.776,581.966" fill="#FF7164"/>
    <path d="M279.895,780.464 C280.164,777.53 281.463,775.684 284.057,775.176 C286.689,774.662 288.718,775.923 289.63,778.351 C291.237,782.626 294.483,785.413 297.823,788.195 C299.724,789.778 300.722,789.516 301.634,787.09 C304.209,780.247 306.682,773.35 310.081,766.847 C311.783,763.591 313.659,760.43 316.219,757.776 C318.212,755.709 320.636,755.355 322.955,757.161 C325.235,758.937 325.893,761.581 324.105,763.79 C316.476,773.216 313.816,784.957 308.915,795.644 C305.642,802.781 303.582,803.584 296.735,799.55 C291.24,796.313 286.285,792.418 282.71,787.013 C281.324,784.917 280.242,782.688 279.895,780.464" fill="#FF7164"/>
    <path d="M313.891,686.02 C313.75,686.412 313.543,687.219 313.182,687.951 C307.65,699.153 301.387,709.877 293.261,719.462 C290.114,723.174 287.102,723.683 282.906,721.108 C276.332,717.073 271.105,711.401 264.879,706.959 C262.563,705.307 262.207,702.754 263.902,700.326 C265.743,697.688 268.373,697.264 270.859,699.075 C275.015,702.103 279.133,705.248 282.874,708.763 C285.931,711.636 287.599,710.876 289.75,707.8 C295.19,700.019 300.035,691.91 304.214,683.392 C305.455,680.863 307.443,679.51 310.281,680.322 C312.808,681.045 314.046,682.909 313.891,686.02" fill="#FF7164"/>
    <path d="M272.015,642.918 C269.088,642.526 265.889,641.462 263.121,639.608 C257.735,635.998 252.484,632.181 247.272,628.321 C244.822,626.507 244.047,624.013 245.908,621.34 C247.925,618.444 250.651,618.449 253.321,620.317 C257.547,623.274 261.747,626.286 265.773,629.506 C269.332,632.352 271.784,632.265 274.524,628.186 C278.693,621.978 283.46,616.171 287.98,610.198 C290.143,607.34 292.905,605.674 296.034,608.291 C299.352,611.068 297.954,613.95 295.558,616.925 C289.505,624.44 283.74,632.186 277.805,639.798 C276.468,641.513 274.941,643.111 272.015,642.918" fill="#FF7164"/>
    <path d="M371.766,588.167 C371.767,585.837 371.885,583.549 372.641,581.287 C374.733,575.033 378.84,571.214 384.03,570.889 C389.786,570.528 394.986,573.955 397.689,579.89 C401.299,587.818 399.443,597.498 393.324,601.581 C388.712,604.659 383.636,605.273 378.695,602.572 C373.088,599.506 371.517,594.203 371.766,588.167" fill="#FF7164"/>
    <path d="M375.293,685.039 C367.323,683.513 361.14,679.171 355.785,673.597 C354.064,671.806 354.746,669.453 356.34,667.712 C357.959,665.944 360.102,665.43 362.205,666.736 C364.735,668.307 367.147,670.086 369.514,671.901 C371.765,673.628 372.999,673.572 373.953,670.511 C375.629,665.139 377.667,659.876 380.616,655.024 C382.411,652.07 384.664,649.742 388.268,651.815 C392.062,653.997 391.301,657.048 389.287,660.302 C385.417,666.554 383.579,673.688 380.976,680.484 C379.916,683.252 378.225,684.924 375.293,685.039" fill="#FF7164"/>
    <path d="M401.039,787.172 C392.265,786.764 384.697,784.046 380.57,775.567 C376.464,767.132 379.26,759.657 384.688,752.972 C390.967,745.24 399.023,740.261 408.973,738.558 C418.689,736.895 425.603,741.884 426.866,751.772 C428.539,764.877 421.878,774.869 413.79,783.88 C410.803,787.206 405.639,787.23 401.039,787.172" fill="#FEFEFE"/>
    <path d="M381.669,588.231 C382.104,585.271 381.768,581.284 385.228,581.295 C388.738,581.306 389.255,585.332 389.398,588.273 C389.53,591.001 388.727,593.933 385.213,593.936 C381.107,593.941 382.184,590.423 381.669,588.231" fill="#FEFDFD"/>
  </g>
</svg>
