<?xml version="1.0" encoding="iso-8859-1"?>
<!-- Uploaded to: SVG Repo, www.svgrepo.com, Generator: SVG Repo Mixer Tools -->
<svg version="1.1" id="Layer_1" xmlns="http://www.w3.org/2000/svg" xmlns:xlink="http://www.w3.org/1999/xlink" 
	 viewBox="0 0 506 506" xml:space="preserve">
<circle style="fill:#90DFAA;" cx="253" cy="253" r="253"/>
<rect x="99.5" y="119.6" style="fill:#324A5E;" width="307.1" height="216"/>
<rect x="117.3" y="136.7" style="fill:#FFFFFF;" width="271.4" height="181.8"/>
<path style="fill:#2B3B4E;" d="M301.5,348.3l-0.3,1.8c0,0-0.3,2-1,4.4c-1.6,5.1-5,8.4-8.7,8.4h-76.9c-3.8,0-7.4-3.6-8.9-9
	c-0.6-2.1-0.9-3.7-0.9-3.8l-0.3-1.8H80.9l0.6,2.6c0,0.2,1,4.4,3.3,9.9c6.5,15.6,21.7,25.7,38.8,25.7h258.9
	c16.6,0,31.6-9.5,38.1-24.2c2.8-6.2,3.8-11.1,3.9-11.3l0.6-2.6L301.5,348.3z"/>
<rect x="132.3" y="154.4" style="fill:#CED5E0;" width="112.8" height="84"/>
<path style="fill:#FF7058;" d="M188.7,172.3c-13.3,0-24.1,10.8-24.1,24.1s10.8,24.1,24.1,24.1s24.1-10.8,24.1-24.1
	S202,172.3,188.7,172.3z"/>
<polygon style="fill:#FFFFFF;" points="180.9,181.5 180.9,211.9 203.3,196.7 "/>
<rect x="132.3" y="252" style="fill:#54C0EB;" width="21.5" height="21.5"/>
<g>
	<rect x="161.7" y="254.7" style="fill:#E6E9EE;" width="82.5" height="4.3"/>
	<rect x="161.7" y="266.5" style="fill:#E6E9EE;" width="53" height="4.3"/>
</g>
<rect x="132.3" y="282.7" style="fill:#F9B54C;" width="21.5" height="21.5"/>
<g>
	<rect x="161.7" y="285.5" style="fill:#E6E9EE;" width="82.5" height="4.3"/>
	<rect x="161.7" y="297.2" style="fill:#E6E9EE;" width="53" height="4.3"/>
</g>
<rect x="262" y="154.9" style="fill:#2B3B4E;" width="21.5" height="21.5"/>
<g>
	<rect x="292.9" y="157.6" style="fill:#E6E9EE;" width="82.5" height="4.3"/>
	<rect x="292.9" y="169.4" style="fill:#E6E9EE;" width="53" height="4.3"/>
</g>
<rect x="262" y="186.9" style="fill:#4CDBC4;" width="21.5" height="21.5"/>
<g>
	<rect x="292.9" y="189.6" style="fill:#E6E9EE;" width="82.5" height="4.3"/>
	<rect x="292.9" y="201.3" style="fill:#E6E9EE;" width="53" height="4.3"/>
</g>
<rect x="262" y="218.8" style="fill:#84DBFF;" width="21.5" height="21.5"/>
<g>
	<rect x="292.9" y="221.5" style="fill:#E6E9EE;" width="82.5" height="4.3"/>
	<rect x="292.9" y="233.3" style="fill:#E6E9EE;" width="53" height="4.3"/>
</g>
<rect x="262" y="250.8" style="fill:#FF7058;" width="21.5" height="21.5"/>
<g>
	<rect x="292.9" y="253.5" style="fill:#E6E9EE;" width="82.5" height="4.3"/>
	<rect x="292.9" y="265.2" style="fill:#E6E9EE;" width="53" height="4.3"/>
</g>
<rect x="262" y="282.7" style="fill:#CED5E0;" width="21.5" height="21.5"/>
<g>
	<rect x="292.9" y="285.5" style="fill:#E6E9EE;" width="82.5" height="4.3"/>
	<rect x="292.9" y="297.2" style="fill:#E6E9EE;" width="53" height="4.3"/>
</g>
</svg>